<svg width="419" height="83" viewBox="0 0 419 83" fill="none" xmlns="http://www.w3.org/2000/svg">
<g filter="url(#filter0_d_208_3)">
<path d="M53.7506 23.5605C53.7506 23.5605 44.735 -2.84831 40.2272 4.19403C35.7195 11.2364 30.3101 26.6415 30.3101 26.6415C30.3101 26.6415 10.4759 32.3634 7.32046 36.3247C4.16502 40.286 25.3516 48.6488 25.3516 48.6488C25.3516 48.6488 18.1391 72.8569 25.3516 71.9766C32.564 71.0963 45.6366 58.7722 45.6366 58.7722C45.6366 58.7722 65.9216 73.2978 68.1755 69.3357C70.4294 65.3736 64.1185 44.2473 64.1185 44.2473C64.1185 44.2473 78.5434 29.2824 78.9941 23.5605C79.4449 17.8386 53.7506 23.5605 53.7506 23.5605Z" fill="#267C9D"/>
<path d="M53.7506 23.5605C53.7506 23.5605 44.735 -2.84831 40.2272 4.19403C35.7195 11.2364 30.3101 26.6415 30.3101 26.6415C30.3101 26.6415 10.4759 32.3634 7.32046 36.3247C4.16502 40.286 25.3516 48.6488 25.3516 48.6488C25.3516 48.6488 18.1391 72.8569 25.3516 71.9766C32.564 71.0963 45.6366 58.7722 45.6366 58.7722C45.6366 58.7722 65.9216 73.2978 68.1755 69.3357C70.4294 65.3736 64.1185 44.2473 64.1185 44.2473C64.1185 44.2473 78.5434 29.2824 78.9941 23.5605C79.4449 17.8386 53.7506 23.5605 53.7506 23.5605Z" stroke="#302F37" stroke-width="5"/>
</g>
<g filter="url(#filter1_d_208_3)">
<path d="M164.751 23.5605C164.751 23.5605 155.735 -2.84831 151.227 4.19403C146.719 11.2364 141.31 26.6415 141.31 26.6415C141.31 26.6415 121.476 32.3634 118.32 36.3247C115.165 40.286 136.352 48.6488 136.352 48.6488C136.352 48.6488 129.139 72.8569 136.352 71.9766C143.564 71.0963 156.637 58.7722 156.637 58.7722C156.637 58.7722 176.922 73.2978 179.175 69.3357C181.429 65.3736 175.118 44.2473 175.118 44.2473C175.118 44.2473 189.543 29.2824 189.994 23.5605C190.445 17.8386 164.751 23.5605 164.751 23.5605Z" fill="#267C9D"/>
<path d="M164.751 23.5605C164.751 23.5605 155.735 -2.84831 151.227 4.19403C146.719 11.2364 141.31 26.6415 141.31 26.6415C141.31 26.6415 121.476 32.3634 118.32 36.3247C115.165 40.286 136.352 48.6488 136.352 48.6488C136.352 48.6488 129.139 72.8569 136.352 71.9766C143.564 71.0963 156.637 58.7722 156.637 58.7722C156.637 58.7722 176.922 73.2978 179.175 69.3357C181.429 65.3736 175.118 44.2473 175.118 44.2473C175.118 44.2473 189.543 29.2824 189.994 23.5605C190.445 17.8386 164.751 23.5605 164.751 23.5605Z" stroke="#302F37" stroke-width="5"/>
</g>
<g filter="url(#filter2_d_208_3)">
<path d="M275.751 23.5605C275.751 23.5605 266.735 -2.84831 262.227 4.19403C257.719 11.2364 252.31 26.6415 252.31 26.6415C252.31 26.6415 232.476 32.3634 229.32 36.3247C226.165 40.286 247.352 48.6488 247.352 48.6488C247.352 48.6488 240.139 72.8569 247.352 71.9766C254.564 71.0963 267.637 58.7722 267.637 58.7722C267.637 58.7722 287.922 73.2978 290.175 69.3357C292.429 65.3736 286.118 44.2473 286.118 44.2473C286.118 44.2473 300.543 29.2824 300.994 23.5605C301.445 17.8386 275.751 23.5605 275.751 23.5605Z" fill="#267C9D"/>
<path d="M275.751 23.5605C275.751 23.5605 266.735 -2.84831 262.227 4.19403C257.719 11.2364 252.31 26.6415 252.31 26.6415C252.31 26.6415 232.476 32.3634 229.32 36.3247C226.165 40.286 247.352 48.6488 247.352 48.6488C247.352 48.6488 240.139 72.8569 247.352 71.9766C254.564 71.0963 267.637 58.7722 267.637 58.7722C267.637 58.7722 287.922 73.2978 290.175 69.3357C292.429 65.3736 286.118 44.2473 286.118 44.2473C286.118 44.2473 300.543 29.2824 300.994 23.5605C301.445 17.8386 275.751 23.5605 275.751 23.5605Z" stroke="#302F37" stroke-width="5"/>
</g>
<g filter="url(#filter3_d_208_3)">
<path d="M386.751 23.5605C386.751 23.5605 377.735 -2.84831 373.227 4.19403C368.719 11.2364 363.31 26.6415 363.31 26.6415C363.31 26.6415 343.476 32.3634 340.32 36.3247C337.165 40.286 358.352 48.6488 358.352 48.6488C358.352 48.6488 351.139 72.8569 358.352 71.9766C365.564 71.0963 378.637 58.7722 378.637 58.7722C378.637 58.7722 398.922 73.2978 401.175 69.3357C403.429 65.3736 397.118 44.2473 397.118 44.2473C397.118 44.2473 411.543 29.2824 411.994 23.5605C412.445 17.8386 386.751 23.5605 386.751 23.5605Z" fill="#267C9D"/>
<path d="M386.751 23.5605C386.751 23.5605 377.735 -2.84831 373.227 4.19403C368.719 11.2364 363.31 26.6415 363.31 26.6415C363.31 26.6415 343.476 32.3634 340.32 36.3247C337.165 40.286 358.352 48.6488 358.352 48.6488C358.352 48.6488 351.139 72.8569 358.352 71.9766C365.564 71.0963 378.637 58.7722 378.637 58.7722C378.637 58.7722 398.922 73.2978 401.175 69.3357C403.429 65.3736 397.118 44.2473 397.118 44.2473C397.118 44.2473 411.543 29.2824 411.994 23.5605C412.445 17.8386 386.751 23.5605 386.751 23.5605Z" stroke="#302F37" stroke-width="5"/>
</g>
<defs>
<filter id="filter0_d_208_3" x="0.501953" y="0.5" width="84.998" height="82" filterUnits="userSpaceOnUse" color-interpolation-filters="sRGB">
<feFlood flood-opacity="0" result="BackgroundImageFix"/>
<feColorMatrix in="SourceAlpha" type="matrix" values="0 0 0 0 0 0 0 0 0 0 0 0 0 0 0 0 0 0 127 0" result="hardAlpha"/>
<feOffset dy="4"/>
<feGaussianBlur stdDeviation="2"/>
<feComposite in2="hardAlpha" operator="out"/>
<feColorMatrix type="matrix" values="0 0 0 0 0 0 0 0 0 0 0 0 0 0 0 0 0 0 0.25 0"/>
<feBlend mode="normal" in2="BackgroundImageFix" result="effect1_dropShadow_208_3"/>
<feBlend mode="normal" in="SourceGraphic" in2="effect1_dropShadow_208_3" result="shape"/>
</filter>
<filter id="filter1_d_208_3" x="111.502" y="0.5" width="84.998" height="82" filterUnits="userSpaceOnUse" color-interpolation-filters="sRGB">
<feFlood flood-opacity="0" result="BackgroundImageFix"/>
<feColorMatrix in="SourceAlpha" type="matrix" values="0 0 0 0 0 0 0 0 0 0 0 0 0 0 0 0 0 0 127 0" result="hardAlpha"/>
<feOffset dy="4"/>
<feGaussianBlur stdDeviation="2"/>
<feComposite in2="hardAlpha" operator="out"/>
<feColorMatrix type="matrix" values="0 0 0 0 0 0 0 0 0 0 0 0 0 0 0 0 0 0 0.25 0"/>
<feBlend mode="normal" in2="BackgroundImageFix" result="effect1_dropShadow_208_3"/>
<feBlend mode="normal" in="SourceGraphic" in2="effect1_dropShadow_208_3" result="shape"/>
</filter>
<filter id="filter2_d_208_3" x="222.502" y="0.5" width="84.998" height="82" filterUnits="userSpaceOnUse" color-interpolation-filters="sRGB">
<feFlood flood-opacity="0" result="BackgroundImageFix"/>
<feColorMatrix in="SourceAlpha" type="matrix" values="0 0 0 0 0 0 0 0 0 0 0 0 0 0 0 0 0 0 127 0" result="hardAlpha"/>
<feOffset dy="4"/>
<feGaussianBlur stdDeviation="2"/>
<feComposite in2="hardAlpha" operator="out"/>
<feColorMatrix type="matrix" values="0 0 0 0 0 0 0 0 0 0 0 0 0 0 0 0 0 0 0.25 0"/>
<feBlend mode="normal" in2="BackgroundImageFix" result="effect1_dropShadow_208_3"/>
<feBlend mode="normal" in="SourceGraphic" in2="effect1_dropShadow_208_3" result="shape"/>
</filter>
<filter id="filter3_d_208_3" x="333.502" y="0.5" width="84.998" height="82" filterUnits="userSpaceOnUse" color-interpolation-filters="sRGB">
<feFlood flood-opacity="0" result="BackgroundImageFix"/>
<feColorMatrix in="SourceAlpha" type="matrix" values="0 0 0 0 0 0 0 0 0 0 0 0 0 0 0 0 0 0 127 0" result="hardAlpha"/>
<feOffset dy="4"/>
<feGaussianBlur stdDeviation="2"/>
<feComposite in2="hardAlpha" operator="out"/>
<feColorMatrix type="matrix" values="0 0 0 0 0 0 0 0 0 0 0 0 0 0 0 0 0 0 0.25 0"/>
<feBlend mode="normal" in2="BackgroundImageFix" result="effect1_dropShadow_208_3"/>
<feBlend mode="normal" in="SourceGraphic" in2="effect1_dropShadow_208_3" result="shape"/>
</filter>
</defs>
</svg>
