<svg width="1936" height="1091" viewBox="0 0 1936 1091" fill="none" xmlns="http://www.w3.org/2000/svg">
<path d="M111.489 155.683L0.489258 221.795L-12.5 1053.5L35.5074 1040.29L139.061 987.73L236.989 971.072H406.489L504.489 958.7L554.989 930.477L609.989 891.428L675.384 863.204L746.989 817.196L802.489 749.537L908 726.5H1019L1201.5 759.5L1336 780L1429.99 699.068L1499.5 685L1604.5 692L1671 657.5L1721 575.5L1764.5 589L1813 605L1883 612.5L1935.49 589V519.068V444.491V352.088V155.683V-14.4316H700.937L675.384 7.20785L589.989 54.3874H477.989L381.989 63.6664L367.247 99.2357L345.489 155.683H111.489Z" fill="#302F37"/>
<g filter="url(#filter0_d_190_7)">
<path d="M-34.9083 250.579C-54.6418 267.165 70.5805 165.213 116.654 156.95C162.727 148.687 311.677 163.055 341.931 154.738C372.185 146.421 346.175 73.702 383.342 61.1903C420.51 48.6785 548.757 63.2801 601.136 50.8034C653.516 38.3267 705.979 -22.231 705.979 -22.231" stroke="white" stroke-width="25"/>
</g>
<g filter="url(#filter1_d_190_7)">
<path d="M1960.46 576.808C1880.8 601.69 1878 645.501 1777 591.001C1676 536.5 1730.89 629.49 1647 675.001C1563.11 720.512 1503.5 661.001 1420 705.501C1346.1 744.882 1381 803.501 1214.34 758.799C1047.68 714.098 929.593 710.675 841.226 732.096C732.177 758.53 780.433 834.966 669.451 859.433C538.625 888.275 582.798 970.946 406.945 962.787C231.093 954.627 250.856 962.192 163.81 982.073C67.0929 1004.16 -36.5098 1072.57 -36.5098 1072.57" stroke="white" stroke-width="25"/>
</g>
<path d="M849.581 636.825C849.581 636.825 829.913 657.659 816.078 661.157C802.243 664.655 795.411 660.884 795.411 660.884" stroke="white" stroke-width="7"/>
<path d="M860.002 651.178C860.002 651.178 842.717 668.447 831.286 672.034C819.854 675.62 814.567 673.172 814.567 673.172" stroke="white" stroke-width="7"/>
<path d="M839.242 622.592C839.242 622.592 821.957 639.861 810.526 643.448C799.094 647.034 793.808 644.586 793.808 644.586" stroke="white" stroke-width="7"/>
<path d="M860.63 573.123C869.396 571.101 890.899 569.705 892.975 572.564L885.236 576.001L873.478 582.357L863.795 591.573C863.795 591.573 846.625 587.661 845.889 583.829C845.153 579.997 851.864 575.145 860.63 573.123Z" fill="#FF4040" stroke="black" stroke-width="7"/>
<path d="M913.577 646.027C918.212 638.317 926.192 618.301 924.116 615.442L897.012 637.31C897.012 637.31 895.42 654.848 898.836 656.733C902.252 658.618 908.943 653.738 913.577 646.027Z" fill="#FF4040" stroke="black" stroke-width="7"/>
<path d="M886.803 575.339C894.541 571.901 929.95 561.469 937.216 571.474C944.482 581.479 925.985 612.378 918.982 619.647C911.979 626.916 905.764 632.953 894.86 637.166C889.685 639.166 881.025 640.664 881.025 640.664L856.112 606.361C856.112 606.361 859.334 597.622 862.681 592.858C869.417 583.27 879.065 578.778 886.803 575.339Z" fill="white" stroke="black" stroke-width="7"/>
<path d="M840.711 610.521L856.924 607.479L880.798 640.353L873.928 656.258L840.711 610.521Z" fill="#BCBCBC" stroke="black" stroke-width="7"/>
<path d="M898.203 616.405C893.275 619.984 885.839 618.791 881.688 613.076C877.538 607.361 878.704 599.92 883.632 596.341C888.559 592.762 895.996 593.955 900.146 599.67C904.297 605.385 903.131 612.826 898.203 616.405Z" fill="#279DD9" stroke="black" stroke-width="7"/>
<path d="M513.159 267.802C514.604 271.617 521.83 277.986 521.83 277.986C521.83 277.986 533.389 283.077 536.279 283.077C539.169 283.077 547.834 284.344 556.505 280.529C565.176 276.714 572.399 269.078 576.734 265.26C581.068 261.442 596.962 241.08 595.517 239.807C594.072 238.535 578.178 243.623 578.178 243.623C578.178 243.623 596.962 220.718 598.407 216.897C599.851 213.077 599.851 206.716 598.407 202.899C596.962 199.081 547.836 229.624 547.836 229.624C547.836 229.624 547.838 216.9 546.391 216.897C544.945 216.895 516.05 241.08 513.159 248.713C510.268 256.346 511.714 263.987 513.159 267.802Z" fill="#F3CC2E" stroke="#E8992B" stroke-width="7"/>
<ellipse cx="539.166" cy="258.891" rx="17.3385" ry="15.2715" fill="#E8992B"/>
<path d="M1815.02 263.374C1815.02 267.154 1812.07 270.035 1808.66 270.035C1805.25 270.035 1802.3 267.154 1802.3 263.374C1802.3 259.594 1805.25 256.713 1808.66 256.713C1812.07 256.713 1815.02 259.594 1815.02 263.374Z" fill="white" stroke="white" stroke-width="7"/>
<path d="M1834.73 304.021C1834.73 307.801 1831.79 310.682 1828.37 310.682C1824.96 310.682 1822.02 307.801 1822.02 304.021C1822.02 300.241 1824.96 297.359 1828.37 297.359C1831.79 297.359 1834.73 300.241 1834.73 304.021Z" fill="white" stroke="white" stroke-width="7"/>
<path d="M1783.48 328.407C1783.48 332.187 1780.53 335.069 1777.12 335.069C1773.71 335.069 1770.76 332.187 1770.76 328.407C1770.76 324.627 1773.71 321.746 1777.12 321.746C1780.53 321.746 1783.48 324.627 1783.48 328.407Z" fill="white" stroke="white" stroke-width="7"/>
<ellipse cx="1761.35" cy="283.696" rx="9.85714" ry="10.1613" fill="white"/>
<path d="M1850.5 222.73C1850.5 226.51 1847.56 229.391 1844.15 229.391C1840.73 229.391 1837.79 226.51 1837.79 222.73C1837.79 218.95 1840.73 216.068 1844.15 216.068C1847.56 216.068 1850.5 218.95 1850.5 222.73Z" fill="white" stroke="white" stroke-width="7"/>
<path d="M1885.99 247.116C1885.99 250.896 1883.04 253.778 1879.63 253.778C1876.22 253.778 1873.28 250.896 1873.28 247.116C1873.28 243.336 1876.22 240.455 1879.63 240.455C1883.04 240.455 1885.99 243.336 1885.99 247.116Z" fill="white" stroke="white" stroke-width="7"/>
<path d="M1810.63 265.407L1828.38 306.052L1779.09 328.407L1761.35 283.697L1810.63 265.407ZM1810.63 265.407L1844.15 224.762L1879.63 247.117" stroke="white" stroke-width="7"/>
<path d="M174.99 711.068C174.99 738.563 151.831 761.068 122.99 761.068C94.1492 761.068 70.9902 738.563 70.9902 711.068C70.9902 683.574 94.1492 661.068 122.99 661.068C151.831 661.068 174.99 683.574 174.99 711.068Z" fill="#97D4F1" stroke="black" stroke-width="7"/>
<path d="M98.9902 747.068C98.9902 751.911 94.8676 756.068 89.4902 756.068C84.1129 756.068 79.9902 751.911 79.9902 747.068C79.9902 742.226 84.1129 738.068 89.4902 738.068C94.8676 738.068 98.9902 742.226 98.9902 747.068Z" fill="#4A9ACB" stroke="black" stroke-width="7"/>
<path d="M164.99 668.568C164.99 674.253 160.182 679.068 153.99 679.068C147.798 679.068 142.99 674.253 142.99 668.568C142.99 662.884 147.798 658.068 153.99 658.068C160.182 658.068 164.99 662.884 164.99 668.568Z" fill="#4A9ACB" stroke="black" stroke-width="7"/>
<path d="M144.092 721.91C145.385 720.473 145.268 718.26 143.832 716.967C142.395 715.674 140.182 715.79 138.889 717.227L144.092 721.91ZM108.092 761.91L144.092 721.91L138.889 717.227L102.889 757.227L108.092 761.91Z" fill="black"/>
<path d="M102.926 688.303C101.61 689.719 101.692 691.934 103.108 693.249C104.524 694.565 106.739 694.484 108.054 693.067L102.926 688.303ZM130.45 658.675L102.926 688.303L108.054 693.067L135.578 663.439L130.45 658.675Z" fill="black"/>
<path d="M147.872 698.247C146.589 699.693 146.722 701.905 148.169 703.187C149.615 704.47 151.827 704.337 153.11 702.89L147.872 698.247ZM163.396 680.735L147.872 698.247L153.11 702.89L168.634 685.379L163.396 680.735Z" fill="black"/>
<path d="M150.106 743.894C151.39 742.449 151.26 740.237 149.816 738.952C148.371 737.668 146.159 737.798 144.874 739.243L150.106 743.894ZM134.106 761.894L150.106 743.894L144.874 739.243L128.874 757.243L134.106 761.894Z" fill="black"/>
<path d="M99.9941 713.014C101.345 711.631 101.319 709.415 99.9358 708.065C98.553 706.714 96.3371 706.74 94.9864 708.123L99.9941 713.014ZM78.9941 734.514L99.9941 713.014L94.9864 708.123L73.9864 729.623L78.9941 734.514Z" fill="black"/>
<circle cx="767.49" cy="114.568" r="5" fill="white"/>
<circle cx="1825.49" cy="447.568" r="5" fill="white"/>
<circle cx="339.49" cy="271.568" r="5" fill="white"/>
<circle cx="1675.49" cy="484.568" r="5" fill="white"/>
<circle cx="521.49" cy="123.568" r="5" fill="white"/>
<circle cx="1617.49" cy="308.568" r="5" fill="white"/>
<circle cx="1295.49" cy="463.568" r="5" fill="white"/>
<circle cx="506.49" cy="613.568" r="5" fill="white"/>
<circle cx="690.49" cy="716.568" r="5" fill="white"/>
<circle cx="268.49" cy="618.568" r="5" fill="white"/>
<circle cx="1241.49" cy="643.568" r="5" fill="white"/>
<circle cx="917" cy="198" r="5" fill="white"/>
<circle cx="1065.49" cy="619.568" r="5" fill="white"/>
<circle cx="1570.49" cy="46.5684" r="5" fill="white"/>
<circle cx="1219" cy="298" r="5" fill="white"/>
<circle cx="1007.49" cy="46.5684" r="5" fill="white"/>
<circle cx="1575" cy="171" r="5" fill="white"/>
<circle cx="1310" cy="57" r="5" fill="white"/>
<circle cx="1809" cy="105" r="5" fill="white"/>
<circle cx="1192" cy="151" r="5" fill="white"/>
<circle cx="700.49" cy="579.568" r="5" fill="white"/>
<circle cx="126.49" cy="273.568" r="5" fill="white"/>
<circle cx="97.4893" cy="492.568" r="5" fill="white"/>
<circle cx="1879.49" cy="27.5684" r="5" fill="white"/>
<circle cx="929.49" cy="343.568" r="5" fill="white"/>
<circle cx="1500.49" cy="450.568" r="5" fill="white"/>
<circle cx="1539" cy="615" r="5" fill="white"/>
<circle cx="136.49" cy="913.568" r="5" fill="white"/>
<circle cx="670" cy="318" r="5" fill="white"/>
<circle cx="379.49" cy="734.568" r="5" fill="white"/>
<path d="M1390.82 274.529C1384.11 284.773 1369.66 287.571 1358.41 280.209C1347.17 272.846 1343.95 258.483 1350.66 248.239C1357.36 237.995 1371.81 235.196 1383.06 242.559C1394.31 249.921 1397.52 264.285 1390.82 274.529Z" fill="#4F7AB1" stroke="black" stroke-width="7"/>
<path d="M416.276 830.374C416.276 835.474 412.584 839.036 408.704 839.036C404.825 839.036 401.133 835.474 401.133 830.374C401.133 825.274 404.825 821.713 408.704 821.713C412.584 821.713 416.276 825.274 416.276 830.374Z" fill="white" stroke="white" stroke-width="7"/>
<ellipse cx="355.562" cy="854.696" rx="11.0714" ry="12.1613" fill="white"/>
<path d="M456.133 781.73C456.133 786.83 452.441 790.391 448.562 790.391C444.682 790.391 440.99 786.83 440.99 781.73C440.99 776.63 444.682 773.068 448.562 773.068C452.441 773.068 456.133 776.63 456.133 781.73Z" fill="white" stroke="white" stroke-width="7"/>
<path d="M495.99 810.917C495.99 816.017 492.299 819.578 488.419 819.578C484.54 819.578 480.848 816.017 480.848 810.917C480.848 805.817 484.54 802.256 488.419 802.256C492.299 802.256 495.99 805.817 495.99 810.917Z" fill="white" stroke="white" stroke-width="7"/>
<path d="M355.562 854.698L410.919 832.807L448.561 784.162L488.419 810.917" stroke="white" stroke-width="7"/>
<path d="M1170.04 356.499C1163.17 336.557 1150.47 355.372 1149.71 357.343C1148.95 359.315 1144.16 379.392 1136.9 393.625C1130.78 405.635 1117.36 422.086 1117.36 422.086L1120.63 438.065C1120.63 438.065 1176.92 376.442 1170.04 356.499Z" fill="white" stroke="black" stroke-width="7" stroke-linecap="round" stroke-linejoin="round"/>
<path d="M1028.86 432.666C1031.6 426.552 1037.08 419.227 1037.08 419.227L1046.95 446.43C1046.95 446.43 1026.12 438.781 1028.86 432.666Z" fill="white" stroke="black" stroke-width="7" stroke-linecap="round" stroke-linejoin="round"/>
<path d="M1054.52 461.047C1043.78 444.109 1036.17 414.729 1036.17 414.729C1036.17 414.729 1057 412.957 1069.06 407.779C1081.83 402.3 1098.13 387.279 1098.13 387.279C1098.13 387.279 1112.58 397.754 1114.9 400.536C1117.22 403.318 1104.61 415.44 1104.61 415.44L1116.64 420.454L1128.17 455.09L1109.34 466.701L1098.43 456.836L1090.68 460.267L1096.83 476.599L1075.42 486.086C1075.42 486.086 1061.34 471.803 1054.52 461.047Z" fill="white"/>
<path d="M1092.58 410.426L1104.61 415.44M1104.61 415.44L1116.64 420.454L1128.17 455.09L1109.34 466.701L1098.43 456.836L1090.68 460.267L1096.83 476.599L1075.42 486.086C1075.42 486.086 1061.34 471.803 1054.52 461.047C1043.78 444.109 1036.17 414.729 1036.17 414.729C1036.17 414.729 1057 412.957 1069.06 407.779C1081.83 402.3 1098.13 387.279 1098.13 387.279C1098.13 387.279 1112.58 397.754 1114.9 400.536C1117.22 403.318 1104.61 415.44 1104.61 415.44Z" stroke="black" stroke-width="7" stroke-linecap="round" stroke-linejoin="round"/>
<path d="M1058.3 432.69L1071.36 425.27L1086.39 418.609L1093.65 434.993L1081.15 444.891L1066.57 451.35L1058.3 432.69Z" fill="#FF4040"/>
<path d="M1067.53 416.623L1071.36 425.27M1071.36 425.27L1058.3 432.69L1066.57 451.35L1081.15 444.891M1071.36 425.27L1086.39 418.609L1093.65 434.993L1081.15 444.891M1081.15 444.891L1084.57 452.628" stroke="black" stroke-width="7" stroke-linecap="round" stroke-linejoin="round"/>
<path d="M1027.58 374.432L1033.57 399.004L1034.58 401.28C1034.58 401.28 1053.92 399.953 1065.19 395.339C1076.7 390.625 1091.66 377.617 1091.66 377.617L1077.79 354.909C1077.79 354.909 1067.5 331.699 1066.23 334.984L1060.14 350.75L1039.19 360.035C1039.19 360.035 1022 350.77 1020.59 352.488C1019.17 354.206 1027.58 374.432 1027.58 374.432Z" fill="white" stroke="black" stroke-width="7"/>
<path d="M1063.2 352.773C1065.63 358.251 1062.11 365.123 1055.34 368.121C1048.58 371.119 1041.12 369.108 1038.7 363.629C1037.84 364.011 1044.02 361.504 1050.79 358.506C1057.56 355.509 1063.44 352.319 1063.2 352.773Z" fill="#FF9D00"/>
<path d="M1099.46 478.701C1099.61 478.634 1099.73 478.579 1099.84 478.535C1101.8 483.619 1098.53 489.995 1092.08 492.853C1085.68 495.688 1078.82 493.88 1076.33 489.095C1076.35 489.085 1076.38 489.075 1076.4 489.064C1076.97 488.835 1077.88 488.463 1079.02 487.986C1081.31 487.031 1084.55 485.654 1087.94 484.153C1091.24 482.69 1094.33 481.182 1096.6 480.075L1096.78 479.984C1097.93 479.425 1098.85 478.979 1099.46 478.701Z" fill="#FF9D00" stroke="#D98D23"/>
<path d="M1131.09 457.219C1131.22 457.13 1131.34 457.056 1131.44 456.996C1134.18 461.706 1131.96 468.516 1126.04 472.356C1120.17 476.165 1113.11 475.462 1109.89 471.131C1109.91 471.117 1109.93 471.103 1109.96 471.089C1110.48 470.773 1111.32 470.263 1112.37 469.611C1114.48 468.308 1117.46 466.437 1120.57 464.42C1123.6 462.455 1126.41 460.479 1128.48 459.027L1128.65 458.908C1129.69 458.175 1130.53 457.591 1131.09 457.219Z" fill="white" stroke="#DADADA"/>
<path d="M1116.92 416.807C1115.16 416.798 1113.2 416.191 1111.41 414.968C1111.61 414.736 1111.87 414.422 1112.18 414.045C1112.96 413.079 1114.07 411.695 1115.2 410.21C1116.3 408.758 1117.26 407.314 1117.96 406.259C1117.98 406.229 1118 406.2 1118.02 406.171C1118.36 405.661 1118.63 405.259 1118.82 404.994C1120.54 406.39 1121.68 408.142 1122.18 409.869C1122.71 411.703 1122.49 413.476 1121.48 414.802C1120.48 416.127 1118.83 416.816 1116.92 416.807ZM1119.04 404.726C1119.05 404.716 1119.04 404.719 1119.03 404.729C1119.03 404.728 1119.03 404.727 1119.04 404.726Z" fill="white" stroke="#DADADA"/>
<path d="M1030.43 450.991C1026.39 448.727 1024.9 443.589 1027.01 439.302C1027.37 439.525 1027.91 439.853 1028.58 440.254C1030.05 441.13 1032.14 442.358 1034.37 443.606C1036.54 444.824 1038.66 445.885 1040.22 446.663L1040.35 446.728C1041.14 447.121 1041.76 447.434 1042.16 447.655C1042.2 447.676 1042.24 447.696 1042.27 447.714C1039.73 451.821 1034.51 453.274 1030.43 450.991ZM1042.57 447.901C1042.57 447.901 1042.57 447.899 1042.56 447.895C1042.57 447.899 1042.57 447.902 1042.57 447.901Z" fill="white" stroke="#DADADA"/>
<path d="M1035.57 413.362L1030.93 402.895C1030.93 402.895 1035.73 402.336 1042.01 401.215C1045.45 400.601 1049.34 399.819 1053.12 398.868C1056.53 398.013 1059.85 397.022 1062.7 395.893C1063.31 395.654 1063.92 395.397 1064.54 395.123C1067.83 393.676 1071.32 391.777 1074.7 389.751C1078.35 387.562 1081.86 385.224 1084.85 383.146C1089.94 379.599 1093.49 376.81 1093.49 376.81L1097.01 387.226C1097.01 387.226 1094.27 389.704 1090.15 392.99C1087.27 395.282 1083.73 397.966 1079.98 400.477C1076.56 402.763 1072.98 404.906 1069.57 406.477C1068.96 406.761 1068.35 407.027 1067.75 407.271C1064.9 408.427 1061.56 409.38 1058.13 410.16C1054.3 411.03 1050.36 411.685 1046.86 412.169C1040.47 413.053 1035.57 413.362 1035.57 413.362Z" fill="#8F8585"/>
<path d="M1046.86 412.169C1040.47 413.053 1035.57 413.362 1035.57 413.362L1030.93 402.895C1030.93 402.895 1035.73 402.336 1042.01 401.215M1046.86 412.169L1042.01 401.215M1046.86 412.169C1050.36 411.685 1054.3 411.03 1058.13 410.16M1042.01 401.215C1045.45 400.601 1049.34 399.819 1053.12 398.868M1053.12 398.868C1056.53 398.013 1059.85 397.022 1062.7 395.893C1063.31 395.654 1063.92 395.397 1064.54 395.123M1053.12 398.868L1058.13 410.16M1058.13 410.16C1061.56 409.38 1064.9 408.427 1067.75 407.271C1068.35 407.027 1068.96 406.761 1069.57 406.477M1069.57 406.477L1064.54 395.123M1069.57 406.477C1072.98 404.906 1076.56 402.763 1079.98 400.477M1064.54 395.123C1067.83 393.676 1071.32 391.777 1074.7 389.751M1074.7 389.751L1079.98 400.477M1074.7 389.751C1078.35 387.562 1081.86 385.224 1084.85 383.146M1079.98 400.477C1083.73 397.966 1087.27 395.282 1090.15 392.99M1090.15 392.99C1094.27 389.704 1097.01 387.226 1097.01 387.226L1093.49 376.81C1093.49 376.81 1089.94 379.599 1084.85 383.146M1090.15 392.99L1084.85 383.146" stroke="black" stroke-width="7"/>
<ellipse cx="1071.9" cy="437.552" rx="3.48763" ry="3.48448" transform="rotate(-23.8977 1071.9 437.552)" fill="black"/>
<path d="M1051.5 377.989C1052.28 379.748 1050.08 378.622 1048.31 379.402C1046.55 380.182 1045.91 382.574 1045.13 380.815C1044.35 379.055 1045.14 376.996 1046.9 376.216C1048.66 375.436 1050.72 376.23 1051.5 377.989Z" fill="black"/>
<path d="M1068.81 370.321C1069.59 372.08 1067.39 370.954 1065.62 371.734C1063.86 372.514 1063.22 374.906 1062.44 373.147C1061.66 371.387 1062.45 369.328 1064.21 368.548C1065.97 367.768 1068.03 368.562 1068.81 370.321Z" fill="black"/>
<ellipse cx="1081.52" cy="432.205" rx="3.48763" ry="3.48448" transform="rotate(-23.8977 1081.52 432.205)" fill="black"/>
<path d="M1060.84 385.285C1061.89 384.821 1063.74 378.44 1062.37 378.492C1061 378.543 1056.33 380.613 1054.78 381.853C1053.24 383.092 1059.79 385.75 1060.84 385.285Z" fill="#FFB7FA"/>
<path d="M1093.74 376.153C1093.74 376.153 1096.6 354.321 1090.4 342.787C1084.84 332.442 1078.92 326.927 1067.92 322.802C1055.82 318.263 1046.64 319.088 1034.84 324.394C1023.21 329.625 1015.72 334.691 1010.83 346.464C1005.99 358.117 1005.19 366.933 1011.49 379.929C1017.8 392.926 1031.19 402.237 1031.19 402.237C1031.19 402.237 1052.05 399.697 1064.33 394.631C1076.87 389.455 1093.74 376.153 1093.74 376.153Z" fill="#97D7FF" fill-opacity="0.65" stroke="black" stroke-width="7"/>
<path d="M1167.26 358.822C1167.26 358.822 1167.42 369.642 1162.64 371.759C1157.86 373.877 1152.67 375.086 1151.41 368.566C1150.16 362.046 1154.32 354.214 1159.58 351.335C1164.85 348.456 1167.26 358.822 1167.26 358.822Z" fill="#FF9D00"/>
<circle cx="1424.87" cy="547.944" r="36.5" transform="rotate(33.2102 1424.87 547.944)" fill="#8A8A8A" stroke="black" stroke-width="7"/>
<path d="M1417.82 530.926L1427.4 524.183L1431.6 532.585L1432.04 533.463L1432.96 533.808L1439.58 536.29C1439.68 537.097 1439.79 538.161 1439.82 539.285C1439.86 540.466 1439.81 541.628 1439.64 542.594C1439.45 543.628 1439.18 544.086 1439.05 544.222C1438.83 544.44 1438.24 544.799 1437.06 545.131C1435.95 545.441 1434.64 545.648 1433.32 545.778C1432.01 545.907 1430.78 545.955 1429.87 545.97C1429.6 545.974 1429.37 545.976 1429.17 545.976L1420.94 539.914L1417.82 530.926Z" fill="#6A6A6A" stroke="black" stroke-width="5"/>
<path d="M1429.99 561.56L1428.64 568.654L1418.59 572.674L1412.3 568.746L1410.83 565.51L1418.96 557.378L1429.99 561.56Z" fill="#6A6A6A" stroke="black" stroke-width="5"/>
<g filter="url(#filter2_d_190_7)">
<path d="M260 404.8C260 402.867 260.433 401.2 261.3 399.8C262.233 398.333 263.6 397.6 265.4 397.6C266.933 397.6 268.3 397.9 269.5 398.5C270.7 399.1 271.3 400.1 271.3 401.5C271.3 404.233 271.167 408.067 270.9 413C270.633 417.8 270.5 421.367 270.5 423.7C270.5 427.367 270.633 432.267 270.9 438.4C271.167 444.267 271.3 448.567 271.3 451.3C271.3 453.5 271.267 455.133 271.2 456.2C271.2 457.267 270.6 458.333 269.4 459.4C268.267 460.4 266.5 460.9 264.1 460.9C262.833 460.9 261.733 460.7 260.8 460.3C259.933 459.833 259.333 459.333 259 458.8C255.867 455 251.3 448.533 245.3 439.4C238.567 429.2 233.067 421.4 228.8 416C229.333 420.8 229.6 426.667 229.6 433.6C229.6 436.667 229.533 440.667 229.4 445.6C229.333 450.467 229.2 453.667 229 455.2C228.733 457.133 228.133 458.633 227.2 459.7C226.333 460.7 224.933 461.2 223 461.2C221.533 461.2 220.433 460.8 219.7 460C219.033 459.133 218.633 457.667 218.5 455.6C218.433 452.867 218.6 448.767 219 443.3C219.067 442.433 219.167 440.933 219.3 438.8C219.433 436.667 219.5 434.767 219.5 433.1C219.5 428.5 219.267 423.233 218.8 417.3C218.4 410.767 218.2 405.933 218.2 402.8C218.2 401.2 218.767 399.967 219.9 399.1C221.1 398.233 222.467 397.8 224 397.8C225.333 397.8 226.733 398.133 228.2 398.8C233.933 406 241.7 416.733 251.5 431L260.9 445.4C260.967 444.333 261 442.833 261 440.9C261 437.5 260.933 433.833 260.8 429.9C260.667 425.967 260.567 423.3 260.5 421.9C260.167 415.433 260 409.733 260 404.8ZM329.28 456.2C329.28 457.667 328.48 458.9 326.88 459.9C325.347 460.9 323.914 461.4 322.58 461.4C320.047 461.4 318.014 461.1 316.48 460.5C315.014 459.833 313.647 458.633 312.38 456.9C310.647 458.433 308.28 459.6 305.28 460.4C302.28 461.133 299.514 461.5 296.98 461.5C292.847 461.5 289.447 460.4 286.78 458.2C284.114 455.933 282.78 452.633 282.78 448.3C282.78 446.433 283.28 444.733 284.28 443.2C285.28 441.6 286.647 440.2 288.38 439C290.314 437.733 292.514 436.767 294.98 436.1C297.447 435.367 300.014 435 302.68 435C304.08 435 305.747 435.267 307.68 435.8C309.614 436.333 311.114 436.9 312.18 437.5V435.9C312.18 432.3 311.314 429.833 309.58 428.5C307.847 427.1 305.047 426.4 301.18 426.4C300.047 426.4 298.914 426.633 297.78 427.1C296.714 427.567 295.48 428.2 294.08 429C292.214 430 290.447 430.5 288.78 430.5C288.18 430.5 287.614 430.1 287.08 429.3C286.547 428.433 286.28 427.667 286.28 427C286.28 425.067 287.18 423.4 288.98 422C290.847 420.6 293.047 419.567 295.58 418.9C298.114 418.167 300.38 417.8 302.38 417.8C304.38 417.8 306.68 418.2 309.28 419C311.88 419.733 314.014 420.767 315.68 422.1C317.68 423.833 319.214 425.867 320.28 428.2C321.414 430.467 321.98 432.967 321.98 435.7C321.98 436.567 321.914 437.867 321.78 439.6C321.647 441.467 321.58 443.067 321.58 444.4C321.58 445 321.514 445.9 321.38 447.1C321.247 448.567 321.18 449.733 321.18 450.6C321.18 451.4 321.48 452.1 322.08 452.7C322.68 453.233 323.38 453.5 324.18 453.5L326.98 453.4C327.714 453.4 328.28 453.667 328.68 454.2C329.08 454.733 329.28 455.4 329.28 456.2ZM297.08 453.6C299.947 453.6 302.347 453.3 304.28 452.7C306.214 452.1 308.547 451 311.28 449.4C311.547 448.267 311.714 446.767 311.78 444.9C308.114 443.167 305.08 442.3 302.68 442.3C299.947 442.3 297.514 442.8 295.38 443.8C293.247 444.8 292.18 446.567 292.18 449.1C292.18 450.367 292.714 451.433 293.78 452.3C294.847 453.167 295.947 453.6 297.08 453.6ZM335.441 426.4C334.507 426.267 333.741 425.867 333.141 425.2C332.607 424.533 332.341 423.733 332.341 422.8C332.341 422.333 332.441 421.833 332.641 421.3C332.907 420.767 333.274 420.3 333.741 419.9C334.607 419.033 336.941 418.6 340.741 418.6C341.274 416 341.541 413.367 341.541 410.7C341.541 409.7 341.507 408.833 341.441 408.1C341.374 407.367 341.341 406.8 341.341 406.4C341.341 404.933 341.874 403.833 342.941 403.1C344.074 402.367 345.341 402 346.741 402C348.474 402 349.641 402.433 350.241 403.3C350.907 404.167 351.241 405.767 351.241 408.1C351.241 411.567 350.941 414.967 350.341 418.3C351.407 418.3 352.874 418.233 354.741 418.1C357.274 417.967 359.107 417.9 360.241 417.9C361.374 417.9 362.341 418.2 363.141 418.8C364.007 419.333 364.441 420.1 364.441 421.1C364.441 423.7 363.274 425.233 360.941 425.7C358.474 426.3 354.641 426.667 349.441 426.8C349.241 429.4 349.141 432.233 349.141 435.3C349.141 440.1 349.441 444.033 350.041 447.1C350.441 449.233 351.107 450.8 352.041 451.8C353.041 452.733 354.507 453.2 356.441 453.2C357.574 453.2 358.741 452.9 359.941 452.3C360.741 451.833 361.474 451.6 362.141 451.6C363.074 451.6 363.741 451.9 364.141 452.5C364.607 453.1 364.841 453.9 364.841 454.9C364.841 456.767 363.841 458.333 361.841 459.6C359.841 460.8 357.274 461.4 354.141 461.4C352.207 461.4 350.241 460.933 348.241 460C346.307 459.067 344.674 457.9 343.341 456.5C343.141 456.3 342.774 455.533 342.241 454.2C341.707 452.867 341.241 451.433 340.841 449.9C340.174 446.767 339.841 442.367 339.841 436.7C339.841 434.233 339.974 430.933 340.241 426.8L335.441 426.4ZM411.038 461.4C408.772 461.4 407.038 461.067 405.838 460.4C404.638 459.667 403.338 458.333 401.938 456.4C400.205 457.933 397.605 459.167 394.138 460.1C390.738 461.033 387.805 461.5 385.338 461.5C381.272 461.5 377.972 460.4 375.438 458.2C372.972 455.933 371.738 452.633 371.738 448.3C371.738 446.433 372.238 444.733 373.238 443.2C374.305 441.6 375.672 440.2 377.338 439C379.205 437.733 381.405 436.733 383.938 436C386.538 435.267 388.905 434.9 391.038 434.9C394.638 434.9 397.838 435.233 400.638 435.9V435.8C400.638 432.2 399.738 429.733 397.938 428.4C396.205 427 393.405 426.3 389.538 426.3C387.072 426.3 384.938 427.4 383.138 429.6C382.472 430.467 381.072 430.9 378.938 430.9C377.872 430.9 377.072 430.467 376.538 429.6C376.072 428.667 375.838 427.733 375.838 426.8C375.838 424.867 376.638 423.2 378.238 421.8C379.905 420.4 381.905 419.367 384.238 418.7C386.572 417.967 388.738 417.6 390.738 417.6C392.672 417.6 394.972 418 397.638 418.8C400.305 419.6 402.472 420.667 404.138 422C406.138 423.733 407.672 425.767 408.738 428.1C409.872 430.367 410.438 432.867 410.438 435.6C410.438 436.467 410.372 437.767 410.238 439.5C410.105 441.5 410.038 443.133 410.038 444.4C410.038 445 409.972 445.767 409.838 446.7C409.705 447.9 409.638 448.9 409.638 449.7C409.638 450.567 409.905 451.4 410.438 452.2C410.972 453 411.705 453.667 412.638 454.2C413.505 454.667 414.072 455.167 414.338 455.7C414.605 456.233 414.738 456.833 414.738 457.5C414.738 458.167 414.305 459 413.438 460C412.638 460.933 411.838 461.4 411.038 461.4ZM391.038 442.3C388.438 442.3 386.138 442.8 384.138 443.8C382.138 444.8 381.138 446.567 381.138 449.1C381.138 450.367 381.572 451.433 382.438 452.3C383.372 453.167 384.372 453.6 385.438 453.6C388.305 453.6 390.705 453.3 392.638 452.7C394.572 452.1 396.905 451 399.638 449.4C399.972 448.333 400.172 446.833 400.238 444.9C400.238 444.167 400.272 443.6 400.338 443.2C396.738 442.6 393.638 442.3 391.038 442.3ZM433.457 445.5C433.457 448.033 433.824 450 434.557 451.4C435.357 452.733 436.357 453.4 437.557 453.4C438.224 453.4 438.857 453.367 439.457 453.3C440.057 453.167 440.657 453.1 441.257 453.1C441.924 453.1 442.49 453.433 442.957 454.1C443.49 454.767 443.757 455.5 443.757 456.3C443.757 457.9 442.99 459.167 441.457 460.1C439.99 460.967 437.99 461.4 435.457 461.4C433.657 461.4 431.824 460.867 429.957 459.8C428.157 458.667 426.657 456.933 425.457 454.6C424.257 452.2 423.657 449.233 423.657 445.7C423.657 438.1 423.79 431.667 424.057 426.4C424.39 420.133 424.557 412.233 424.557 402.7C424.557 399.7 424.724 397.6 425.057 396.4C425.457 395.467 426.09 394.767 426.957 394.3C427.89 393.767 428.857 393.5 429.857 393.5C430.857 393.5 431.724 393.667 432.457 394C433.257 394.333 433.79 394.867 434.057 395.6C434.324 396.4 434.49 397.2 434.557 398C434.69 398.733 434.757 399.8 434.757 401.2C434.757 403.933 434.657 406.567 434.457 409.1C434.324 412.167 434.257 414.4 434.257 415.8C433.724 427.533 433.457 437.433 433.457 445.5ZM455.477 396.8C457.811 397 459.811 397.633 461.477 398.7C463.211 399.7 464.077 401.233 464.077 403.3C464.077 404.833 463.377 406.067 461.977 407C460.577 407.867 458.844 408.3 456.777 408.3C454.844 408.3 453.511 407.8 452.777 406.8C452.044 405.8 451.677 404.767 451.677 403.7C451.677 401.767 451.911 400.133 452.377 398.8C452.844 397.4 453.877 396.733 455.477 396.8ZM453.477 438.1V435.2C453.477 431.867 453.311 428.833 452.977 426.1C452.711 423.3 452.544 421.567 452.477 420.9C452.544 420.167 453.044 419.467 453.977 418.8C454.911 418.133 455.744 417.8 456.477 417.8C457.744 417.8 459.011 418.067 460.277 418.6C461.611 419.067 462.444 419.667 462.777 420.4C463.111 422.867 463.277 424.767 463.277 426.1C463.277 429.033 463.411 433.833 463.677 440.5L463.777 444.4L463.977 448.2C464.044 449.267 464.111 450.533 464.177 452C464.244 453.467 464.277 455.133 464.277 457C464.277 458.267 463.644 459.333 462.377 460.2C461.177 461.067 459.911 461.5 458.577 461.5C456.644 461.5 455.277 461.067 454.477 460.2C453.744 459.333 453.377 457.967 453.377 456.1L453.477 438.1ZM475.168 439.8C475.168 437.267 475.635 434.733 476.568 432.2C477.501 429.6 478.735 427.233 480.268 425.1C481.801 422.967 484.235 421.233 487.568 419.9C490.901 418.5 493.868 417.8 496.468 417.8C499.135 417.8 501.835 418.167 504.568 418.9C507.368 419.633 509.301 420.767 510.368 422.3C512.835 425.767 514.068 429.167 514.068 432.5C514.068 434.3 513.668 435.833 512.868 437.1C512.135 438.367 511.068 439.733 509.668 441.2C508.535 442.4 506.735 443.2 504.268 443.6C501.868 444 499.468 444.2 497.068 444.2C495.535 444.2 493.668 444.067 491.468 443.8C489.268 443.467 487.135 443.067 485.068 442.6C485.201 443.933 485.535 445.233 486.068 446.5C486.601 447.767 487.235 448.733 487.968 449.4C489.301 450.667 490.668 451.467 492.068 451.8C493.535 452.133 495.401 452.3 497.668 452.3C500.068 452.3 502.301 451.9 504.368 451.1C506.035 450.5 507.401 450.2 508.468 450.2C509.735 450.2 510.701 450.6 511.368 451.4C512.035 452.133 512.368 453.1 512.368 454.3C512.368 455.967 511.401 457.333 509.468 458.4C507.535 459.467 505.301 460.267 502.768 460.8C500.301 461.267 498.301 461.5 496.768 461.5C493.635 461.5 490.601 460.933 487.668 459.8C484.735 458.667 482.301 457.067 480.368 455C478.768 453.133 477.501 450.9 476.568 448.3C475.635 445.633 475.168 442.8 475.168 439.8ZM496.968 426.3C495.501 426.3 494.035 426.6 492.568 427.2C491.101 427.733 489.901 428.5 488.968 429.5C487.768 430.767 486.935 431.8 486.468 432.6C486.068 433.333 485.801 434.367 485.668 435.7C487.335 436.233 490.801 436.5 496.068 436.5C498.935 436.5 501.135 436.067 502.668 435.2C504.268 434.333 505.068 433.2 505.068 431.8C505.068 430.4 504.201 429.133 502.468 428C500.735 426.867 498.901 426.3 496.968 426.3ZM553.085 397.5C554.352 397.5 555.485 397.833 556.485 398.5C557.552 399.167 558.185 400.333 558.385 402C559.185 407.267 559.685 412.533 559.885 417.8C560.152 423 560.285 428.9 560.285 435.5C560.285 438.3 560.052 443.4 559.585 450.8C562.518 451.067 564.785 451.2 566.385 451.2C567.518 451.2 570.085 451.033 574.085 450.7C576.418 450.367 578.452 450.2 580.185 450.2C581.785 450.2 583.252 450.367 584.585 450.7C585.918 450.967 587.285 451.433 588.685 452.1C590.085 452.9 590.785 454.133 590.785 455.8C590.785 457.133 590.352 458.333 589.485 459.4C588.685 460.467 587.718 461 586.585 461C585.785 461 584.518 460.867 582.785 460.6C579.652 460.133 576.652 459.9 573.785 459.9C572.852 459.9 571.785 459.967 570.585 460.1C569.452 460.167 568.618 460.2 568.085 460.2C566.485 460.4 564.885 460.5 563.285 460.5C560.018 460.5 557.085 460.333 554.485 460C553.152 459.867 551.818 459.367 550.485 458.5C549.152 457.567 548.485 456.233 548.485 454.5C548.485 453.5 548.618 450.933 548.885 446.8C549.352 439.933 549.585 434.7 549.585 431.1C549.585 428.3 549.452 425.367 549.185 422.3C548.918 419.233 548.752 417.3 548.685 416.5C548.085 410.833 547.785 406.167 547.785 402.5C547.785 400.767 548.185 399.5 548.985 398.7C549.852 397.9 551.218 397.5 553.085 397.5ZM601.673 396.8C604.007 397 606.04 397.633 607.773 398.7C609.507 399.7 610.373 401.233 610.373 403.3C610.373 404.833 609.64 406.067 608.173 407C606.773 407.867 605.073 408.3 603.073 408.3C601.14 408.3 599.807 407.8 599.073 406.8C598.34 405.8 597.973 404.767 597.973 403.7C597.973 401.7 598.173 400.033 598.573 398.7C599.04 397.367 600.073 396.733 601.673 396.8ZM609.673 441.1V444C609.673 446.6 609.74 449.067 609.873 451.4C610.073 453.667 610.307 455.967 610.573 458.3C610.573 459.1 610.107 459.833 609.173 460.5C608.24 461.1 607.373 461.4 606.573 461.4C605.307 461.4 604.007 461.167 602.673 460.7C601.407 460.167 600.64 459.533 600.373 458.8C599.973 456.667 599.773 454.767 599.773 453.1C599.773 447.633 599.607 441.5 599.273 434.7C599.007 428.7 598.873 424.5 598.873 422.1C598.873 420.9 599.473 419.867 600.673 419C601.873 418.133 603.14 417.7 604.473 417.7C606.407 417.7 607.74 418.133 608.473 419C609.273 419.867 609.673 421.233 609.673 423.1V441.1ZM667.759 453.3C668.093 453.433 668.626 453.6 669.359 453.8C670.093 454 670.626 454.2 670.959 454.4C671.293 454.6 671.459 454.9 671.459 455.3C671.526 456.9 670.926 458.233 669.659 459.3C668.459 460.3 667.026 460.8 665.359 460.8C662.759 460.8 660.726 460.1 659.259 458.7C657.793 457.3 656.726 455.167 656.059 452.3C655.793 451.167 655.659 449.6 655.659 447.6C655.659 446.467 655.726 444.633 655.859 442.1C655.993 439.433 656.059 437.3 656.059 435.7C656.059 432.833 655.759 430.667 655.159 429.2C654.559 427.667 653.126 426.9 650.859 426.9C648.526 426.9 646.426 427.833 644.559 429.7C642.759 431.567 641.226 434.367 639.959 438.1C638.226 443.3 637.259 450.2 637.059 458.8C637.059 459.267 636.559 459.833 635.559 460.5C634.626 461.1 633.493 461.4 632.159 461.4C629.693 461.4 628.159 460.1 627.559 457.5L627.459 455.8C627.459 455.2 627.526 454.5 627.659 453.7C628.459 449.033 628.859 444.967 628.859 441.5C628.859 439.967 628.826 438.767 628.759 437.9L628.659 433.2C628.659 431.6 628.259 430.067 627.459 428.6C626.659 427.067 625.726 426.3 624.659 426.3C624.326 426.3 623.859 426.433 623.259 426.7C622.659 426.9 622.159 427 621.759 427C621.093 427 620.359 426.667 619.559 426C618.826 425.333 618.459 424.633 618.459 423.9C618.459 422.5 618.926 421.367 619.859 420.5C620.859 419.7 621.826 419.067 622.759 418.6C623.759 418.133 624.893 417.9 626.159 417.9C627.226 417.9 628.093 418 628.759 418.2C629.426 418.4 630.326 418.833 631.459 419.5C632.126 419.833 632.893 420.767 633.759 422.3C634.626 423.833 635.293 426 635.759 428.8C637.093 426.333 639.326 423.733 642.459 421C644.793 418.867 648.159 417.8 652.559 417.8C656.559 417.8 659.726 419.267 662.059 422.2C664.393 425.067 665.559 429.033 665.559 434.1C665.559 435.1 665.493 436.733 665.359 439C665.159 440.8 665.059 442.7 665.059 444.7C665.059 449.367 665.959 452.233 667.759 453.3ZM718.798 398.4C718.798 399.067 718.631 400.9 718.298 403.9C717.564 411.233 717.198 418.667 717.198 426.2C717.198 432.8 717.298 437.833 717.498 441.3C717.698 444.767 718.198 447.433 718.998 449.3C719.798 451.1 721.031 452 722.698 452C725.898 452 727.498 453.067 727.498 455.2C727.498 456.6 726.798 457.8 725.398 458.8C723.998 459.733 722.464 460.2 720.798 460.2C718.798 460.2 716.931 459.733 715.198 458.8C713.464 457.867 712.098 456.433 711.098 454.5C709.698 456.567 707.664 458.233 704.998 459.5C702.398 460.7 699.864 461.3 697.398 461.3C693.598 461.3 690.231 460.5 687.298 458.9C684.364 457.3 682.098 455.133 680.498 452.4C678.898 449.6 678.098 446.533 678.098 443.2C678.098 440 678.464 436.933 679.198 434C679.998 431 681.064 428.533 682.398 426.6C684.198 424.067 686.598 422.067 689.598 420.6C692.664 419.067 695.664 418.3 698.598 418.3C700.398 418.3 702.098 418.667 703.698 419.4C705.298 420.067 706.698 420.9 707.898 421.9C707.898 417.433 707.864 414.633 707.798 413.5V411.4C707.798 405.2 708.198 400.667 708.998 397.8C709.731 395 711.498 393.6 714.298 393.6C715.831 393.6 716.964 393.933 717.698 394.6C718.431 395.267 718.798 396.533 718.798 398.4ZM687.998 443C687.998 446.067 688.864 448.533 690.598 450.4C692.398 452.267 694.531 453.2 696.998 453.2C700.531 453.2 703.131 452.1 704.798 449.9C706.531 447.7 707.398 444.867 707.398 441.4L707.298 431.5C704.698 428.633 701.998 427.2 699.198 427.2C697.264 427.2 695.431 427.7 693.698 428.7C692.031 429.633 690.698 431.067 689.698 433C688.564 435.2 687.998 438.533 687.998 443ZM774.873 461.3C769.873 461.3 766.507 459.367 764.773 455.5C763.907 453.567 763.34 451.067 763.073 448C762.807 444.867 762.673 441.2 762.673 437V433.9C762.673 429.1 761.073 426.7 757.873 426.7C756.007 426.7 754.14 427.667 752.273 429.6C750.407 431.467 748.84 433.967 747.573 437.1C746.373 440.167 745.773 443.367 745.773 446.7C745.773 448.9 745.873 450.9 746.073 452.7C746.207 454.967 746.273 456.7 746.273 457.9C746.273 460.167 744.707 461.3 741.573 461.3C740.04 461.3 738.673 460.967 737.473 460.3C736.34 459.633 735.773 458.767 735.773 457.7C736.04 454.3 736.173 450.1 736.173 445.1L736.073 431.9C736.073 429.767 735.907 421.867 735.573 408.2L735.273 399C735.273 397.533 735.94 396.267 737.273 395.2C738.607 394.067 740.107 393.5 741.773 393.5C743.24 393.5 744.307 393.833 744.973 394.5C745.64 395.167 745.973 396.2 745.973 397.6C745.973 399.333 745.94 401.367 745.873 403.7C745.807 405.967 745.74 407.7 745.673 408.9C745.473 412.3 745.373 415.7 745.373 419.1C745.373 422.433 745.307 425.067 745.173 427C747.173 424.067 749.44 421.9 751.973 420.5C754.573 419.033 757.607 418.3 761.073 418.3C763.607 418.3 765.94 419.433 768.073 421.7C770.273 423.9 771.607 426.433 772.073 429.3C772.207 430.767 772.273 432.933 772.273 435.8L772.173 443.1C772.173 444.233 772.24 446 772.373 448.4C772.44 449.533 772.807 450.733 773.473 452C774.207 453.267 775.04 454.2 775.973 454.8C776.84 455.333 777.407 455.867 777.673 456.4C777.94 456.933 778.073 457.533 778.073 458.2C778.073 458.867 777.773 459.567 777.173 460.3C776.573 460.967 775.807 461.3 774.873 461.3ZM824.548 428.9C825.081 429.833 825.514 431.2 825.848 433C826.181 434.733 826.348 436.3 826.348 437.7C826.348 439.567 826.048 441.9 825.448 444.7C824.848 447.433 824.348 449.267 823.948 450.2C820.348 457.667 813.414 461.4 803.148 461.4C799.881 461.4 796.681 460.333 793.548 458.2C790.414 456 788.181 453.433 786.848 450.5L786.148 448.5C786.081 448.233 785.714 447.233 785.048 445.5C784.448 443.7 784.148 442.333 784.148 441.4C784.148 438.667 784.814 435.5 786.148 431.9C787.481 428.3 789.014 425.433 790.748 423.3C791.881 421.767 794.048 420.467 797.248 419.4C800.448 418.267 803.281 417.7 805.748 417.7C810.348 417.7 814.048 418.567 816.848 420.3C819.714 422.033 822.281 424.9 824.548 428.9ZM815.348 445C815.614 444.533 815.848 443.7 816.048 442.5C816.248 441.3 816.348 439.9 816.348 438.3C816.348 436.367 815.981 434.467 815.248 432.6C814.581 430.733 813.581 429.133 812.248 427.8C812.181 427.667 811.948 427.467 811.548 427.2C811.148 426.867 810.514 426.567 809.648 426.3C808.781 425.967 807.681 425.8 806.348 425.8C803.748 425.8 801.548 426.567 799.748 428.1C797.948 429.633 796.581 431.533 795.648 433.8C794.781 436.067 794.348 438.3 794.348 440.5C794.348 441.1 794.548 442.333 794.948 444.2C795.348 446.067 795.648 447.267 795.848 447.8C796.381 448.733 797.414 449.833 798.948 451.1C800.481 452.3 802.214 452.9 804.148 452.9C807.148 452.9 809.481 452.2 811.148 450.8C812.881 449.4 814.281 447.467 815.348 445ZM847.129 445.5C847.129 448.033 847.496 450 848.229 451.4C849.029 452.733 850.029 453.4 851.229 453.4C851.896 453.4 852.529 453.367 853.129 453.3C853.729 453.167 854.329 453.1 854.929 453.1C855.596 453.1 856.162 453.433 856.629 454.1C857.162 454.767 857.429 455.5 857.429 456.3C857.429 457.9 856.662 459.167 855.129 460.1C853.662 460.967 851.662 461.4 849.129 461.4C847.329 461.4 845.496 460.867 843.629 459.8C841.829 458.667 840.329 456.933 839.129 454.6C837.929 452.2 837.329 449.233 837.329 445.7C837.329 438.1 837.462 431.667 837.729 426.4C838.062 420.133 838.229 412.233 838.229 402.7C838.229 399.7 838.396 397.6 838.729 396.4C839.129 395.467 839.762 394.767 840.629 394.3C841.562 393.767 842.529 393.5 843.529 393.5C844.529 393.5 845.396 393.667 846.129 394C846.929 394.333 847.462 394.867 847.729 395.6C847.996 396.4 848.162 397.2 848.229 398C848.362 398.733 848.429 399.8 848.429 401.2C848.429 403.933 848.329 406.567 848.129 409.1C847.996 412.167 847.929 414.4 847.929 415.8C847.396 427.533 847.129 437.433 847.129 445.5ZM927.349 457.5C926.349 455.633 925.716 453.567 925.449 451.3C925.183 448.967 925.049 445.767 925.049 441.7C925.049 437.833 924.516 434.467 923.449 431.6C922.383 428.733 920.183 427.3 916.849 427.3C915.583 427.3 914.316 427.7 913.049 428.5C911.849 429.233 910.949 430.167 910.349 431.3C909.416 433.1 908.783 435.067 908.449 437.2C908.116 439.267 907.949 441.667 907.949 444.4C907.949 446.133 908.049 447.9 908.249 449.7C908.249 450.233 908.283 451.1 908.349 452.3C908.483 453.433 908.549 454.467 908.549 455.4C908.549 459.4 907.149 461.4 904.349 461.4C900.683 461.4 898.749 459.467 898.549 455.6C898.549 452.867 898.583 451.4 898.649 451.2V446.9C898.649 444.5 898.549 442.167 898.349 439.9C898.149 437.633 897.916 435.933 897.649 434.8C897.049 432.6 896.249 430.9 895.249 429.7C894.316 428.5 892.816 427.9 890.749 427.9C887.816 427.9 885.449 429.167 883.649 431.7C882.383 433.7 881.549 436.133 881.149 439C880.749 442.667 880.449 445.567 880.249 447.7C880.116 449.767 880.049 452.167 880.049 454.9C880.049 456.833 879.716 458.4 879.049 459.6C878.449 460.8 877.283 461.4 875.549 461.4C874.283 461.4 872.949 461.067 871.549 460.4C870.216 459.667 869.549 458.7 869.549 457.5C869.549 456.233 869.683 454.967 869.949 453.7C870.549 449.9 870.849 443.1 870.849 433.3C870.849 431.7 870.449 430.167 869.649 428.7C868.916 427.167 868.016 426.4 866.949 426.4C866.683 426.4 866.183 426.533 865.449 426.8C864.783 427.067 864.283 427.2 863.949 427.2C863.083 427.2 862.283 426.8 861.549 426C860.883 425.2 860.549 424.533 860.549 424C860.549 422.333 861.349 420.933 862.949 419.8C864.616 418.6 866.349 418 868.149 418C870.616 418 872.716 418.767 874.449 420.3C876.183 421.833 877.516 423.967 878.449 426.7C879.983 424.033 882.049 421.9 884.649 420.3C887.249 418.633 890.149 417.8 893.349 417.8C895.349 417.8 896.949 418.067 898.149 418.6C899.416 419.067 900.449 419.767 901.249 420.7C902.049 421.567 903.083 422.9 904.349 424.7C906.016 422.567 908.149 420.9 910.749 419.7C913.416 418.5 916.149 417.9 918.949 417.9C922.283 417.9 925.283 419.267 927.949 422C930.616 424.667 932.416 427.767 933.349 431.3C933.816 433.1 934.049 436.567 934.049 441.7L934.449 447.5C934.783 450.967 935.916 453.067 937.849 453.8C940.116 454.467 941.249 455.167 941.249 455.9C941.249 457.5 940.849 458.667 940.049 459.4C939.449 459.8 938.616 460.233 937.549 460.7C936.483 461.167 935.649 461.4 935.049 461.4C931.449 461.4 928.883 460.1 927.349 457.5Z" fill="white"/>
</g>
<g filter="url(#filter3_d_190_7)">
<path d="M257.336 495.008C257.592 494.112 257.976 493.387 258.488 492.832C259 492.235 259.555 491.936 260.152 491.936C261.603 491.936 262.648 492.213 263.288 492.768C263.928 493.323 264.248 494.283 264.248 495.648C264.248 496.032 263.949 497.12 263.352 498.912C262.029 502.965 260.579 507.979 259 513.952C258.616 515.317 258.296 516.512 258.04 517.536C257.827 518.56 257.635 519.413 257.464 520.096C256.44 524.491 255.544 527.797 254.776 530.016C254.52 530.656 254.072 531.168 253.432 531.552C252.792 531.893 252.109 532.064 251.384 532.064C250.659 532.064 249.933 531.915 249.208 531.616C248.525 531.275 248.035 530.891 247.736 530.464C246.413 527.861 244.771 524.32 242.808 519.84C240.888 515.317 239.395 511.371 238.328 508C235.683 514.699 233.315 521.163 231.224 527.392C231.096 527.776 230.947 528.203 230.776 528.672C230.648 529.099 230.499 529.547 230.328 530.016C230.029 530.656 229.603 531.168 229.048 531.552C228.493 531.893 227.875 532.064 227.192 532.064C226.424 532.064 225.677 531.915 224.952 531.616C224.227 531.275 223.736 530.891 223.48 530.464C222.925 529.525 222.328 528.075 221.688 526.112C221.091 524.149 220.28 521.397 219.256 517.856L217.656 512.416C216.547 508.875 215.587 505.248 214.776 501.536C213.965 497.824 213.56 495.605 213.56 494.88C213.56 493.984 214.008 493.28 214.904 492.768C215.8 492.213 216.696 491.936 217.592 491.936C218.104 491.936 218.637 492.107 219.192 492.448C219.747 492.747 220.109 493.28 220.28 494.048C221.773 502.027 223.971 511.285 226.872 521.824C227.981 519.179 229.197 515.957 230.52 512.16C231.885 508.363 233.187 504.672 234.424 501.088L235.064 499.168C235.235 498.528 235.661 498.037 236.344 497.696C237.069 497.312 237.795 497.12 238.52 497.12C239.459 497.12 240.227 497.355 240.824 497.824C241.421 498.293 241.805 498.805 241.976 499.36C242.019 499.531 242.872 502.069 244.536 506.976C246.2 511.883 248.184 516.832 250.488 521.824C251.341 519.307 252.365 515.275 253.56 509.728L254.52 505.504C255.672 500.981 256.611 497.483 257.336 495.008ZM266.443 518.432C266.443 516.811 266.741 515.189 267.339 513.568C267.936 511.904 268.725 510.389 269.707 509.024C270.688 507.659 272.245 506.549 274.379 505.696C276.512 504.8 278.411 504.352 280.075 504.352C281.781 504.352 283.509 504.587 285.259 505.056C287.051 505.525 288.288 506.251 288.971 507.232C290.549 509.451 291.339 511.627 291.339 513.76C291.339 514.912 291.083 515.893 290.571 516.704C290.101 517.515 289.419 518.389 288.523 519.328C287.797 520.096 286.645 520.608 285.067 520.864C283.531 521.12 281.995 521.248 280.458 521.248C279.477 521.248 278.283 521.163 276.875 520.992C275.467 520.779 274.101 520.523 272.779 520.224C272.864 521.077 273.077 521.909 273.419 522.72C273.76 523.531 274.165 524.149 274.635 524.576C275.488 525.387 276.363 525.899 277.259 526.112C278.197 526.325 279.392 526.432 280.843 526.432C282.379 526.432 283.808 526.176 285.131 525.664C286.197 525.28 287.072 525.088 287.755 525.088C288.565 525.088 289.184 525.344 289.611 525.856C290.037 526.325 290.251 526.944 290.251 527.712C290.251 528.779 289.632 529.653 288.395 530.336C287.157 531.019 285.728 531.531 284.107 531.872C282.528 532.171 281.248 532.32 280.267 532.32C278.261 532.32 276.32 531.957 274.443 531.232C272.565 530.507 271.008 529.483 269.771 528.16C268.747 526.965 267.936 525.536 267.339 523.872C266.741 522.165 266.443 520.352 266.443 518.432ZM280.395 509.792C279.456 509.792 278.517 509.984 277.579 510.368C276.64 510.709 275.872 511.2 275.275 511.84C274.507 512.651 273.973 513.312 273.675 513.824C273.419 514.293 273.248 514.955 273.163 515.808C274.229 516.149 276.448 516.32 279.819 516.32C281.653 516.32 283.061 516.043 284.043 515.488C285.067 514.933 285.579 514.208 285.579 513.312C285.579 512.416 285.024 511.605 283.915 510.88C282.805 510.155 281.632 509.792 280.395 509.792ZM298.991 520.48C298.991 518.091 299.012 516.277 299.055 515.04L299.119 508.96C299.119 506.485 299.055 503.776 298.927 500.832C298.884 499.936 298.735 498.699 298.479 497.12C298.137 494.731 297.967 492.939 297.967 491.744C297.967 489.781 298.948 488.8 300.911 488.8C302.148 488.8 303.023 489.141 303.535 489.824C304.089 490.464 304.473 491.488 304.687 492.896C305.113 495.84 305.327 499.296 305.327 503.264C305.327 504.459 305.284 506.251 305.199 508.64C306.009 507.36 307.055 506.357 308.335 505.632C309.657 504.907 310.959 504.544 312.239 504.544C315.951 504.544 319.151 506.08 321.839 509.152C322.564 510.219 323.204 511.499 323.759 512.992C324.356 514.443 324.655 515.701 324.655 516.768C324.655 518.645 324.441 520.373 324.015 521.952C323.631 523.531 322.927 525.067 321.903 526.56C320.879 528.053 319.577 529.269 317.999 530.208C316.463 531.147 314.671 531.616 312.623 531.616C310.831 531.616 309.209 531.253 307.759 530.528C306.351 529.803 305.22 528.843 304.367 527.648C304.153 528.715 303.684 529.781 302.959 530.848C302.233 531.872 301.401 532.384 300.463 532.384C299.695 532.384 299.055 532.192 298.543 531.808C298.031 531.381 297.775 530.763 297.775 529.952C297.775 529.355 297.903 528.608 298.159 527.712C298.415 526.475 298.607 525.344 298.735 524.32C298.905 523.253 298.991 521.973 298.991 520.48ZM311.023 526.304C313.113 526.304 314.863 525.579 316.271 524.128C317.679 522.635 318.383 520.629 318.383 518.112C318.383 515.808 317.764 513.824 316.527 512.16C316.1 511.605 315.481 511.157 314.671 510.816C313.903 510.475 313.135 510.304 312.367 510.304C310.575 510.304 309.06 510.837 307.823 511.904C306.585 512.928 305.881 514.357 305.711 516.192C305.54 518.667 305.455 520.8 305.455 522.592C305.967 523.573 306.735 524.448 307.759 525.216C308.825 525.941 309.913 526.304 311.023 526.304ZM346.872 528.992C346.872 527.584 346.957 526.027 347.128 524.32C347.298 522.357 347.384 519.883 347.384 516.896C347.384 511.435 347.149 506.165 346.68 501.088C346.424 497.931 346.296 495.691 346.296 494.368C346.296 493.472 346.744 492.725 347.64 492.128C348.536 491.488 349.453 491.168 350.392 491.168C350.989 491.168 351.714 491.211 352.568 491.296C353.421 491.381 354.04 491.424 354.424 491.424C364.024 491.424 371.085 494.005 375.608 499.168C378.466 502.496 379.896 506.912 379.896 512.416C379.896 514.72 379.469 517.045 378.616 519.392C377.805 521.696 376.632 523.573 375.096 525.024C373.432 526.645 371.853 527.947 370.36 528.928C368.909 529.867 366.925 530.656 364.408 531.296C361.933 531.936 358.754 532.256 354.872 532.256C352.397 532.256 350.434 531.979 348.984 531.424C347.576 530.869 346.872 530.059 346.872 528.992ZM357.304 526.432C360.162 526.432 362.786 525.92 365.176 524.896C367.565 523.829 369.485 522.251 370.936 520.16C372.386 518.027 373.112 515.424 373.112 512.352C373.112 509.323 372.685 506.805 371.832 504.8C370.978 502.752 369.506 501.088 367.416 499.808C365.837 498.827 363.896 498.123 361.592 497.696C359.288 497.227 356.514 496.992 353.272 496.992C353.272 497.419 353.314 498.4 353.4 499.936C353.485 501.387 353.528 502.603 353.528 503.584L353.592 504.992C353.848 509.429 353.976 512.949 353.976 515.552C353.976 519.648 353.741 523.189 353.272 526.176C354.296 526.347 355.64 526.432 357.304 526.432ZM384.94 517.344C384.94 514.741 385.516 512.587 386.668 510.88C387.82 509.131 389.42 507.488 391.468 505.952C392.065 505.525 393.068 505.163 394.476 504.864C395.884 504.523 397.121 504.352 398.188 504.352C399.468 504.352 400.812 504.629 402.22 505.184C403.67 505.696 404.844 506.293 405.74 506.976C407.318 508.128 408.406 509.472 409.004 511.008C409.601 512.501 409.9 514.293 409.9 516.384C409.9 517.28 409.388 518.155 408.364 519.008C407.382 519.819 406.316 520.224 405.164 520.224L402.732 520.16C401.494 520.16 399.724 520.203 397.42 520.288L396.076 520.352C395.137 520.437 394.433 520.48 393.964 520.48C393.281 520.48 392.342 520.395 391.148 520.224C391.318 522.229 392.065 523.808 393.388 524.96C394.71 526.069 396.14 526.624 397.676 526.624C400.364 526.624 402.241 526.091 403.308 525.024C404.204 524.384 404.801 523.979 405.1 523.808C405.398 523.637 405.868 523.552 406.508 523.552C407.19 523.552 407.788 523.872 408.3 524.512C408.812 525.152 409.068 525.792 409.068 526.432C409.068 527.157 408.62 527.904 407.724 528.672C406.87 529.397 405.697 530.165 404.204 530.976C403.393 531.317 402.284 531.616 400.876 531.872C399.468 532.128 398.294 532.256 397.356 532.256C395.862 532.256 394.198 531.829 392.364 530.976C390.529 530.08 389.164 529.099 388.268 528.032C387.372 526.965 386.582 525.451 385.9 523.488C385.26 521.525 384.94 519.477 384.94 517.344ZM397.676 515.616C400.705 515.616 402.924 515.509 404.332 515.296C404.246 514.059 403.862 513.056 403.18 512.288C402.497 511.477 401.558 510.795 400.364 510.24C399.98 510.069 399.638 509.941 399.34 509.856C399.041 509.771 398.7 509.728 398.316 509.728C396.353 509.728 394.689 510.261 393.324 511.328C392.001 512.395 391.212 513.76 390.956 515.424C393.089 515.552 395.329 515.616 397.676 515.616ZM430.803 515.552C430.931 515.211 431.379 513.973 432.147 511.84C432.957 509.707 433.704 508.085 434.387 506.976C435.496 505.227 436.477 504.352 437.331 504.352C438.525 504.352 439.443 504.587 440.083 505.056C440.723 505.483 441.043 506.101 441.043 506.912C441.043 507.296 440.872 507.829 440.531 508.512C440.232 509.195 440.061 509.6 440.019 509.728C438.312 513.483 436.776 517.515 435.411 521.824L434.067 526.816C433.555 528.437 432.68 529.76 431.443 530.784C430.205 531.765 428.755 532.256 427.091 532.256C425.597 532.256 424.211 531.573 422.931 530.208C422.163 529.013 421.352 527.499 420.499 525.664C419.688 523.829 418.984 522.037 418.387 520.288L416.147 513.568C415.677 512.245 415.293 511.115 414.995 510.176C414.739 509.237 414.611 508.384 414.611 507.616C414.568 506.72 414.824 505.995 415.379 505.44C415.933 504.885 416.701 504.608 417.683 504.608C418.792 504.608 419.581 504.843 420.051 505.312C420.52 505.739 420.947 506.421 421.331 507.36C421.501 508.341 421.971 510.347 422.739 513.376L423.187 515.168C423.571 516.619 424.061 518.091 424.659 519.584C425.256 521.077 425.853 522.507 426.451 523.872C426.365 523.659 426.664 524.363 427.347 525.984C427.773 524.747 428.264 523.232 428.819 521.44L430.803 515.552ZM445.068 517.536C445.068 516 445.345 514.571 445.9 513.248C446.454 511.883 447.265 510.475 448.332 509.024C449.398 507.573 450.87 506.443 452.748 505.632C454.625 504.779 456.673 504.352 458.892 504.352C460.598 504.352 462.241 504.715 463.82 505.44C465.441 506.123 466.892 506.976 468.172 508C468.342 508.299 468.641 508.853 469.068 509.664C469.494 510.432 469.793 511.136 469.964 511.776C470.177 512.416 470.284 513.077 470.284 513.76C470.284 516.619 469.238 518.539 467.148 519.52C465.057 520.459 462.412 520.928 459.212 520.928C456.012 520.928 453.409 520.715 451.404 520.288C451.489 521.099 451.702 521.909 452.044 522.72C452.385 523.531 452.79 524.149 453.26 524.576C454.113 525.387 454.945 525.92 455.756 526.176C456.609 526.389 457.74 526.496 459.148 526.496C461.281 526.496 462.945 526.091 464.14 525.28C465.249 524.555 466.102 524.192 466.7 524.192C467.51 524.192 468.129 524.448 468.556 524.96C468.982 525.429 469.196 526.048 469.196 526.816C469.196 528.437 468.15 529.76 466.06 530.784C464.012 531.808 461.686 532.32 459.083 532.32C457.036 532.32 455.009 531.957 453.004 531.232C450.998 530.507 449.398 529.483 448.204 528.16C447.393 526.795 446.668 525.131 446.028 523.168C445.388 521.205 445.068 519.328 445.068 517.536ZM459.148 509.6C458.209 509.6 457.228 509.771 456.204 510.112C455.222 510.411 454.454 510.88 453.9 511.52C453.217 512.245 452.705 512.907 452.364 513.504C452.065 514.101 451.873 514.848 451.788 515.744C452.257 515.744 452.705 515.765 453.132 515.808C453.558 515.851 453.964 515.893 454.348 515.936C456.225 516.107 457.633 516.192 458.572 516.192C460.449 516.192 461.878 515.915 462.86 515.36C463.884 514.805 464.396 514.059 464.396 513.12C464.396 512.224 463.82 511.413 462.668 510.688C461.558 509.963 460.385 509.6 459.148 509.6ZM483.623 522.08C483.623 523.701 483.857 524.96 484.327 525.856C484.839 526.709 485.479 527.136 486.247 527.136C486.673 527.136 487.079 527.115 487.463 527.072C487.847 526.987 488.231 526.944 488.615 526.944C489.041 526.944 489.404 527.157 489.703 527.584C490.044 528.011 490.215 528.48 490.215 528.992C490.215 530.016 489.724 530.827 488.743 531.424C487.804 531.979 486.524 532.256 484.903 532.256C483.751 532.256 482.577 531.915 481.383 531.232C480.231 530.507 479.271 529.397 478.503 527.904C477.735 526.368 477.351 524.469 477.351 522.208C477.351 517.344 477.436 513.227 477.607 509.856C477.82 505.845 477.927 500.789 477.927 494.688C477.927 492.768 478.033 491.424 478.247 490.656C478.503 490.059 478.908 489.611 479.463 489.312C480.06 488.971 480.679 488.8 481.319 488.8C481.959 488.8 482.513 488.907 482.983 489.12C483.495 489.333 483.836 489.675 484.007 490.144C484.177 490.656 484.284 491.168 484.327 491.68C484.412 492.149 484.455 492.832 484.455 493.728C484.455 495.477 484.391 497.163 484.263 498.784C484.177 500.747 484.135 502.176 484.135 503.072C483.793 510.581 483.623 516.917 483.623 522.08ZM519.924 511.456C520.265 512.053 520.542 512.928 520.756 514.08C520.969 515.189 521.076 516.192 521.076 517.088C521.076 518.752 520.713 521.12 519.988 524.192C517.044 529.568 512.692 532.256 506.932 532.256C504.798 532.256 502.622 531.552 500.404 530.144C498.185 528.736 496.649 527.115 495.796 525.28C494.644 521.611 494.068 519.285 494.068 518.304C494.068 516.597 494.43 514.784 495.156 512.864C495.924 510.944 496.884 509.28 498.036 507.872C498.761 506.891 500.062 506.059 501.94 505.376C503.817 504.651 505.524 504.288 507.06 504.288C510.046 504.288 512.585 504.864 514.676 506.016C516.766 507.125 518.516 508.939 519.924 511.456ZM514.356 521.76C514.569 521.205 514.676 519.776 514.676 517.472C514.676 516.235 514.441 515.019 513.972 513.824C513.545 512.629 512.905 511.605 512.052 510.752C511.966 510.667 511.732 510.539 511.348 510.368C510.964 510.155 510.43 509.963 509.748 509.792C509.108 509.579 508.361 509.472 507.508 509.472C505.118 509.472 503.369 510.432 502.26 512.352C501.15 514.272 500.595 516.448 500.595 518.88C500.595 519.307 500.702 520.117 500.916 521.312C501.172 522.507 501.385 523.253 501.556 523.552C501.684 523.851 502.004 524.277 502.516 524.832C503.07 525.344 503.732 525.813 504.5 526.24C505.31 526.624 506.142 526.816 506.996 526.816C508.916 526.816 510.452 526.368 511.604 525.472C512.756 524.533 513.673 523.296 514.356 521.76ZM528.802 509.728C528.418 509.728 528.055 509.771 527.714 509.856C527.372 509.899 527.031 509.92 526.69 509.92C526.22 509.92 525.772 509.707 525.346 509.28C524.962 508.853 524.77 508.469 524.77 508.128C524.77 507.019 525.324 506.165 526.434 505.568C527.543 504.928 528.674 504.608 529.826 504.608C530.807 504.608 531.81 504.949 532.834 505.632C533.9 506.272 534.69 507.104 535.202 508.128C536.311 506.805 537.676 505.845 539.298 505.248C540.919 504.651 542.604 504.352 544.354 504.352C546.316 504.352 548.13 504.971 549.794 506.208C551.5 507.445 552.844 509.024 553.826 510.944C554.807 512.821 555.298 514.699 555.298 516.576C555.298 518.411 555.106 520.053 554.722 521.504C554.338 522.912 553.655 524.341 552.674 525.792C551.564 527.328 550.071 528.587 548.194 529.568C546.359 530.549 544.162 531.04 541.602 531.04C540.919 531.04 540.087 530.869 539.106 530.528C538.124 530.144 537.314 529.739 536.674 529.312C536.375 532.213 536.226 534.731 536.226 536.864C536.226 538.144 536.29 539.36 536.418 540.512C536.503 541.877 536.546 542.859 536.546 543.456C536.546 544.395 536.226 545.077 535.586 545.504C534.946 545.973 534.242 546.208 533.474 546.208C531.938 546.208 530.914 545.781 530.402 544.928C529.932 544.117 529.698 542.944 529.698 541.408C529.868 537.739 530.082 534.347 530.338 531.232C530.594 527.392 530.722 521.461 530.722 513.44C530.722 512.672 530.572 511.861 530.274 511.008C529.975 510.155 529.484 509.728 528.802 509.728ZM536.93 522.976C537.143 523.787 537.74 524.469 538.722 525.024C539.746 525.536 540.663 525.792 541.474 525.792C543.906 525.792 545.719 525.131 546.914 523.808C547.81 522.869 548.386 521.952 548.642 521.056C548.94 520.16 549.09 518.731 549.09 516.768C549.09 515.232 548.791 513.952 548.194 512.928C547.596 511.861 546.871 511.093 546.018 510.624C545.164 510.112 544.354 509.856 543.586 509.856C541.836 509.856 540.407 510.389 539.298 511.456C538.231 512.48 537.548 513.888 537.25 515.68C537.036 517.088 536.93 519.52 536.93 522.976ZM560.565 517.344C560.565 514.741 561.141 512.587 562.293 510.88C563.445 509.131 565.045 507.488 567.093 505.952C567.69 505.525 568.693 505.163 570.101 504.864C571.509 504.523 572.746 504.352 573.812 504.352C575.093 504.352 576.437 504.629 577.845 505.184C579.295 505.696 580.469 506.293 581.365 506.976C582.943 508.128 584.031 509.472 584.629 511.008C585.226 512.501 585.525 514.293 585.525 516.384C585.525 517.28 585.013 518.155 583.989 519.008C583.007 519.819 581.941 520.224 580.789 520.224L578.357 520.16C577.119 520.16 575.349 520.203 573.045 520.288L571.701 520.352C570.762 520.437 570.058 520.48 569.589 520.48C568.906 520.48 567.967 520.395 566.773 520.224C566.943 522.229 567.69 523.808 569.013 524.96C570.335 526.069 571.765 526.624 573.301 526.624C575.989 526.624 577.866 526.091 578.933 525.024C579.829 524.384 580.426 523.979 580.725 523.808C581.023 523.637 581.493 523.552 582.133 523.552C582.815 523.552 583.413 523.872 583.925 524.512C584.437 525.152 584.693 525.792 584.693 526.432C584.693 527.157 584.245 527.904 583.349 528.672C582.495 529.397 581.322 530.165 579.829 530.976C579.018 531.317 577.909 531.616 576.501 531.872C575.093 532.128 573.919 532.256 572.981 532.256C571.487 532.256 569.823 531.829 567.989 530.976C566.154 530.08 564.789 529.099 563.893 528.032C562.997 526.965 562.207 525.451 561.525 523.488C560.885 521.525 560.565 519.477 560.565 517.344ZM573.301 515.616C576.33 515.616 578.549 515.509 579.957 515.296C579.871 514.059 579.487 513.056 578.805 512.288C578.122 511.477 577.183 510.795 575.989 510.24C575.605 510.069 575.263 509.941 574.965 509.856C574.666 509.771 574.325 509.728 573.941 509.728C571.978 509.728 570.314 510.261 568.949 511.328C567.626 512.395 566.837 513.76 566.581 515.424C568.714 515.552 570.954 515.616 573.301 515.616ZM591.836 509.536C590.726 508.768 590.172 507.957 590.172 507.104C590.172 506.507 590.428 505.952 590.94 505.44C591.452 504.928 592.22 504.672 593.244 504.672C594.438 504.672 595.505 504.992 596.444 505.632C597.425 506.229 598.108 507.104 598.492 508.256C599.473 507.104 600.582 506.187 601.82 505.504C603.1 504.821 604.401 504.48 605.724 504.48C607.302 504.48 608.732 504.907 610.012 505.76C611.292 506.613 611.932 507.765 611.932 509.216C611.932 510.027 611.569 510.859 610.844 511.712C610.161 512.565 609.457 512.992 608.732 512.992C608.348 512.992 608.006 512.907 607.708 512.736C607.452 512.523 607.132 512.224 606.748 511.84C606.321 511.413 605.958 511.115 605.66 510.944C605.361 510.731 605.02 510.624 604.635 510.624C603.953 510.624 603.313 510.731 602.716 510.944C602.118 511.157 601.713 511.413 601.5 511.712C600.817 512.779 600.305 513.739 599.964 514.592C599.665 515.445 599.516 516.363 599.516 517.344C599.516 518.069 599.494 518.645 599.452 519.072L599.388 522.72C599.388 523.275 599.409 523.893 599.452 524.576C599.494 525.259 599.537 525.771 599.58 526.112C599.708 527.264 599.772 528.373 599.772 529.44C599.772 530.165 599.494 530.805 598.94 531.36C598.385 531.915 597.702 532.192 596.892 532.192C595.612 532.192 594.673 531.957 594.076 531.488C593.478 530.976 593.18 530.059 593.18 528.736L593.116 524.64C593.073 523.829 593.052 522.677 593.052 521.184L593.116 516.96C593.201 514.912 593.244 513.248 593.244 511.968C593.244 511.499 593.137 511.072 592.924 510.688C592.753 510.304 592.39 509.92 591.836 509.536Z" fill="white"/>
</g>
<path d="M1049.8 143.23C1049.8 143.23 1088.85 120.532 1111.45 119.984C1134.05 119.435 1142.81 126.763 1142.81 126.763" stroke="white" stroke-width="7"/>
<path d="M1041.01 118.31C1041.01 118.31 1085.92 90.2982 1112.92 91.1894C1139.93 92.0806 1151 102.671 1151 102.671" stroke="white" stroke-width="7"/>
<path d="M1033.19 92.6066C1033.19 92.6066 1072.23 69.9093 1094.83 69.3608C1117.43 68.8123 1126.19 76.1395 1126.19 76.1395" stroke="white" stroke-width="7"/>
<path d="M998.331 101.311C1004.29 107.474 1005.25 123.459 1005.25 123.459C1005.25 123.459 991.451 132.412 981.714 132.951C973.451 133.409 960.942 128.205 960.942 128.205C960.942 128.205 957.275 110.51 963.714 102.912C968.83 96.874 974.36 94.7878 981.714 94.9831C988.552 95.1648 993.259 96.0674 998.331 101.311Z" fill="#97D4F1" stroke="black" stroke-width="7"/>
<path d="M937.746 139.267C941.082 128.893 959.902 121.865 959.902 121.865L961.287 128.193C961.287 128.193 973.795 133.397 982.058 132.939C991.796 132.4 1005.6 123.447 1005.6 123.447L1005.6 118.701C1026.79 126.058 1029.14 136.103 1026.37 144.013C1023.6 151.923 1014.23 156.828 1002.83 159.833C984.828 164.579 975.134 164.579 957.132 159.833C939.131 155.087 937.746 148.759 937.746 148.759C937.746 148.759 936.068 144.486 937.746 139.267Z" fill="#9B9B9B" stroke="black" stroke-width="7"/>
<path d="M952 147.118C952 147.118 961.877 150.529 968.571 151.59C978.627 153.185 984.911 153.735 994.81 151.59C1001.1 150.226 1010 146 1010 146" stroke="black" stroke-width="7"/>
<path d="M981.808 103.015C981.808 103.015 977.931 104.021 975.918 105.343C972.895 107.33 971.225 108.8 970.076 112.66C969.345 115.115 969.444 119.763 969.444 119.763" stroke="black" stroke-width="7"/>
<defs>
<filter id="filter0_d_190_7" x="-53.4678" y="-38.291" width="772.833" height="303.004" filterUnits="userSpaceOnUse" color-interpolation-filters="sRGB">
<feFlood flood-opacity="0" result="BackgroundImageFix"/>
<feColorMatrix in="SourceAlpha" type="matrix" values="0 0 0 0 0 0 0 0 0 0 0 0 0 0 0 0 0 0 127 0" result="hardAlpha"/>
<feOffset dy="-4"/>
<feGaussianBlur stdDeviation="2"/>
<feComposite in2="hardAlpha" operator="out"/>
<feColorMatrix type="matrix" values="0 0 0 0 0 0 0 0 0 0 0 0 0 0 0 0 0 0 0.25 0"/>
<feBlend mode="normal" in2="BackgroundImageFix" result="effect1_dropShadow_190_7"/>
<feBlend mode="normal" in="SourceGraphic" in2="effect1_dropShadow_190_7" result="shape"/>
</filter>
<filter id="filter1_d_190_7" x="-47.3936" y="561.863" width="2015.58" height="529.139" filterUnits="userSpaceOnUse" color-interpolation-filters="sRGB">
<feFlood flood-opacity="0" result="BackgroundImageFix"/>
<feColorMatrix in="SourceAlpha" type="matrix" values="0 0 0 0 0 0 0 0 0 0 0 0 0 0 0 0 0 0 127 0" result="hardAlpha"/>
<feOffset dy="4"/>
<feGaussianBlur stdDeviation="2"/>
<feComposite in2="hardAlpha" operator="out"/>
<feColorMatrix type="matrix" values="0 0 0 0 0 0 0 0 0 0 0 0 0 0 0 0 0 0 0.25 0"/>
<feBlend mode="normal" in2="BackgroundImageFix" result="effect1_dropShadow_190_7"/>
<feBlend mode="normal" in="SourceGraphic" in2="effect1_dropShadow_190_7" result="shape"/>
</filter>
<filter id="filter2_d_190_7" x="218.2" y="393.5" width="737.049" height="82" filterUnits="userSpaceOnUse" color-interpolation-filters="sRGB">
<feFlood flood-opacity="0" result="BackgroundImageFix"/>
<feColorMatrix in="SourceAlpha" type="matrix" values="0 0 0 0 0 0 0 0 0 0 0 0 0 0 0 0 0 0 127 0" result="hardAlpha"/>
<feOffset dx="10" dy="10"/>
<feGaussianBlur stdDeviation="2"/>
<feComposite in2="hardAlpha" operator="out"/>
<feColorMatrix type="matrix" values="0 0 0 0 0 0 0 0 0 0 0 0 0 0 0 0 0 0 0.75 0"/>
<feBlend mode="normal" in2="BackgroundImageFix" result="effect1_dropShadow_190_7"/>
<feBlend mode="normal" in="SourceGraphic" in2="effect1_dropShadow_190_7" result="shape"/>
</filter>
<filter id="filter3_d_190_7" x="213.56" y="488.801" width="412.372" height="71.4062" filterUnits="userSpaceOnUse" color-interpolation-filters="sRGB">
<feFlood flood-opacity="0" result="BackgroundImageFix"/>
<feColorMatrix in="SourceAlpha" type="matrix" values="0 0 0 0 0 0 0 0 0 0 0 0 0 0 0 0 0 0 127 0" result="hardAlpha"/>
<feOffset dx="10" dy="10"/>
<feGaussianBlur stdDeviation="2"/>
<feComposite in2="hardAlpha" operator="out"/>
<feColorMatrix type="matrix" values="0 0 0 0 0 0 0 0 0 0 0 0 0 0 0 0 0 0 0.75 0"/>
<feBlend mode="normal" in2="BackgroundImageFix" result="effect1_dropShadow_190_7"/>
<feBlend mode="normal" in="SourceGraphic" in2="effect1_dropShadow_190_7" result="shape"/>
</filter>
</defs>
</svg>
