<svg width="231" height="234" viewBox="0 0 231 234" fill="none" xmlns="http://www.w3.org/2000/svg">
<path d="M191.942 77.3041C185.032 57.2737 172.296 76.1648 171.533 78.1449C170.769 80.1249 165.97 100.287 158.691 114.578C152.549 126.638 139.087 143.156 139.087 143.156L142.37 159.204C142.37 159.204 198.852 97.3346 191.942 77.3041Z" fill="white" stroke="black" stroke-width="7" stroke-linecap="round" stroke-linejoin="round"/>
<path d="M50.2653 153.75C53.0139 147.611 58.5049 140.256 58.5049 140.256L68.4244 167.58C68.4244 167.58 47.5167 159.89 50.2653 153.75Z" fill="white" stroke="black" stroke-width="7" stroke-linecap="round" stroke-linejoin="round"/>
<path d="M76.0227 182.26C65.2354 165.245 57.596 135.736 57.596 135.736C57.596 135.736 78.4968 133.964 90.6026 128.768C103.411 123.269 119.766 108.189 119.766 108.189C119.766 108.189 134.274 118.714 136.606 121.509C138.938 124.304 126.283 136.474 126.283 136.474L138.36 141.513L149.947 176.302L131.048 187.957L120.093 178.045L112.322 181.489L118.497 197.893L97.0119 207.413C97.0119 207.413 82.8731 193.065 76.0227 182.26Z" fill="white"/>
<path d="M114.206 131.434L126.283 136.474M126.283 136.474L138.36 141.513L149.947 176.302L131.048 187.957L120.093 178.045L112.322 181.489L118.497 197.893L97.0119 207.413C97.0119 207.413 82.8731 193.065 76.0227 182.26C65.2354 165.245 57.596 135.736 57.596 135.736C57.596 135.736 78.4968 133.964 90.6026 128.768C103.411 123.269 119.766 108.189 119.766 108.189C119.766 108.189 134.274 118.714 136.606 121.509C138.938 124.304 126.283 136.474 126.283 136.474Z" stroke="black" stroke-width="7" stroke-linecap="round" stroke-linejoin="round"/>
<path d="M79.8116 153.784L92.918 146.336L108.003 139.651L115.295 156.108L102.745 166.044L88.1163 172.526L79.8116 153.784Z" fill="#FF4040"/>
<path d="M89.0695 137.65L92.918 146.336M92.918 146.336L79.8116 153.784L88.1163 172.526L102.745 166.044M92.918 146.336L108.003 139.651L115.295 156.108L102.745 166.044M102.745 166.044L106.188 173.816" stroke="black" stroke-width="7" stroke-linecap="round" stroke-linejoin="round"/>
<path d="M48.9612 95.2672L54.9746 119.947L55.9873 122.233C55.9873 122.233 75.3985 120.906 86.7083 116.277C98.2651 111.546 113.28 98.4875 113.28 98.4875L99.3445 75.6772C99.3445 75.6772 89.0143 52.3633 87.7414 55.6618L81.6314 71.4943L60.6032 80.8117C60.6032 80.8117 43.3528 71.5016 41.9294 73.2262C40.506 74.9508 48.9612 95.2672 48.9612 95.2672Z" fill="white" stroke="black" stroke-width="7"/>
<path d="M84.6999 73.5256C87.1382 79.0285 83.6106 85.9283 76.8207 88.9369C70.0308 91.9454 62.55 89.9233 60.1117 84.4204C59.2514 84.8032 65.4577 82.2883 72.2476 79.2798C79.0375 76.2713 84.9391 73.0696 84.6999 73.5256Z" fill="#FF9D00"/>
<path d="M121.137 200.007C121.286 199.94 121.412 199.884 121.517 199.84C123.495 204.949 120.214 211.353 113.739 214.222C107.316 217.068 100.427 215.249 97.9205 210.439C97.9458 210.429 97.9718 210.418 97.9985 210.408C98.5678 210.178 99.477 209.804 100.625 209.325C102.92 208.367 106.172 206.985 109.571 205.479C112.884 204.011 115.985 202.498 118.263 201.386L118.45 201.295C119.6 200.734 120.52 200.286 121.137 200.007Z" fill="#FF9D00" stroke="#D98D23"/>
<path d="M152.875 178.443C153.011 178.353 153.127 178.278 153.224 178.218C155.983 182.951 153.754 189.792 147.813 193.647C141.92 197.471 134.831 196.762 131.596 192.409C131.619 192.394 131.643 192.38 131.668 192.365C132.194 192.048 133.033 191.536 134.09 190.882C136.205 189.574 139.199 187.695 142.318 185.672C145.357 183.699 148.181 181.715 150.254 180.258L150.425 180.139C151.472 179.403 152.309 178.816 152.875 178.443Z" fill="white" stroke="#ACACAC"/>
<path d="M138.641 137.854C136.869 137.845 134.902 137.233 133.112 136.003C133.307 135.77 133.568 135.454 133.877 135.076C134.668 134.106 135.777 132.716 136.906 131.225C138.01 129.767 138.976 128.317 139.682 127.258C139.702 127.228 139.721 127.198 139.741 127.169C140.082 126.657 140.353 126.252 140.547 125.986C142.268 127.389 143.423 129.15 143.92 130.885C144.448 132.729 144.231 134.509 143.223 135.841C142.214 137.172 140.559 137.863 138.641 137.854ZM140.759 125.718C140.77 125.708 140.769 125.711 140.757 125.721C140.758 125.72 140.758 125.719 140.759 125.718Z" fill="white" stroke="#DADADA"/>
<path d="M51.8442 172.157C47.7873 169.881 46.2922 164.718 48.4021 160.412C48.7661 160.636 49.3095 160.966 49.9844 161.37C51.4564 162.25 53.5582 163.484 55.794 164.738C57.976 165.962 60.1068 167.029 61.6683 167.811L61.7975 167.875C62.5877 168.271 63.213 168.585 63.6178 168.807C63.6575 168.829 63.6941 168.849 63.7279 168.868C61.1759 172.994 55.9362 174.453 51.8442 172.157ZM64.0269 169.055C64.0266 169.055 64.0237 169.053 64.0189 169.048C64.0248 169.053 64.0272 169.055 64.0269 169.055Z" fill="white" stroke="#ACACAC"/>
<path d="M56.9878 134.366L52.3291 123.852C52.3291 123.852 57.1435 123.292 63.4489 122.168C66.9018 121.553 70.8019 120.769 74.6034 119.815C78.0204 118.958 81.3577 117.963 84.2189 116.831C84.8252 116.591 85.441 116.333 86.0641 116.058C89.3615 114.606 92.8642 112.7 96.2534 110.666C99.9156 108.469 103.445 106.122 106.441 104.036C111.552 100.476 115.107 97.6758 115.107 97.6758L118.649 108.138C118.649 108.138 115.896 110.626 111.76 113.925C108.877 116.225 105.321 118.92 101.558 121.44C98.1329 123.735 94.5356 125.885 91.1172 127.463C90.4992 127.748 89.887 128.014 89.2827 128.259C86.4227 129.42 83.0708 130.375 79.629 131.157C75.7863 132.03 71.8316 132.687 68.324 133.171C61.9077 134.057 56.9878 134.366 56.9878 134.366Z" fill="#8F8585"/>
<path d="M68.324 133.171C61.9077 134.057 56.9878 134.366 56.9878 134.366L52.3291 123.852C52.3291 123.852 57.1435 123.292 63.4489 122.168M68.324 133.171L63.4489 122.168M68.324 133.171C71.8316 132.687 75.7863 132.03 79.629 131.157M63.4489 122.168C66.9018 121.553 70.8019 120.769 74.6034 119.815M74.6034 119.815C78.0204 118.958 81.3577 117.963 84.2189 116.831C84.8252 116.591 85.441 116.333 86.0641 116.058M74.6034 119.815L79.629 131.157M79.629 131.157C83.0708 130.375 86.4227 129.42 89.2827 128.259C89.887 128.014 90.4992 127.748 91.1172 127.463M91.1172 127.463L86.0641 116.058M91.1172 127.463C94.5356 125.885 98.1329 123.735 101.558 121.44M86.0641 116.058C89.3615 114.606 92.8642 112.7 96.2534 110.666M96.2534 110.666L101.558 121.44M96.2534 110.666C99.9156 108.469 103.445 106.122 106.441 104.036M101.558 121.44C105.321 118.92 108.877 116.225 111.76 113.925M111.76 113.925C115.896 110.626 118.649 108.138 118.649 108.138L115.107 97.6758C115.107 97.6758 111.552 100.476 106.441 104.036M111.76 113.925L106.441 104.036" stroke="black" stroke-width="7"/>
<circle cx="93.4625" cy="158.673" r="3.5" transform="rotate(-23.8977 93.4625 158.673)" fill="black"/>
<path d="M72.9691 98.8466C73.7522 100.614 71.5365 99.4814 69.7692 100.265C68.0019 101.048 67.3523 103.45 66.5692 101.682C65.7862 99.9151 66.584 97.8476 68.3513 97.0646C70.1186 96.2815 72.1861 97.0794 72.9691 98.8466Z" fill="black"/>
<path d="M90.3402 91.1494C91.1233 92.9166 88.9076 91.7842 87.1403 92.5672C85.373 93.3503 84.7234 95.7524 83.9403 93.9851C83.1573 92.2178 83.9551 90.1504 85.7224 89.3673C87.4897 88.5842 89.5572 89.3821 90.3402 91.1494Z" fill="black"/>
<circle cx="103.114" cy="153.304" r="3.5" transform="rotate(-23.8977 103.114 153.304)" fill="black"/>
<path d="M82.3445 106.177C83.3966 105.711 85.2513 99.3038 83.8753 99.355C82.4993 99.4062 77.8113 101.483 76.2633 102.728C74.7153 103.972 81.2924 106.643 82.3445 106.177Z" fill="#FFB7FA"/>
<path d="M115.363 97.0161C115.363 97.0161 118.225 75.0916 111.999 63.5059C106.416 53.1142 100.475 47.5738 89.4305 43.4273C77.2772 38.8643 68.0664 39.6901 56.2269 45.0143C44.5532 50.2639 37.044 55.3494 32.1373 67.1713C27.2806 78.873 26.4797 87.7267 32.8108 100.781C39.142 113.835 52.5847 123.192 52.5847 123.192C52.5847 123.192 73.5274 120.648 85.846 115.564C98.4302 110.37 115.363 97.0161 115.363 97.0161Z" fill="#97D7FF" fill-opacity="0.65" stroke="black" stroke-width="7"/>
<path d="M189.147 79.637C189.147 79.637 189.31 90.5027 184.513 92.6281C179.716 94.7536 174.507 95.966 173.246 89.4171C171.985 82.8682 176.157 75.0041 181.439 72.1147C186.722 69.2252 189.147 79.637 189.147 79.637Z" fill="#FF9D00"/>
</svg>
