<svg width="179" height="178" viewBox="0 0 179 178" fill="none" xmlns="http://www.w3.org/2000/svg">
<path d="M140.656 122.13C122.169 150.173 84.2774 158.037 56.017 139.666C27.7566 121.295 19.8571 83.6636 38.3442 55.6204C56.8314 27.5772 94.7229 19.7134 122.983 38.0845C151.244 56.4557 159.143 94.0868 140.656 122.13Z" fill="#8A8A8A" stroke="black" stroke-width="7"/>
<path d="M77.4718 61.3709L93.802 49.9595L100.874 64.004L101.491 65.2307L102.778 65.71L113.78 69.8066C113.787 69.8596 113.794 69.9135 113.801 69.9683C113.97 71.288 114.152 73.0724 114.21 74.9635C114.268 76.8756 114.196 78.7782 113.907 80.3755C113.601 82.0661 113.138 82.9219 112.815 83.2509C112.372 83.7023 111.292 84.3116 109.357 84.8519C107.529 85.3624 105.364 85.6978 103.218 85.9085C101.09 86.1175 99.0773 86.1949 97.5903 86.2193C97.081 86.2276 96.6366 86.2297 96.2739 86.2289L82.6999 76.2968L77.4718 61.3709Z" fill="#6A6A6A" stroke="black" stroke-width="7"/>
<path d="M98.391 110.409L96.0755 122.481L79.2952 129.146L68.7611 122.608L66.1761 116.961L79.8187 103.414L98.391 110.409Z" fill="#6A6A6A" stroke="black" stroke-width="7"/>
</svg>
