<svg width="1936" height="1431" viewBox="0 0 1936 1431" fill="none" xmlns="http://www.w3.org/2000/svg">
<path d="M0 304.5V781.819V1397L35.0181 1363.01L138.572 1295.04L236.5 1273.5H406L504 1257.5L554.5 1221L609.5 1170.5L674.895 1134L746.5 1074.5L802 987L901.5 970.5L1010.5 987L1196.12 1012.5L1360 987L1431.5 937.5L1471.5 842L1586.28 807L1614.34 769.5L1597.5 689.5L1646 673.5H1695.5L1787 709.5L1881.5 726.5L1913 713.596L1935 682V592.5V473V219V-1H700.448L674.895 26.9852L589.5 88H477.5L381.5 100L366.758 146L345 219H111L0 304.5Z" fill="#302F37"/>
<g filter="url(#filter0_d_190_7)">
<path d="M-35.3976 341.761C-55.1311 363.216 70.0913 231.341 116.165 220.653C162.238 209.965 311.187 228.549 341.441 217.791C371.696 207.034 345.685 112.972 382.853 96.7881C420.021 80.6043 548.267 99.4913 600.647 83.3528C653.026 67.2142 705.49 -11.1168 705.49 -11.1168" stroke="white" stroke-width="25"/>
</g>
<g filter="url(#filter1_d_190_7)">
<path d="M1952 659C1925.17 680.114 1918.77 733.191 1860.09 728.292C1801.42 723.392 1702.76 659 1623.83 675.098C1544.91 691.196 1683.03 795.134 1561.52 808.782C1440.02 822.43 1431.6 928.786 1431.6 928.786C1431.6 928.786 1391.93 1007.05 1211.34 1009.28C1030.75 1011.5 927.164 947.355 838.974 974.916C730.144 1008.93 778.303 1107.28 667.543 1138.76C536.98 1175.87 581.065 1282.24 405.565 1271.74C230.065 1261.25 249.789 1270.98 162.917 1296.56C66.3948 1324.98 -37 1413 -37 1413" stroke="white" stroke-width="25"/>
</g>
<path d="M567.307 1053.13C567.307 1053.13 539.128 1082.4 519.712 1087.69C500.296 1092.99 490.907 1088.07 490.907 1088.07" stroke="white" stroke-width="7"/>
<path d="M581.316 1072.42C581.316 1072.42 556.588 1096.72 540.52 1102.05C524.451 1107.38 517.169 1104.22 517.169 1104.22" stroke="white" stroke-width="7"/>
<path d="M553.41 1033.99C553.41 1033.99 528.683 1058.29 512.614 1063.62C496.546 1068.95 489.264 1065.79 489.264 1065.79" stroke="white" stroke-width="7"/>
<path d="M585.028 965.415C597.324 962.325 627.354 959.63 630.145 963.473L619.231 968.465L602.605 977.605L588.77 990.587C588.77 990.587 564.973 985.849 564.086 980.624C563.2 975.399 572.733 968.505 585.028 965.415Z" fill="#FF4040" stroke="black" stroke-width="7"/>
<path d="M656.198 1063.41C662.941 1052.68 674.794 1024.95 672.003 1021.11L633.419 1052.07C633.419 1052.07 630.562 1076.16 635.257 1078.62C639.951 1081.08 649.456 1074.15 656.198 1063.41Z" fill="#FF4040" stroke="black" stroke-width="7"/>
<path d="M621.439 967.503C632.352 962.509 682.1 946.924 691.867 960.372C701.634 973.821 674.721 1016.84 664.693 1027.06C654.666 1037.28 645.78 1045.78 630.425 1051.95C623.136 1054.88 611.008 1057.25 611.008 1057.25L577.521 1011.14C577.521 1011.14 582.331 999.042 587.17 992.391C596.909 979.005 610.525 972.497 621.439 967.503Z" fill="white" stroke="black" stroke-width="7"/>
<path d="M555.896 1017.4L578.611 1012.64L610.704 1056.83L600.546 1078.88L555.896 1017.4Z" fill="#BCBCBC" stroke="black" stroke-width="7"/>
<path d="M636.548 1024.34C628.673 1030.06 617.562 1028.28 611.744 1020.27C605.927 1012.26 607.671 1001.15 615.546 995.426C623.42 989.707 634.532 991.488 640.349 999.498C646.166 1007.51 644.422 1018.63 636.548 1024.34Z" fill="#279DD9" stroke="black" stroke-width="7"/>
<path d="M513.446 265.523C515.565 270.992 526.157 280.123 526.157 280.123C526.157 280.123 543.102 287.421 547.338 287.421C551.574 287.421 564.277 289.237 576.988 283.768C589.699 278.298 600.287 267.351 606.641 261.878C612.995 256.404 636.293 227.212 634.175 225.388C632.057 223.563 608.759 230.857 608.759 230.857C608.759 230.857 636.293 198.02 638.411 192.543C640.53 187.065 640.53 177.947 638.411 172.473C636.293 167 564.28 210.788 564.28 210.788C564.28 210.788 564.282 192.547 562.162 192.543C560.041 192.539 517.684 227.212 513.446 238.155C509.209 249.098 511.328 260.053 513.446 265.523Z" fill="#F3CC2E" stroke="#E8992B" stroke-width="7"/>
<ellipse cx="551.57" cy="252.747" rx="25.4166" ry="21.894" fill="#E8992B"/>
<path d="M1814.53 267.806C1814.53 271.586 1811.58 274.467 1808.17 274.467C1804.76 274.467 1801.81 271.586 1801.81 267.806C1801.81 264.026 1804.76 261.145 1808.17 261.145C1811.58 261.145 1814.53 264.026 1814.53 267.806Z" fill="white" stroke="white" stroke-width="7"/>
<path d="M1834.24 308.452C1834.24 312.232 1831.3 315.114 1827.89 315.114C1824.47 315.114 1821.53 312.232 1821.53 308.452C1821.53 304.672 1824.47 301.791 1827.89 301.791C1831.3 301.791 1834.24 304.672 1834.24 308.452Z" fill="white" stroke="white" stroke-width="7"/>
<path d="M1782.99 332.839C1782.99 336.619 1780.04 339.5 1776.63 339.5C1773.22 339.5 1770.27 336.619 1770.27 332.839C1770.27 329.059 1773.22 326.178 1776.63 326.178C1780.04 326.178 1782.99 329.059 1782.99 332.839Z" fill="white" stroke="white" stroke-width="7"/>
<ellipse cx="1760.86" cy="288.128" rx="9.85714" ry="10.1613" fill="white"/>
<path d="M1850.01 227.161C1850.01 230.941 1847.07 233.823 1843.66 233.823C1840.25 233.823 1837.3 230.941 1837.3 227.161C1837.3 223.381 1840.25 220.5 1843.66 220.5C1847.07 220.5 1850.01 223.381 1850.01 227.161Z" fill="white" stroke="white" stroke-width="7"/>
<path d="M1885.5 251.548C1885.5 255.328 1882.55 258.209 1879.14 258.209C1875.73 258.209 1872.79 255.328 1872.79 251.548C1872.79 247.768 1875.73 244.887 1879.14 244.887C1882.55 244.887 1885.5 247.768 1885.5 251.548Z" fill="white" stroke="white" stroke-width="7"/>
<path d="M1810.14 269.839L1827.89 310.484L1778.6 332.839L1760.86 288.129L1810.14 269.839ZM1810.14 269.839L1843.66 229.193L1879.14 251.548" stroke="white" stroke-width="7"/>
<path d="M174.5 715.5C174.5 742.994 151.341 765.5 122.5 765.5C93.659 765.5 70.5 742.994 70.5 715.5C70.5 688.006 93.659 665.5 122.5 665.5C151.341 665.5 174.5 688.006 174.5 715.5Z" fill="#97D4F1" stroke="black" stroke-width="7"/>
<path d="M98.5 751.5C98.5 756.342 94.3774 760.5 89 760.5C83.6226 760.5 79.5 756.342 79.5 751.5C79.5 746.658 83.6226 742.5 89 742.5C94.3774 742.5 98.5 746.658 98.5 751.5Z" fill="#4A9ACB" stroke="black" stroke-width="7"/>
<path d="M164.5 673C164.5 678.684 159.692 683.5 153.5 683.5C147.308 683.5 142.5 678.684 142.5 673C142.5 667.316 147.308 662.5 153.5 662.5C159.692 662.5 164.5 667.316 164.5 673Z" fill="#4A9ACB" stroke="black" stroke-width="7"/>
<path d="M143.602 726.341C144.895 724.905 144.778 722.692 143.341 721.398C141.905 720.105 139.692 720.222 138.398 721.659L143.602 726.341ZM107.602 766.341L143.602 726.341L138.398 721.659L102.398 761.659L107.602 766.341Z" fill="black"/>
<path d="M102.436 692.735C101.12 694.151 101.201 696.365 102.618 697.681C104.034 698.997 106.248 698.915 107.564 697.499L102.436 692.735ZM129.96 663.106L102.436 692.735L107.564 697.499L135.088 667.871L129.96 663.106Z" fill="black"/>
<path d="M147.381 702.678C146.099 704.125 146.232 706.337 147.679 707.619C149.125 708.901 151.337 708.768 152.619 707.322L147.381 702.678ZM162.905 685.167L147.381 702.678L152.619 707.322L168.143 689.81L162.905 685.167Z" fill="black"/>
<path d="M149.616 748.325C150.9 746.881 150.77 744.668 149.325 743.384C147.881 742.1 145.668 742.23 144.384 743.675L149.616 748.325ZM133.616 766.325L149.616 748.325L144.384 743.675L128.384 761.675L133.616 766.325Z" fill="black"/>
<path d="M99.5038 717.446C100.854 716.063 100.828 713.847 99.4456 712.496C98.0628 711.146 95.8468 711.172 94.4962 712.554L99.5038 717.446ZM78.5038 738.946L99.5038 717.446L94.4962 712.554L73.4962 734.054L78.5038 738.946Z" fill="black"/>
<circle cx="767" cy="119" r="5" fill="white"/>
<circle cx="1724" cy="582" r="5" fill="white"/>
<circle cx="339" cy="276" r="5" fill="white"/>
<circle cx="599" cy="401" r="5" fill="white"/>
<circle cx="1068" cy="769" r="5" fill="white"/>
<circle cx="1617" cy="313" r="5" fill="white"/>
<circle cx="1295" cy="468" r="5" fill="white"/>
<circle cx="660" cy="812" r="5" fill="white"/>
<circle cx="1241" cy="648" r="5" fill="white"/>
<circle cx="349" cy="1207" r="5" fill="white"/>
<circle cx="82" cy="1145" r="5" fill="white"/>
<circle cx="463" cy="993" r="5" fill="white"/>
<circle cx="1300" cy="212" r="5" fill="white"/>
<circle cx="1007" cy="51" r="5" fill="white"/>
<circle cx="700" cy="584" r="5" fill="white"/>
<circle cx="153" cy="369" r="5" fill="white"/>
<circle cx="97" cy="497" r="5" fill="white"/>
<circle cx="1365" cy="802" r="5" fill="white"/>
<circle cx="1879" cy="32" r="5" fill="white"/>
<circle cx="929" cy="348" r="5" fill="white"/>
<circle cx="1500" cy="455" r="5" fill="white"/>
<circle cx="136" cy="918" r="5" fill="white"/>
<circle cx="866" cy="923" r="5" fill="white"/>
<circle cx="379" cy="739" r="5" fill="white"/>
<path d="M1390.33 278.961C1383.62 289.205 1369.17 292.003 1357.92 284.64C1346.68 277.278 1343.46 262.914 1350.17 252.67C1356.87 242.426 1371.33 239.628 1382.57 246.99C1393.82 254.353 1397.03 268.716 1390.33 278.961Z" fill="#4F7AB1" stroke="black" stroke-width="7"/>
<path d="M245.785 1025.81C245.785 1030.91 242.094 1034.47 238.214 1034.47C234.334 1034.47 230.643 1030.91 230.643 1025.81C230.643 1020.71 234.334 1017.14 238.214 1017.14C242.094 1017.14 245.785 1020.71 245.785 1025.81Z" fill="white" stroke="white" stroke-width="7"/>
<ellipse cx="185.071" cy="1050.13" rx="11.0714" ry="12.1613" fill="white"/>
<path d="M285.643 977.161C285.643 982.261 281.951 985.823 278.071 985.823C274.192 985.823 270.5 982.261 270.5 977.161C270.5 972.061 274.192 968.5 278.071 968.5C281.951 968.5 285.643 972.061 285.643 977.161Z" fill="white" stroke="white" stroke-width="7"/>
<path d="M325.5 1006.35C325.5 1011.45 321.808 1015.01 317.929 1015.01C314.049 1015.01 310.357 1011.45 310.357 1006.35C310.357 1001.25 314.049 997.688 317.929 997.688C321.808 997.688 325.5 1001.25 325.5 1006.35Z" fill="white" stroke="white" stroke-width="7"/>
<path d="M185.071 1050.13L240.428 1028.24L278.071 979.594L317.928 1006.35" stroke="white" stroke-width="7"/>
<path d="M959.419 678.298C960.512 680.91 959.279 683.932 956.638 685.037C953.998 686.141 950.98 684.898 949.887 682.286C948.794 679.674 950.028 676.652 952.668 675.548C955.308 674.443 958.326 675.686 959.419 678.298Z" fill="white" stroke="white" stroke-width="7"/>
<ellipse cx="922.951" cy="712.296" rx="8.66638" ry="8.64307" transform="rotate(-22.7056 922.951 712.296)" fill="white"/>
<ellipse cx="838.793" cy="738.29" rx="8.66638" ry="8.64307" transform="rotate(-22.7056 838.793 738.29)" fill="white"/>
<path d="M974.856 634.362C975.949 636.974 974.715 639.996 972.075 641.101C969.435 642.206 966.417 640.963 965.324 638.351C964.231 635.739 965.464 632.717 968.105 631.612C970.745 630.507 973.763 631.75 974.856 634.362Z" fill="white" stroke="white" stroke-width="7"/>
<path d="M937.024 588.56C938.117 591.172 936.883 594.194 934.243 595.298C931.603 596.403 928.585 595.16 927.492 592.548C926.399 589.936 927.632 586.914 930.272 585.809C932.913 584.705 935.931 585.948 937.024 588.56Z" fill="white" stroke="white" stroke-width="7"/>
<path d="M1011.64 641.456C1012.74 644.068 1011.5 647.09 1008.86 648.195C1006.22 649.3 1003.21 648.057 1002.11 645.445C1001.02 642.832 1002.25 639.811 1004.89 638.706C1007.53 637.601 1010.55 638.844 1011.64 641.456Z" fill="white" stroke="white" stroke-width="7"/>
<path d="M970.758 637.951L956.92 681.218L922.952 712.296L838.163 739.97M970.758 637.951L1006.88 643.45M970.758 637.951L932.437 591.125" stroke="white" stroke-width="7"/>
<path d="M1207.86 902.785C1207.86 902.785 1263.19 872.834 1295.22 872.111C1327.24 871.387 1339.66 881.056 1339.66 881.056" stroke="white" stroke-width="7"/>
<path d="M1195.39 869.902C1195.39 869.902 1259.04 832.939 1297.31 834.115C1335.58 835.291 1351.27 849.265 1351.27 849.265" stroke="white" stroke-width="7"/>
<path d="M1184.31 835.984C1184.31 835.984 1239.64 806.034 1271.67 805.31C1303.69 804.586 1316.11 814.255 1316.11 814.255" stroke="white" stroke-width="7"/>
<path d="M1134.91 847.47C1143.36 855.602 1144.73 876.696 1144.73 876.696C1144.73 876.696 1125.17 888.51 1111.37 889.222C1099.66 889.825 1081.93 882.959 1081.93 882.959C1081.93 882.959 1076.73 859.609 1085.86 849.582C1093.11 841.615 1100.94 838.862 1111.37 839.12C1121.06 839.36 1127.73 840.551 1134.91 847.47Z" fill="#97D4F1" stroke="black" stroke-width="7"/>
<path d="M1049.06 897.556C1053.78 883.867 1080.46 874.593 1080.46 874.593L1082.42 882.943C1082.42 882.943 1100.14 889.81 1111.85 889.206C1125.65 888.495 1145.22 876.681 1145.22 876.681L1145.21 870.418C1175.24 880.125 1178.58 893.381 1174.65 903.819C1170.73 914.257 1157.44 920.729 1141.29 924.695C1115.78 930.957 1102.04 930.957 1076.53 924.695C1051.02 918.432 1049.06 910.082 1049.06 910.082C1049.06 910.082 1046.68 904.444 1049.06 897.556Z" fill="#9B9B9B" stroke="black" stroke-width="7"/>
<path d="M1068.68 907.994C1068.68 907.994 1082.72 914.362 1092.23 916.344C1106.52 919.322 1115.45 920.348 1129.52 916.344C1138.46 913.798 1151.1 905.906 1151.1 905.906" stroke="black" stroke-width="7"/>
<path d="M1106.78 847.261C1106.78 847.261 1101.29 848.589 1098.44 850.334C1094.15 852.955 1091.78 854.896 1090.16 859.989C1089.12 863.228 1089.26 869.361 1089.26 869.361" stroke="black" stroke-width="7"/>
<path d="M1169.94 360.304C1163.03 340.274 1150.3 359.165 1149.53 361.145C1148.77 363.125 1143.97 383.287 1136.69 397.578C1130.55 409.638 1117.09 426.156 1117.09 426.156L1120.37 442.204C1120.37 442.204 1176.85 380.335 1169.94 360.304Z" fill="white" stroke="black" stroke-width="7" stroke-linecap="round" stroke-linejoin="round"/>
<path d="M1028.27 436.75C1031.01 430.611 1036.51 423.256 1036.51 423.256L1046.43 450.58C1046.43 450.58 1025.52 442.89 1028.27 436.75Z" fill="white" stroke="black" stroke-width="7" stroke-linecap="round" stroke-linejoin="round"/>
<path d="M1054.02 465.26C1043.24 448.245 1035.6 418.736 1035.6 418.736C1035.6 418.736 1056.5 416.964 1068.6 411.768C1081.41 406.269 1097.77 391.189 1097.77 391.189C1097.77 391.189 1112.27 401.714 1114.61 404.509C1116.94 407.304 1104.28 419.474 1104.28 419.474L1116.36 424.513L1127.95 459.302L1109.05 470.957L1098.09 461.045L1090.32 464.489L1096.5 480.893L1075.01 490.413C1075.01 490.413 1060.87 476.065 1054.02 465.26Z" fill="white"/>
<path d="M1092.21 414.434L1104.28 419.474M1104.28 419.474L1116.36 424.513L1127.95 459.302L1109.05 470.957L1098.09 461.045L1090.32 464.489L1096.5 480.893L1075.01 490.413C1075.01 490.413 1060.87 476.065 1054.02 465.26C1043.24 448.245 1035.6 418.736 1035.6 418.736C1035.6 418.736 1056.5 416.964 1068.6 411.768C1081.41 406.269 1097.77 391.189 1097.77 391.189C1097.77 391.189 1112.27 401.714 1114.61 404.509C1116.94 407.304 1104.28 419.474 1104.28 419.474Z" stroke="black" stroke-width="7" stroke-linecap="round" stroke-linejoin="round"/>
<path d="M1057.81 436.784L1070.92 429.336L1086 422.651L1093.3 439.108L1080.75 449.044L1066.12 455.526L1057.81 436.784Z" fill="#FF4040"/>
<path d="M1067.07 420.65L1070.92 429.336M1070.92 429.336L1057.81 436.784L1066.12 455.526L1080.75 449.044M1070.92 429.336L1086 422.651L1093.3 439.108L1080.75 449.044M1080.75 449.044L1084.19 456.816" stroke="black" stroke-width="7" stroke-linecap="round" stroke-linejoin="round"/>
<path d="M1026.96 378.267L1032.98 402.947L1033.99 405.233C1033.99 405.233 1053.4 403.906 1064.71 399.277C1076.27 394.546 1091.28 381.487 1091.28 381.487L1077.35 358.677C1077.35 358.677 1067.02 335.363 1065.74 338.662L1059.63 354.494L1038.6 363.812C1038.6 363.812 1021.35 354.502 1019.93 356.226C1018.51 357.951 1026.96 378.267 1026.96 378.267Z" fill="white" stroke="black" stroke-width="7"/>
<path d="M1062.7 356.526C1065.14 362.028 1061.61 368.928 1054.82 371.937C1048.03 374.945 1040.55 372.923 1038.11 367.42C1037.25 367.803 1043.46 365.288 1050.25 362.28C1057.04 359.271 1062.94 356.07 1062.7 356.526Z" fill="#FF9D00"/>
<path d="M1099.14 483.007C1099.29 482.94 1099.41 482.884 1099.52 482.84C1101.5 487.949 1098.21 494.353 1091.74 497.222C1085.32 500.068 1078.43 498.249 1075.92 493.439C1075.95 493.429 1075.97 493.418 1076 493.408C1076.57 493.178 1077.48 492.804 1078.63 492.325C1080.92 491.367 1084.17 489.985 1087.57 488.479C1090.89 487.011 1093.99 485.498 1096.26 484.386L1096.45 484.295C1097.6 483.734 1098.52 483.286 1099.14 483.007Z" fill="#FF9D00" stroke="#D98D23"/>
<path d="M1130.88 461.443C1131.01 461.353 1131.13 461.278 1131.22 461.218C1133.98 465.951 1131.75 472.792 1125.81 476.647C1119.92 480.471 1112.83 479.762 1109.6 475.409C1109.62 475.394 1109.64 475.38 1109.67 475.365C1110.19 475.048 1111.03 474.536 1112.09 473.882C1114.21 472.574 1117.2 470.695 1120.32 468.672C1123.36 466.699 1126.18 464.715 1128.26 463.258L1128.43 463.139C1129.47 462.403 1130.31 461.816 1130.88 461.443Z" fill="white" stroke="#DADADA"/>
<path d="M1116.64 420.854C1114.87 420.845 1112.9 420.233 1111.11 419.003C1111.31 418.77 1111.57 418.454 1111.88 418.076C1112.67 417.106 1113.78 415.716 1114.91 414.225C1116.01 412.767 1116.98 411.317 1117.68 410.258C1117.7 410.228 1117.72 410.198 1117.74 410.169C1118.08 409.657 1118.35 409.252 1118.55 408.986C1120.27 410.389 1121.42 412.15 1121.92 413.885C1122.45 415.729 1122.23 417.509 1121.22 418.841C1120.21 420.172 1118.56 420.863 1116.64 420.854ZM1118.76 408.718C1118.77 408.708 1118.77 408.711 1118.76 408.721C1118.76 408.72 1118.76 408.719 1118.76 408.718Z" fill="white" stroke="#DADADA"/>
<path d="M1029.85 455.157C1025.79 452.881 1024.29 447.718 1026.4 443.412C1026.77 443.636 1027.31 443.966 1027.99 444.37C1029.46 445.25 1031.56 446.484 1033.8 447.738C1035.98 448.962 1038.11 450.029 1039.67 450.811L1039.8 450.875C1040.59 451.271 1041.21 451.585 1041.62 451.807C1041.66 451.829 1041.7 451.849 1041.73 451.868C1039.18 455.994 1033.94 457.453 1029.85 455.157ZM1042.03 452.055C1042.03 452.055 1042.02 452.053 1042.02 452.048C1042.03 452.053 1042.03 452.055 1042.03 452.055Z" fill="white" stroke="#DADADA"/>
<path d="M1034.99 417.366L1030.33 406.852C1030.33 406.852 1035.14 406.292 1041.45 405.168C1044.9 404.553 1048.8 403.769 1052.6 402.815C1056.02 401.958 1059.36 400.963 1062.22 399.831C1062.83 399.591 1063.44 399.333 1064.07 399.058C1067.36 397.606 1070.87 395.7 1074.25 393.666C1077.92 391.469 1081.45 389.122 1084.44 387.036C1089.55 383.476 1093.11 380.676 1093.11 380.676L1096.65 391.138C1096.65 391.138 1093.9 393.626 1089.76 396.925C1086.88 399.225 1083.32 401.92 1079.56 404.44C1076.13 406.735 1072.54 408.885 1069.12 410.463C1068.5 410.748 1067.89 411.014 1067.28 411.259C1064.42 412.42 1061.07 413.375 1057.63 414.157C1053.79 415.03 1049.83 415.687 1046.32 416.171C1039.91 417.057 1034.99 417.366 1034.99 417.366Z" fill="#8F8585"/>
<path d="M1046.32 416.171C1039.91 417.057 1034.99 417.366 1034.99 417.366L1030.33 406.852C1030.33 406.852 1035.14 406.292 1041.45 405.168M1046.32 416.171L1041.45 405.168M1046.32 416.171C1049.83 415.687 1053.79 415.03 1057.63 414.157M1041.45 405.168C1044.9 404.553 1048.8 403.769 1052.6 402.815M1052.6 402.815C1056.02 401.958 1059.36 400.963 1062.22 399.831C1062.83 399.591 1063.44 399.333 1064.07 399.058M1052.6 402.815L1057.63 414.157M1057.63 414.157C1061.07 413.375 1064.42 412.42 1067.28 411.259C1067.89 411.014 1068.5 410.748 1069.12 410.463M1069.12 410.463L1064.07 399.058M1069.12 410.463C1072.54 408.885 1076.13 406.735 1079.56 404.44M1064.07 399.058C1067.36 397.606 1070.87 395.7 1074.25 393.666M1074.25 393.666L1079.56 404.44M1074.25 393.666C1077.92 391.469 1081.45 389.122 1084.44 387.036M1079.56 404.44C1083.32 401.92 1086.88 399.225 1089.76 396.925M1089.76 396.925C1093.9 393.626 1096.65 391.138 1096.65 391.138L1093.11 380.676C1093.11 380.676 1089.55 383.476 1084.44 387.036M1089.76 396.925L1084.44 387.036" stroke="black" stroke-width="7"/>
<circle cx="1071.46" cy="441.673" r="3.5" transform="rotate(-23.8977 1071.46 441.673)" fill="black"/>
<path d="M1050.97 381.847C1051.75 383.614 1049.54 382.481 1047.77 383.265C1046 384.048 1045.35 386.45 1044.57 384.682C1043.79 382.915 1044.59 380.848 1046.35 380.065C1048.12 379.281 1050.19 380.079 1050.97 381.847Z" fill="black"/>
<path d="M1068.34 374.149C1069.12 375.917 1066.91 374.784 1065.14 375.567C1063.37 376.35 1062.72 378.752 1061.94 376.985C1061.16 375.218 1061.96 373.15 1063.72 372.367C1065.49 371.584 1067.56 372.382 1068.34 374.149Z" fill="black"/>
<circle cx="1081.11" cy="436.304" r="3.5" transform="rotate(-23.8977 1081.11 436.304)" fill="black"/>
<path d="M1060.35 389.177C1061.4 388.711 1063.25 382.304 1061.88 382.355C1060.5 382.406 1055.81 384.483 1054.26 385.728C1052.72 386.972 1059.29 389.643 1060.35 389.177Z" fill="#FFB7FA"/>
<path d="M1093.36 380.016C1093.36 380.016 1096.23 358.092 1090 346.506C1084.42 336.114 1078.48 330.574 1067.43 326.427C1055.28 321.864 1046.07 322.69 1034.23 328.014C1022.55 333.264 1015.04 338.349 1010.14 350.171C1005.28 361.873 1004.48 370.727 1010.81 383.781C1017.14 396.835 1030.59 406.192 1030.59 406.192C1030.59 406.192 1051.53 403.648 1063.85 398.564C1076.43 393.37 1093.36 380.016 1093.36 380.016Z" fill="#97D7FF" fill-opacity="0.65" stroke="black" stroke-width="7"/>
<path d="M1167.15 362.637C1167.15 362.637 1167.31 373.503 1162.51 375.628C1157.72 377.754 1152.51 378.966 1151.25 372.417C1149.99 365.868 1154.16 358.004 1159.44 355.115C1164.72 352.225 1167.15 362.637 1167.15 362.637Z" fill="#FF9D00"/>
<circle cx="1516.03" cy="631.477" r="36.5" transform="rotate(33.2102 1516.03 631.477)" fill="#8A8A8A" stroke="black" stroke-width="7"/>
<path d="M1508.98 614.459L1518.56 607.716L1522.76 616.118L1523.2 616.996L1524.12 617.341L1530.74 619.824C1530.84 620.63 1530.95 621.694 1530.98 622.818C1531.02 623.999 1530.97 625.161 1530.8 626.127C1530.61 627.161 1530.34 627.619 1530.21 627.755C1530 627.973 1529.4 628.332 1528.22 628.664C1527.12 628.975 1525.8 629.181 1524.48 629.311C1523.18 629.44 1521.94 629.488 1521.03 629.503C1520.77 629.507 1520.53 629.509 1520.33 629.509L1512.11 623.447L1508.98 614.459Z" fill="#6A6A6A" stroke="black" stroke-width="5"/>
<path d="M1521.15 645.093L1519.8 652.187L1509.75 656.208L1503.46 652.279L1501.99 649.043L1510.12 640.911L1521.15 645.093Z" fill="#6A6A6A" stroke="black" stroke-width="5"/>
<defs>
<filter id="filter0_d_190_7" x="-53.9639" y="-26.0762" width="773.837" height="382.408" filterUnits="userSpaceOnUse" color-interpolation-filters="sRGB">
<feFlood flood-opacity="0" result="BackgroundImageFix"/>
<feColorMatrix in="SourceAlpha" type="matrix" values="0 0 0 0 0 0 0 0 0 0 0 0 0 0 0 0 0 0 127 0" result="hardAlpha"/>
<feOffset dy="-4"/>
<feGaussianBlur stdDeviation="2"/>
<feComposite in2="hardAlpha" operator="out"/>
<feColorMatrix type="matrix" values="0 0 0 0 0 0 0 0 0 0 0 0 0 0 0 0 0 0 0.25 0"/>
<feBlend mode="normal" in2="BackgroundImageFix" result="effect1_dropShadow_190_7"/>
<feBlend mode="normal" in="SourceGraphic" in2="effect1_dropShadow_190_7" result="shape"/>
</filter>
<filter id="filter1_d_190_7" x="-49.0986" y="649.178" width="2012.83" height="781.342" filterUnits="userSpaceOnUse" color-interpolation-filters="sRGB">
<feFlood flood-opacity="0" result="BackgroundImageFix"/>
<feColorMatrix in="SourceAlpha" type="matrix" values="0 0 0 0 0 0 0 0 0 0 0 0 0 0 0 0 0 0 127 0" result="hardAlpha"/>
<feOffset dy="4"/>
<feGaussianBlur stdDeviation="2"/>
<feComposite in2="hardAlpha" operator="out"/>
<feColorMatrix type="matrix" values="0 0 0 0 0 0 0 0 0 0 0 0 0 0 0 0 0 0 0.25 0"/>
<feBlend mode="normal" in2="BackgroundImageFix" result="effect1_dropShadow_190_7"/>
<feBlend mode="normal" in="SourceGraphic" in2="effect1_dropShadow_190_7" result="shape"/>
</filter>
</defs>
</svg>
