<svg width="393" height="398" viewBox="0 0 393 398" fill="none" xmlns="http://www.w3.org/2000/svg">
<path d="M-6.71781 51.7261L-32.3444 75.6849L-35.3433 377.09L-24.2598 372.302L-0.352341 353.255L22.2564 347.218H61.389L84.0143 342.735L95.6732 332.507L108.371 318.356L123.469 308.128L140 291.454L152.814 266.935L177.173 258.587H202.8L244.933 270.546L275.985 277.975L297.685 248.646L313.733 243.547L337.974 246.084L353.327 233.582L364.871 203.865L374.913 208.758L386.111 214.556L402.272 217.274L414.39 208.758V183.415V156.388V122.902V51.7261V-9.92236H129.368L123.469 -2.08035L103.754 15.0172H77.8962L55.7326 18.3799L52.3292 31.27L47.3059 51.7261H-6.71781Z" fill="#302F37"/>
<g filter="url(#filter0_d_358_2)">
<path d="M-40.5172 86.1159C-45.0731 92.1267 -16.163 55.1798 -5.52599 52.1854C5.111 49.1911 39.4989 54.3977 46.4837 51.3837C53.4685 48.3698 47.4635 22.0169 56.0445 17.4827C64.6254 12.9485 94.2337 18.24 106.327 13.7186C118.419 9.19707 130.532 -12.7486 130.532 -12.7486" stroke="white" stroke-width="15"/>
</g>
<g filter="url(#filter1_d_358_2)">
<path d="M420.154 204.339C401.763 213.356 401.117 229.233 377.799 209.482C354.481 189.732 367.153 223.431 347.786 239.923C328.419 256.416 314.656 234.85 295.378 250.976C278.318 265.248 286.374 286.491 247.897 270.292C209.421 254.092 182.158 252.852 161.756 260.614C136.58 270.194 147.721 297.894 122.099 306.761C91.8948 317.213 102.093 347.172 61.494 344.215C20.8947 341.258 25.4574 344 5.36111 351.205C-16.9679 359.21 -40.8867 384 -40.8867 384" stroke="white" stroke-width="15"/>
</g>
<circle cx="145.579" cy="37.0146" r="2" fill="white"/>
<circle cx="389.84" cy="157.692" r="2" fill="white"/>
<circle cx="46.7661" cy="93.9106" r="2" fill="white"/>
<circle cx="355.209" cy="171.101" r="2" fill="white"/>
<circle cx="88.7847" cy="40.2764" r="2" fill="white"/>
<circle cx="341.818" cy="107.319" r="2" fill="white"/>
<circle cx="267.478" cy="163.49" r="2" fill="white"/>
<circle cx="85.3218" cy="217.849" r="2" fill="white"/>
<circle cx="127.802" cy="255.176" r="2" fill="white"/>
<circle cx="30.3745" cy="219.661" r="2" fill="white"/>
<circle cx="255.011" cy="228.721" r="2" fill="white"/>
<circle cx="180.097" cy="67.2495" r="2" fill="white"/>
<circle cx="214.378" cy="220.023" r="2" fill="white"/>
<circle cx="330.968" cy="12.3721" r="2" fill="white"/>
<circle cx="249.819" cy="103.489" r="2" fill="white"/>
<circle cx="200.987" cy="12.3721" r="2" fill="white"/>
<circle cx="332.009" cy="57.4648" r="2" fill="white"/>
<circle cx="270.828" cy="16.1519" r="2" fill="white"/>
<circle cx="292" cy="77" r="2" fill="white"/>
<circle cx="22" cy="105" r="2" fill="white"/>
<circle cx="39" cy="303" r="2" fill="white"/>
<circle cx="374" cy="90" r="2" fill="white"/>
<circle cx="386.033" cy="33.5469" r="2" fill="white"/>
<circle cx="243.585" cy="50.2173" r="2" fill="white"/>
<circle cx="130.11" cy="205.528" r="2" fill="white"/>
<circle cx="182.98" cy="120.003" r="2" fill="white"/>
<circle cx="314.807" cy="158.779" r="2" fill="white"/>
<circle cx="323.698" cy="218.368" r="2" fill="white"/>
<circle cx="-0.100586" cy="326.567" r="2" fill="white"/>
<circle cx="123" cy="86" r="2" fill="white"/>
<circle cx="56.0015" cy="261.699" r="2" fill="white"/>
<g filter="url(#filter2_d_358_2)">
<path d="M62.168 151.504C62.296 151.056 62.488 150.693 62.744 150.416C63 150.117 63.2773 149.968 63.576 149.968C64.3013 149.968 64.824 150.107 65.144 150.384C65.464 150.661 65.624 151.141 65.624 151.824C65.624 152.016 65.4747 152.56 65.176 153.456C64.5147 155.483 63.7893 157.989 63 160.976C62.808 161.659 62.648 162.256 62.52 162.768C62.4133 163.28 62.3173 163.707 62.232 164.048C61.72 166.245 61.272 167.899 60.888 169.008C60.76 169.328 60.536 169.584 60.216 169.776C59.896 169.947 59.5547 170.032 59.192 170.032C58.8293 170.032 58.4667 169.957 58.104 169.808C57.7627 169.637 57.5173 169.445 57.368 169.232C56.7067 167.931 55.8853 166.16 54.904 163.92C53.944 161.659 53.1973 159.685 52.664 158C51.3413 161.349 50.1573 164.581 49.112 167.696C49.048 167.888 48.9733 168.101 48.888 168.336C48.824 168.549 48.7493 168.773 48.664 169.008C48.5147 169.328 48.3013 169.584 48.024 169.776C47.7467 169.947 47.4373 170.032 47.096 170.032C46.712 170.032 46.3387 169.957 45.976 169.808C45.6133 169.637 45.368 169.445 45.24 169.232C44.9627 168.763 44.664 168.037 44.344 167.056C44.0453 166.075 43.64 164.699 43.128 162.928L42.328 160.208C41.7733 158.437 41.2933 156.624 40.888 154.768C40.4827 152.912 40.28 151.803 40.28 151.44C40.28 150.992 40.504 150.64 40.952 150.384C41.4 150.107 41.848 149.968 42.296 149.968C42.552 149.968 42.8187 150.053 43.096 150.224C43.3733 150.373 43.5547 150.64 43.64 151.024C44.3867 155.013 45.4853 159.643 46.936 164.912C47.4907 163.589 48.0987 161.979 48.76 160.08C49.4427 158.181 50.0933 156.336 50.712 154.544L51.032 153.584C51.1173 153.264 51.3307 153.019 51.672 152.848C52.0347 152.656 52.3973 152.56 52.76 152.56C53.2293 152.56 53.6133 152.677 53.912 152.912C54.2107 153.147 54.4027 153.403 54.488 153.68C54.5093 153.765 54.936 155.035 55.768 157.488C56.6 159.941 57.592 162.416 58.744 164.912C59.1707 163.653 59.6827 161.637 60.28 158.864L60.76 156.752C61.336 154.491 61.8053 152.741 62.168 151.504ZM66.7213 163.216C66.7213 162.405 66.8706 161.595 67.1693 160.784C67.4679 159.952 67.8626 159.195 68.3533 158.512C68.8439 157.829 69.6226 157.275 70.6893 156.848C71.7559 156.4 72.7053 156.176 73.5373 156.176C74.3906 156.176 75.2546 156.293 76.1293 156.528C77.0253 156.763 77.6439 157.125 77.9853 157.616C78.7746 158.725 79.1693 159.813 79.1693 160.88C79.1693 161.456 79.0413 161.947 78.7853 162.352C78.5506 162.757 78.2093 163.195 77.7613 163.664C77.3986 164.048 76.8226 164.304 76.0333 164.432C75.2653 164.56 74.4973 164.624 73.7292 164.624C73.2386 164.624 72.6413 164.581 71.9373 164.496C71.2333 164.389 70.5506 164.261 69.8893 164.112C69.9319 164.539 70.0386 164.955 70.2093 165.36C70.3799 165.765 70.5826 166.075 70.8173 166.288C71.2439 166.693 71.6813 166.949 72.1293 167.056C72.5986 167.163 73.1959 167.216 73.9213 167.216C74.6893 167.216 75.4039 167.088 76.0653 166.832C76.5986 166.64 77.0359 166.544 77.3773 166.544C77.7826 166.544 78.0919 166.672 78.3053 166.928C78.5186 167.163 78.6253 167.472 78.6253 167.856C78.6253 168.389 78.3159 168.827 77.6973 169.168C77.0786 169.509 76.3639 169.765 75.5533 169.936C74.7639 170.085 74.1239 170.16 73.6333 170.16C72.6306 170.16 71.6599 169.979 70.7213 169.616C69.7826 169.253 69.0039 168.741 68.3853 168.08C67.8733 167.483 67.4679 166.768 67.1693 165.936C66.8706 165.083 66.7213 164.176 66.7213 163.216ZM73.6973 158.896C73.2279 158.896 72.7586 158.992 72.2893 159.184C71.8199 159.355 71.4359 159.6 71.1373 159.92C70.7533 160.325 70.4866 160.656 70.3373 160.912C70.2093 161.147 70.1239 161.477 70.0813 161.904C70.6146 162.075 71.7239 162.16 73.4093 162.16C74.3266 162.16 75.0306 162.021 75.5213 161.744C76.0333 161.467 76.2893 161.104 76.2893 160.656C76.2893 160.208 76.0119 159.803 75.4573 159.44C74.9026 159.077 74.3159 158.896 73.6973 158.896ZM82.9953 164.24C82.9953 163.045 83.0059 162.139 83.0273 161.52L83.0593 158.48C83.0593 157.243 83.0273 155.888 82.9633 154.416C82.9419 153.968 82.8673 153.349 82.7393 152.56C82.5686 151.365 82.4833 150.469 82.4833 149.872C82.4833 148.891 82.9739 148.4 83.9553 148.4C84.5739 148.4 85.0113 148.571 85.2673 148.912C85.5446 149.232 85.7366 149.744 85.8433 150.448C86.0566 151.92 86.1633 153.648 86.1633 155.632C86.1633 156.229 86.1419 157.125 86.0993 158.32C86.5046 157.68 87.0273 157.179 87.6673 156.816C88.3286 156.453 88.9793 156.272 89.6193 156.272C91.4753 156.272 93.0753 157.04 94.4193 158.576C94.7819 159.109 95.1019 159.749 95.3793 160.496C95.6779 161.221 95.8273 161.851 95.8273 162.384C95.8273 163.323 95.7206 164.187 95.5073 164.976C95.3153 165.765 94.9633 166.533 94.4513 167.28C93.9393 168.027 93.2886 168.635 92.4993 169.104C91.7313 169.573 90.8353 169.808 89.8113 169.808C88.9153 169.808 88.1046 169.627 87.3793 169.264C86.6753 168.901 86.1099 168.421 85.6833 167.824C85.5766 168.357 85.3419 168.891 84.9793 169.424C84.6166 169.936 84.2006 170.192 83.7313 170.192C83.3473 170.192 83.0273 170.096 82.7713 169.904C82.5153 169.691 82.3873 169.381 82.3873 168.976C82.3873 168.677 82.4513 168.304 82.5793 167.856C82.7073 167.237 82.8033 166.672 82.8673 166.16C82.9526 165.627 82.9953 164.987 82.9953 164.24ZM89.0113 167.152C90.0566 167.152 90.9313 166.789 91.6353 166.064C92.3393 165.317 92.6913 164.315 92.6913 163.056C92.6913 161.904 92.3819 160.912 91.7633 160.08C91.5499 159.803 91.2406 159.579 90.8353 159.408C90.4513 159.237 90.0673 159.152 89.6833 159.152C88.7873 159.152 88.0299 159.419 87.4113 159.952C86.7926 160.464 86.4406 161.179 86.3553 162.096C86.2699 163.333 86.2273 164.4 86.2273 165.296C86.4833 165.787 86.8673 166.224 87.3793 166.608C87.9126 166.971 88.4566 167.152 89.0113 167.152ZM106.936 168.496C106.936 167.792 106.978 167.013 107.064 166.16C107.149 165.179 107.192 163.941 107.192 162.448C107.192 159.717 107.074 157.083 106.84 154.544C106.712 152.965 106.648 151.845 106.648 151.184C106.648 150.736 106.872 150.363 107.32 150.064C107.768 149.744 108.226 149.584 108.696 149.584C108.994 149.584 109.357 149.605 109.784 149.648C110.21 149.691 110.52 149.712 110.712 149.712C115.512 149.712 119.042 151.003 121.304 153.584C122.733 155.248 123.448 157.456 123.448 160.208C123.448 161.36 123.234 162.523 122.808 163.696C122.402 164.848 121.816 165.787 121.048 166.512C120.216 167.323 119.426 167.973 118.68 168.464C117.954 168.933 116.962 169.328 115.704 169.648C114.466 169.968 112.877 170.128 110.936 170.128C109.698 170.128 108.717 169.989 107.992 169.712C107.288 169.435 106.936 169.029 106.936 168.496ZM112.152 167.216C113.581 167.216 114.893 166.96 116.088 166.448C117.282 165.915 118.242 165.125 118.968 164.08C119.693 163.013 120.056 161.712 120.056 160.176C120.056 158.661 119.842 157.403 119.416 156.4C118.989 155.376 118.253 154.544 117.208 153.904C116.418 153.413 115.448 153.061 114.296 152.848C113.144 152.613 111.757 152.496 110.136 152.496C110.136 152.709 110.157 153.2 110.2 153.968C110.242 154.693 110.264 155.301 110.264 155.792L110.296 156.496C110.424 158.715 110.488 160.475 110.488 161.776C110.488 163.824 110.37 165.595 110.136 167.088C110.648 167.173 111.32 167.216 112.152 167.216ZM125.97 162.672C125.97 161.371 126.258 160.293 126.834 159.44C127.41 158.565 128.21 157.744 129.234 156.976C129.532 156.763 130.034 156.581 130.738 156.432C131.442 156.261 132.06 156.176 132.594 156.176C133.234 156.176 133.906 156.315 134.61 156.592C135.335 156.848 135.922 157.147 136.37 157.488C137.159 158.064 137.703 158.736 138.002 159.504C138.3 160.251 138.45 161.147 138.45 162.192C138.45 162.64 138.194 163.077 137.682 163.504C137.191 163.909 136.658 164.112 136.082 164.112L134.866 164.08C134.247 164.08 133.362 164.101 132.21 164.144L131.538 164.176C131.068 164.219 130.716 164.24 130.482 164.24C130.14 164.24 129.671 164.197 129.074 164.112C129.159 165.115 129.532 165.904 130.194 166.48C130.855 167.035 131.57 167.312 132.338 167.312C133.682 167.312 134.62 167.045 135.154 166.512C135.602 166.192 135.9 165.989 136.05 165.904C136.199 165.819 136.434 165.776 136.754 165.776C137.095 165.776 137.394 165.936 137.65 166.256C137.906 166.576 138.034 166.896 138.034 167.216C138.034 167.579 137.81 167.952 137.362 168.336C136.935 168.699 136.348 169.083 135.602 169.488C135.196 169.659 134.642 169.808 133.938 169.936C133.234 170.064 132.647 170.128 132.178 170.128C131.431 170.128 130.599 169.915 129.682 169.488C128.764 169.04 128.082 168.549 127.634 168.016C127.186 167.483 126.791 166.725 126.45 165.744C126.13 164.763 125.97 163.739 125.97 162.672ZM132.338 161.808C133.852 161.808 134.962 161.755 135.666 161.648C135.623 161.029 135.431 160.528 135.09 160.144C134.748 159.739 134.279 159.397 133.682 159.12C133.49 159.035 133.319 158.971 133.17 158.928C133.02 158.885 132.85 158.864 132.658 158.864C131.676 158.864 130.844 159.131 130.162 159.664C129.5 160.197 129.106 160.88 128.978 161.712C130.044 161.776 131.164 161.808 132.338 161.808ZM148.901 161.776C148.965 161.605 149.189 160.987 149.573 159.92C149.979 158.853 150.352 158.043 150.693 157.488C151.248 156.613 151.739 156.176 152.165 156.176C152.763 156.176 153.221 156.293 153.541 156.528C153.861 156.741 154.021 157.051 154.021 157.456C154.021 157.648 153.936 157.915 153.765 158.256C153.616 158.597 153.531 158.8 153.509 158.864C152.656 160.741 151.888 162.757 151.205 164.912L150.533 167.408C150.277 168.219 149.84 168.88 149.221 169.392C148.603 169.883 147.877 170.128 147.045 170.128C146.299 170.128 145.605 169.787 144.965 169.104C144.581 168.507 144.176 167.749 143.749 166.832C143.344 165.915 142.992 165.019 142.693 164.144L141.573 160.784C141.339 160.123 141.147 159.557 140.997 159.088C140.869 158.619 140.805 158.192 140.805 157.808C140.784 157.36 140.912 156.997 141.189 156.72C141.467 156.443 141.851 156.304 142.341 156.304C142.896 156.304 143.291 156.421 143.525 156.656C143.76 156.869 143.973 157.211 144.165 157.68C144.251 158.171 144.485 159.173 144.869 160.688L145.093 161.584C145.285 162.309 145.531 163.045 145.829 163.792C146.128 164.539 146.427 165.253 146.725 165.936C146.683 165.829 146.832 166.181 147.173 166.992C147.387 166.373 147.632 165.616 147.909 164.72L148.901 161.776ZM156.034 162.768C156.034 162 156.172 161.285 156.45 160.624C156.727 159.941 157.132 159.237 157.666 158.512C158.199 157.787 158.935 157.221 159.874 156.816C160.812 156.389 161.836 156.176 162.946 156.176C163.799 156.176 164.62 156.357 165.41 156.72C166.22 157.061 166.946 157.488 167.586 158C167.671 158.149 167.82 158.427 168.034 158.832C168.247 159.216 168.396 159.568 168.482 159.888C168.588 160.208 168.642 160.539 168.642 160.88C168.642 162.309 168.119 163.269 167.074 163.76C166.028 164.229 164.706 164.464 163.106 164.464C161.506 164.464 160.204 164.357 159.202 164.144C159.244 164.549 159.351 164.955 159.522 165.36C159.692 165.765 159.895 166.075 160.13 166.288C160.556 166.693 160.972 166.96 161.378 167.088C161.804 167.195 162.37 167.248 163.074 167.248C164.14 167.248 164.972 167.045 165.57 166.64C166.124 166.277 166.551 166.096 166.85 166.096C167.255 166.096 167.564 166.224 167.778 166.48C167.991 166.715 168.098 167.024 168.098 167.408C168.098 168.219 167.575 168.88 166.53 169.392C165.506 169.904 164.343 170.16 163.042 170.16C162.018 170.16 161.004 169.979 160.002 169.616C158.999 169.253 158.199 168.741 157.602 168.08C157.196 167.397 156.834 166.565 156.514 165.584C156.194 164.603 156.034 163.664 156.034 162.768ZM163.074 158.8C162.604 158.8 162.114 158.885 161.602 159.056C161.111 159.205 160.727 159.44 160.45 159.76C160.108 160.123 159.852 160.453 159.682 160.752C159.532 161.051 159.436 161.424 159.394 161.872C159.628 161.872 159.852 161.883 160.066 161.904C160.279 161.925 160.482 161.947 160.674 161.968C161.612 162.053 162.316 162.096 162.786 162.096C163.724 162.096 164.439 161.957 164.93 161.68C165.442 161.403 165.698 161.029 165.698 160.56C165.698 160.112 165.41 159.707 164.834 159.344C164.279 158.981 163.692 158.8 163.074 158.8ZM175.311 165.04C175.311 165.851 175.429 166.48 175.663 166.928C175.919 167.355 176.239 167.568 176.623 167.568C176.837 167.568 177.039 167.557 177.231 167.536C177.423 167.493 177.615 167.472 177.807 167.472C178.021 167.472 178.202 167.579 178.351 167.792C178.522 168.005 178.607 168.24 178.607 168.496C178.607 169.008 178.362 169.413 177.871 169.712C177.402 169.989 176.762 170.128 175.951 170.128C175.375 170.128 174.789 169.957 174.191 169.616C173.615 169.253 173.135 168.699 172.751 167.952C172.367 167.184 172.175 166.235 172.175 165.104C172.175 162.672 172.218 160.613 172.303 158.928C172.41 156.923 172.463 154.395 172.463 151.344C172.463 150.384 172.517 149.712 172.623 149.328C172.751 149.029 172.954 148.805 173.231 148.656C173.53 148.485 173.839 148.4 174.159 148.4C174.479 148.4 174.757 148.453 174.991 148.56C175.247 148.667 175.418 148.837 175.503 149.072C175.589 149.328 175.642 149.584 175.663 149.84C175.706 150.075 175.727 150.416 175.727 150.864C175.727 151.739 175.695 152.581 175.631 153.392C175.589 154.373 175.567 155.088 175.567 155.536C175.397 159.291 175.311 162.459 175.311 165.04ZM193.462 159.728C193.632 160.027 193.771 160.464 193.878 161.04C193.984 161.595 194.038 162.096 194.038 162.544C194.038 163.376 193.856 164.56 193.494 166.096C192.022 168.784 189.846 170.128 186.966 170.128C185.899 170.128 184.811 169.776 183.702 169.072C182.592 168.368 181.824 167.557 181.398 166.64C180.822 164.805 180.534 163.643 180.534 163.152C180.534 162.299 180.715 161.392 181.078 160.432C181.462 159.472 181.942 158.64 182.518 157.936C182.88 157.445 183.531 157.029 184.47 156.688C185.408 156.325 186.262 156.144 187.03 156.144C188.523 156.144 189.792 156.432 190.838 157.008C191.883 157.563 192.758 158.469 193.462 159.728ZM190.678 164.88C190.784 164.603 190.838 163.888 190.838 162.736C190.838 162.117 190.72 161.509 190.486 160.912C190.272 160.315 189.952 159.803 189.526 159.376C189.483 159.333 189.366 159.269 189.174 159.184C188.982 159.077 188.715 158.981 188.374 158.896C188.054 158.789 187.68 158.736 187.254 158.736C186.059 158.736 185.184 159.216 184.63 160.176C184.075 161.136 183.798 162.224 183.798 163.44C183.798 163.653 183.851 164.059 183.958 164.656C184.086 165.253 184.192 165.627 184.278 165.776C184.342 165.925 184.502 166.139 184.758 166.416C185.035 166.672 185.366 166.907 185.75 167.12C186.155 167.312 186.571 167.408 186.998 167.408C187.958 167.408 188.726 167.184 189.302 166.736C189.878 166.267 190.336 165.648 190.678 164.88ZM197.901 158.864C197.709 158.864 197.527 158.885 197.357 158.928C197.186 158.949 197.015 158.96 196.845 158.96C196.61 158.96 196.386 158.853 196.173 158.64C195.981 158.427 195.885 158.235 195.885 158.064C195.885 157.509 196.162 157.083 196.717 156.784C197.271 156.464 197.837 156.304 198.413 156.304C198.903 156.304 199.405 156.475 199.917 156.816C200.45 157.136 200.845 157.552 201.101 158.064C201.655 157.403 202.338 156.923 203.149 156.624C203.959 156.325 204.802 156.176 205.677 156.176C206.658 156.176 207.565 156.485 208.397 157.104C209.25 157.723 209.922 158.512 210.413 159.472C210.903 160.411 211.149 161.349 211.149 162.288C211.149 163.205 211.053 164.027 210.861 164.752C210.669 165.456 210.327 166.171 209.837 166.896C209.282 167.664 208.535 168.293 207.597 168.784C206.679 169.275 205.581 169.52 204.301 169.52C203.959 169.52 203.543 169.435 203.053 169.264C202.562 169.072 202.157 168.869 201.837 168.656C201.687 170.107 201.613 171.365 201.613 172.432C201.613 173.072 201.645 173.68 201.709 174.256C201.751 174.939 201.773 175.429 201.773 175.728C201.773 176.197 201.613 176.539 201.293 176.752C200.973 176.987 200.621 177.104 200.237 177.104C199.469 177.104 198.957 176.891 198.701 176.464C198.466 176.059 198.349 175.472 198.349 174.704C198.434 172.869 198.541 171.173 198.669 169.616C198.797 167.696 198.861 164.731 198.861 160.72C198.861 160.336 198.786 159.931 198.637 159.504C198.487 159.077 198.242 158.864 197.901 158.864ZM201.965 165.488C202.071 165.893 202.37 166.235 202.861 166.512C203.373 166.768 203.831 166.896 204.237 166.896C205.453 166.896 206.359 166.565 206.957 165.904C207.405 165.435 207.693 164.976 207.821 164.528C207.97 164.08 208.045 163.365 208.045 162.384C208.045 161.616 207.895 160.976 207.597 160.464C207.298 159.931 206.935 159.547 206.509 159.312C206.082 159.056 205.677 158.928 205.293 158.928C204.418 158.928 203.703 159.195 203.149 159.728C202.615 160.24 202.274 160.944 202.125 161.84C202.018 162.544 201.965 163.76 201.965 165.488ZM213.782 162.672C213.782 161.371 214.07 160.293 214.646 159.44C215.222 158.565 216.022 157.744 217.046 156.976C217.345 156.763 217.846 156.581 218.55 156.432C219.254 156.261 219.873 156.176 220.406 156.176C221.046 156.176 221.718 156.315 222.422 156.592C223.148 156.848 223.734 157.147 224.182 157.488C224.972 158.064 225.516 158.736 225.814 159.504C226.113 160.251 226.262 161.147 226.262 162.192C226.262 162.64 226.006 163.077 225.494 163.504C225.004 163.909 224.47 164.112 223.894 164.112L222.678 164.08C222.06 164.08 221.174 164.101 220.022 164.144L219.35 164.176C218.881 164.219 218.529 164.24 218.294 164.24C217.953 164.24 217.484 164.197 216.886 164.112C216.972 165.115 217.345 165.904 218.006 166.48C218.668 167.035 219.382 167.312 220.15 167.312C221.494 167.312 222.433 167.045 222.966 166.512C223.414 166.192 223.713 165.989 223.862 165.904C224.012 165.819 224.246 165.776 224.566 165.776C224.908 165.776 225.206 165.936 225.462 166.256C225.718 166.576 225.846 166.896 225.846 167.216C225.846 167.579 225.622 167.952 225.174 168.336C224.748 168.699 224.161 169.083 223.414 169.488C223.009 169.659 222.454 169.808 221.75 169.936C221.046 170.064 220.46 170.128 219.99 170.128C219.244 170.128 218.412 169.915 217.494 169.488C216.577 169.04 215.894 168.549 215.446 168.016C214.998 167.483 214.604 166.725 214.262 165.744C213.942 164.763 213.782 163.739 213.782 162.672ZM220.15 161.808C221.665 161.808 222.774 161.755 223.478 161.648C223.436 161.029 223.244 160.528 222.902 160.144C222.561 159.739 222.092 159.397 221.494 159.12C221.302 159.035 221.132 158.971 220.982 158.928C220.833 158.885 220.662 158.864 220.47 158.864C219.489 158.864 218.657 159.131 217.974 159.664C217.313 160.197 216.918 160.88 216.79 161.712C217.857 161.776 218.977 161.808 220.15 161.808ZM229.418 158.768C228.863 158.384 228.586 157.979 228.586 157.552C228.586 157.253 228.714 156.976 228.97 156.72C229.226 156.464 229.61 156.336 230.122 156.336C230.719 156.336 231.252 156.496 231.722 156.816C232.212 157.115 232.554 157.552 232.746 158.128C233.236 157.552 233.791 157.093 234.41 156.752C235.05 156.411 235.7 156.24 236.362 156.24C237.151 156.24 237.866 156.453 238.506 156.88C239.146 157.307 239.466 157.883 239.466 158.608C239.466 159.013 239.284 159.429 238.922 159.856C238.58 160.283 238.228 160.496 237.866 160.496C237.674 160.496 237.503 160.453 237.354 160.368C237.226 160.261 237.066 160.112 236.874 159.92C236.66 159.707 236.479 159.557 236.33 159.472C236.18 159.365 236.01 159.312 235.818 159.312C235.476 159.312 235.156 159.365 234.858 159.472C234.559 159.579 234.356 159.707 234.25 159.856C233.908 160.389 233.652 160.869 233.482 161.296C233.332 161.723 233.258 162.181 233.258 162.672C233.258 163.035 233.247 163.323 233.226 163.536L233.194 165.36C233.194 165.637 233.204 165.947 233.226 166.288C233.247 166.629 233.268 166.885 233.29 167.056C233.354 167.632 233.386 168.187 233.386 168.72C233.386 169.083 233.247 169.403 232.97 169.68C232.692 169.957 232.351 170.096 231.946 170.096C231.306 170.096 230.836 169.979 230.538 169.744C230.239 169.488 230.09 169.029 230.09 168.368L230.058 166.32C230.036 165.915 230.026 165.339 230.026 164.592L230.058 162.48C230.1 161.456 230.122 160.624 230.122 159.984C230.122 159.749 230.068 159.536 229.962 159.344C229.876 159.152 229.695 158.96 229.418 158.768Z" fill="white"/>
</g>
<g filter="url(#filter3_d_358_2)">
<path d="M57.64 114.768C57.64 114.072 57.796 113.472 58.108 112.968C58.444 112.44 58.936 112.176 59.584 112.176C60.136 112.176 60.628 112.284 61.06 112.5C61.492 112.716 61.708 113.076 61.708 113.58C61.708 114.564 61.66 115.944 61.564 117.72C61.468 119.448 61.42 120.732 61.42 121.572C61.42 122.892 61.468 124.656 61.564 126.864C61.66 128.976 61.708 130.524 61.708 131.508C61.708 132.3 61.696 132.888 61.672 133.272C61.672 133.656 61.456 134.04 61.024 134.424C60.616 134.784 59.98 134.964 59.116 134.964C58.66 134.964 58.264 134.892 57.928 134.748C57.616 134.58 57.4 134.4 57.28 134.208C56.152 132.84 54.508 130.512 52.348 127.224C49.924 123.552 47.944 120.744 46.408 118.8C46.6 120.528 46.696 122.64 46.696 125.136C46.696 126.24 46.672 127.68 46.624 129.456C46.6 131.208 46.552 132.36 46.48 132.912C46.384 133.608 46.168 134.148 45.832 134.532C45.52 134.892 45.016 135.072 44.32 135.072C43.792 135.072 43.396 134.928 43.132 134.64C42.892 134.328 42.748 133.8 42.7 133.056C42.676 132.072 42.736 130.596 42.88 128.628C42.904 128.316 42.94 127.776 42.988 127.008C43.036 126.24 43.06 125.556 43.06 124.956C43.06 123.3 42.976 121.404 42.808 119.268C42.664 116.916 42.592 115.176 42.592 114.048C42.592 113.472 42.796 113.028 43.204 112.716C43.636 112.404 44.128 112.248 44.68 112.248C45.16 112.248 45.664 112.368 46.192 112.608C48.256 115.2 51.052 119.064 54.58 124.2L57.964 129.384C57.988 129 58 128.46 58 127.764C58 126.54 57.976 125.22 57.928 123.804C57.88 122.388 57.844 121.428 57.82 120.924C57.7 118.596 57.64 116.544 57.64 114.768ZM82.581 133.272C82.581 133.8 82.293 134.244 81.717 134.604C81.165 134.964 80.649 135.144 80.169 135.144C79.257 135.144 78.525 135.036 77.973 134.82C77.445 134.58 76.953 134.148 76.497 133.524C75.873 134.076 75.021 134.496 73.941 134.784C72.861 135.048 71.865 135.18 70.953 135.18C69.465 135.18 68.241 134.784 67.281 133.992C66.321 133.176 65.841 131.988 65.841 130.428C65.841 129.756 66.021 129.144 66.381 128.592C66.741 128.016 67.233 127.512 67.857 127.08C68.553 126.624 69.345 126.276 70.233 126.036C71.121 125.772 72.045 125.64 73.005 125.64C73.509 125.64 74.109 125.736 74.805 125.928C75.501 126.12 76.041 126.324 76.425 126.54V125.964C76.425 124.668 76.113 123.78 75.489 123.3C74.865 122.796 73.857 122.544 72.465 122.544C72.057 122.544 71.649 122.628 71.241 122.796C70.857 122.964 70.413 123.192 69.909 123.48C69.237 123.84 68.601 124.02 68.001 124.02C67.785 124.02 67.581 123.876 67.389 123.588C67.197 123.276 67.101 123 67.101 122.76C67.101 122.064 67.425 121.464 68.073 120.96C68.745 120.456 69.537 120.084 70.449 119.844C71.361 119.58 72.177 119.448 72.897 119.448C73.617 119.448 74.445 119.592 75.381 119.88C76.317 120.144 77.085 120.516 77.685 120.996C78.405 121.62 78.957 122.352 79.341 123.192C79.749 124.008 79.953 124.908 79.953 125.892C79.953 126.204 79.929 126.672 79.881 127.296C79.833 127.968 79.809 128.544 79.809 129.024C79.809 129.24 79.785 129.564 79.737 129.996C79.689 130.524 79.665 130.944 79.665 131.256C79.665 131.544 79.773 131.796 79.989 132.012C80.205 132.204 80.457 132.3 80.745 132.3L81.753 132.264C82.017 132.264 82.221 132.36 82.365 132.552C82.509 132.744 82.581 132.984 82.581 133.272ZM70.989 132.336C72.021 132.336 72.885 132.228 73.581 132.012C74.277 131.796 75.117 131.4 76.101 130.824C76.197 130.416 76.257 129.876 76.281 129.204C74.961 128.58 73.869 128.268 73.005 128.268C72.021 128.268 71.145 128.448 70.377 128.808C69.609 129.168 69.225 129.804 69.225 130.716C69.225 131.172 69.417 131.556 69.801 131.868C70.185 132.18 70.581 132.336 70.989 132.336ZM84.7986 122.544C84.4626 122.496 84.1866 122.352 83.9706 122.112C83.7786 121.872 83.6826 121.584 83.6826 121.248C83.6826 121.08 83.7186 120.9 83.7906 120.708C83.8866 120.516 84.0186 120.348 84.1866 120.204C84.4986 119.892 85.3386 119.736 86.7066 119.736C86.8986 118.8 86.9946 117.852 86.9946 116.892C86.9946 116.532 86.9826 116.22 86.9586 115.956C86.9346 115.692 86.9226 115.488 86.9226 115.344C86.9226 114.816 87.1146 114.42 87.4986 114.156C87.9066 113.892 88.3626 113.76 88.8666 113.76C89.4906 113.76 89.9106 113.916 90.1266 114.228C90.3666 114.54 90.4866 115.116 90.4866 115.956C90.4866 117.204 90.3786 118.428 90.1626 119.628C90.5466 119.628 91.0746 119.604 91.7466 119.556C92.6586 119.508 93.3186 119.484 93.7266 119.484C94.1346 119.484 94.4826 119.592 94.7706 119.808C95.0826 120 95.2386 120.276 95.2386 120.636C95.2386 121.572 94.8186 122.124 93.9786 122.292C93.0906 122.508 91.7106 122.64 89.8386 122.688C89.7666 123.624 89.7306 124.644 89.7306 125.748C89.7306 127.476 89.8386 128.892 90.0546 129.996C90.1986 130.764 90.4386 131.328 90.7746 131.688C91.1346 132.024 91.6626 132.192 92.3586 132.192C92.7666 132.192 93.1866 132.084 93.6186 131.868C93.9066 131.7 94.1706 131.616 94.4106 131.616C94.7466 131.616 94.9866 131.724 95.1306 131.94C95.2986 132.156 95.3826 132.444 95.3826 132.804C95.3826 133.476 95.0226 134.04 94.3026 134.496C93.5826 134.928 92.6586 135.144 91.5306 135.144C90.8346 135.144 90.1266 134.976 89.4066 134.64C88.7106 134.304 88.1226 133.884 87.6426 133.38C87.5706 133.308 87.4386 133.032 87.2466 132.552C87.0546 132.072 86.8866 131.556 86.7426 131.004C86.5026 129.876 86.3826 128.292 86.3826 126.252C86.3826 125.364 86.4306 124.176 86.5266 122.688L84.7986 122.544ZM112.014 135.144C111.198 135.144 110.574 135.024 110.142 134.784C109.71 134.52 109.242 134.04 108.738 133.344C108.114 133.896 107.178 134.34 105.93 134.676C104.706 135.012 103.65 135.18 102.762 135.18C101.298 135.18 100.11 134.784 99.1978 133.992C98.3098 133.176 97.8658 131.988 97.8658 130.428C97.8658 129.756 98.0458 129.144 98.4058 128.592C98.7898 128.016 99.2818 127.512 99.8818 127.08C100.554 126.624 101.346 126.264 102.258 126C103.194 125.736 104.046 125.604 104.814 125.604C106.11 125.604 107.262 125.724 108.27 125.964V125.928C108.27 124.632 107.946 123.744 107.298 123.264C106.674 122.76 105.666 122.508 104.274 122.508C103.386 122.508 102.618 122.904 101.97 123.696C101.73 124.008 101.226 124.164 100.458 124.164C100.074 124.164 99.7858 124.008 99.5938 123.696C99.4258 123.36 99.3418 123.024 99.3418 122.688C99.3418 121.992 99.6298 121.392 100.206 120.888C100.806 120.384 101.526 120.012 102.366 119.772C103.206 119.508 103.986 119.376 104.706 119.376C105.402 119.376 106.23 119.52 107.19 119.808C108.15 120.096 108.93 120.48 109.53 120.96C110.25 121.584 110.802 122.316 111.186 123.156C111.594 123.972 111.798 124.872 111.798 125.856C111.798 126.168 111.774 126.636 111.726 127.26C111.678 127.98 111.654 128.568 111.654 129.024C111.654 129.24 111.63 129.516 111.582 129.852C111.534 130.284 111.51 130.644 111.51 130.932C111.51 131.244 111.606 131.544 111.798 131.832C111.99 132.12 112.254 132.36 112.59 132.552C112.902 132.72 113.106 132.9 113.202 133.092C113.298 133.284 113.346 133.5 113.346 133.74C113.346 133.98 113.19 134.28 112.878 134.64C112.59 134.976 112.302 135.144 112.014 135.144ZM104.814 128.268C103.878 128.268 103.05 128.448 102.33 128.808C101.61 129.168 101.25 129.804 101.25 130.716C101.25 131.172 101.406 131.556 101.718 131.868C102.054 132.18 102.414 132.336 102.798 132.336C103.83 132.336 104.694 132.228 105.39 132.012C106.086 131.796 106.926 131.4 107.91 130.824C108.03 130.44 108.102 129.9 108.126 129.204C108.126 128.94 108.138 128.736 108.162 128.592C106.866 128.376 105.75 128.268 104.814 128.268ZM120.085 129.42C120.085 130.332 120.217 131.04 120.481 131.544C120.769 132.024 121.129 132.264 121.561 132.264C121.801 132.264 122.029 132.252 122.245 132.228C122.461 132.18 122.677 132.156 122.893 132.156C123.133 132.156 123.337 132.276 123.505 132.516C123.697 132.756 123.793 133.02 123.793 133.308C123.793 133.884 123.517 134.34 122.965 134.676C122.437 134.988 121.717 135.144 120.805 135.144C120.157 135.144 119.497 134.952 118.825 134.568C118.177 134.16 117.637 133.536 117.205 132.696C116.773 131.832 116.557 130.764 116.557 129.492C116.557 126.756 116.605 124.44 116.701 122.544C116.821 120.288 116.881 117.444 116.881 114.012C116.881 112.932 116.941 112.176 117.061 111.744C117.205 111.408 117.433 111.156 117.745 110.988C118.081 110.796 118.429 110.7 118.789 110.7C119.149 110.7 119.461 110.76 119.725 110.88C120.013 111 120.205 111.192 120.301 111.456C120.397 111.744 120.457 112.032 120.481 112.32C120.529 112.584 120.553 112.968 120.553 113.472C120.553 114.456 120.517 115.404 120.445 116.316C120.397 117.42 120.373 118.224 120.373 118.728C120.181 122.952 120.085 126.516 120.085 129.42ZM128.012 111.888C128.852 111.96 129.572 112.188 130.172 112.572C130.796 112.932 131.108 113.484 131.108 114.228C131.108 114.78 130.856 115.224 130.352 115.56C129.848 115.872 129.224 116.028 128.48 116.028C127.784 116.028 127.304 115.848 127.04 115.488C126.776 115.128 126.644 114.756 126.644 114.372C126.644 113.676 126.728 113.088 126.896 112.608C127.064 112.104 127.436 111.864 128.012 111.888ZM127.292 126.756V125.712C127.292 124.512 127.232 123.42 127.112 122.436C127.016 121.428 126.956 120.804 126.932 120.564C126.956 120.3 127.136 120.048 127.472 119.808C127.808 119.568 128.108 119.448 128.372 119.448C128.828 119.448 129.284 119.544 129.74 119.736C130.22 119.904 130.52 120.12 130.64 120.384C130.76 121.272 130.82 121.956 130.82 122.436C130.82 123.492 130.868 125.22 130.964 127.62L131 129.024L131.072 130.392C131.096 130.776 131.12 131.232 131.144 131.76C131.168 132.288 131.18 132.888 131.18 133.56C131.18 134.016 130.952 134.4 130.496 134.712C130.064 135.024 129.608 135.18 129.128 135.18C128.432 135.18 127.94 135.024 127.652 134.712C127.388 134.4 127.256 133.908 127.256 133.236L127.292 126.756ZM135.1 127.368C135.1 126.456 135.268 125.544 135.604 124.632C135.94 123.696 136.384 122.844 136.936 122.076C137.488 121.308 138.364 120.684 139.564 120.204C140.764 119.7 141.832 119.448 142.768 119.448C143.728 119.448 144.7 119.58 145.684 119.844C146.692 120.108 147.388 120.516 147.772 121.068C148.66 122.316 149.104 123.54 149.104 124.74C149.104 125.388 148.96 125.94 148.672 126.396C148.408 126.852 148.024 127.344 147.52 127.872C147.112 128.304 146.464 128.592 145.576 128.736C144.712 128.88 143.848 128.952 142.984 128.952C142.432 128.952 141.76 128.904 140.968 128.808C140.176 128.688 139.408 128.544 138.664 128.376C138.712 128.856 138.832 129.324 139.024 129.78C139.216 130.236 139.444 130.584 139.708 130.824C140.188 131.28 140.68 131.568 141.184 131.688C141.712 131.808 142.384 131.868 143.2 131.868C144.064 131.868 144.868 131.724 145.612 131.436C146.212 131.22 146.704 131.112 147.088 131.112C147.544 131.112 147.892 131.256 148.132 131.544C148.372 131.808 148.492 132.156 148.492 132.588C148.492 133.188 148.144 133.68 147.448 134.064C146.752 134.448 145.948 134.736 145.036 134.928C144.148 135.096 143.428 135.18 142.876 135.18C141.748 135.18 140.656 134.976 139.6 134.568C138.544 134.16 137.668 133.584 136.972 132.84C136.396 132.168 135.94 131.364 135.604 130.428C135.268 129.468 135.1 128.448 135.1 127.368ZM142.948 122.508C142.42 122.508 141.892 122.616 141.364 122.832C140.836 123.024 140.404 123.3 140.068 123.66C139.636 124.116 139.336 124.488 139.168 124.776C139.024 125.04 138.928 125.412 138.88 125.892C139.48 126.084 140.728 126.18 142.624 126.18C143.656 126.18 144.448 126.024 145 125.712C145.576 125.4 145.864 124.992 145.864 124.488C145.864 123.984 145.552 123.528 144.928 123.12C144.304 122.712 143.644 122.508 142.948 122.508ZM163.151 112.14C163.607 112.14 164.015 112.26 164.375 112.5C164.759 112.74 164.987 113.16 165.059 113.76C165.347 115.656 165.527 117.552 165.599 119.448C165.695 121.32 165.743 123.444 165.743 125.82C165.743 126.828 165.659 128.664 165.491 131.328C166.547 131.424 167.363 131.472 167.939 131.472C168.347 131.472 169.271 131.412 170.711 131.292C171.551 131.172 172.283 131.112 172.907 131.112C173.483 131.112 174.011 131.172 174.491 131.292C174.971 131.388 175.463 131.556 175.967 131.796C176.471 132.084 176.723 132.528 176.723 133.128C176.723 133.608 176.567 134.04 176.255 134.424C175.967 134.808 175.619 135 175.211 135C174.923 135 174.467 134.952 173.843 134.856C172.715 134.688 171.635 134.604 170.603 134.604C170.267 134.604 169.883 134.628 169.451 134.676C169.043 134.7 168.743 134.712 168.551 134.712C167.975 134.784 167.399 134.82 166.823 134.82C165.647 134.82 164.591 134.76 163.655 134.64C163.175 134.592 162.695 134.412 162.215 134.1C161.735 133.764 161.495 133.284 161.495 132.66C161.495 132.3 161.543 131.376 161.639 129.888C161.807 127.416 161.891 125.532 161.891 124.236C161.891 123.228 161.843 122.172 161.747 121.068C161.651 119.964 161.591 119.268 161.567 118.98C161.351 116.94 161.243 115.26 161.243 113.94C161.243 113.316 161.387 112.86 161.675 112.572C161.987 112.284 162.479 112.14 163.151 112.14ZM180.642 111.888C181.482 111.96 182.214 112.188 182.838 112.572C183.462 112.932 183.774 113.484 183.774 114.228C183.774 114.78 183.51 115.224 182.982 115.56C182.478 115.872 181.866 116.028 181.146 116.028C180.45 116.028 179.97 115.848 179.706 115.488C179.442 115.128 179.31 114.756 179.31 114.372C179.31 113.652 179.382 113.052 179.526 112.572C179.694 112.092 180.066 111.864 180.642 111.888ZM183.522 127.836V128.88C183.522 129.816 183.546 130.704 183.594 131.544C183.666 132.36 183.75 133.188 183.846 134.028C183.846 134.316 183.678 134.58 183.342 134.82C183.006 135.036 182.694 135.144 182.406 135.144C181.95 135.144 181.482 135.06 181.002 134.892C180.546 134.7 180.27 134.472 180.174 134.208C180.03 133.44 179.958 132.756 179.958 132.156C179.958 130.188 179.898 127.98 179.778 125.532C179.682 123.372 179.634 121.86 179.634 120.996C179.634 120.564 179.85 120.192 180.282 119.88C180.714 119.568 181.17 119.412 181.65 119.412C182.346 119.412 182.826 119.568 183.09 119.88C183.378 120.192 183.522 120.684 183.522 121.356V127.836ZM204.433 132.228C204.553 132.276 204.745 132.336 205.009 132.408C205.273 132.48 205.465 132.552 205.585 132.624C205.705 132.696 205.765 132.804 205.765 132.948C205.789 133.524 205.573 134.004 205.117 134.388C204.685 134.748 204.169 134.928 203.569 134.928C202.633 134.928 201.901 134.676 201.373 134.172C200.845 133.668 200.461 132.9 200.221 131.868C200.125 131.46 200.077 130.896 200.077 130.176C200.077 129.768 200.101 129.108 200.149 128.196C200.197 127.236 200.221 126.468 200.221 125.892C200.221 124.86 200.113 124.08 199.897 123.552C199.681 123 199.165 122.724 198.349 122.724C197.509 122.724 196.753 123.06 196.081 123.732C195.433 124.404 194.881 125.412 194.425 126.756C193.801 128.628 193.453 131.112 193.381 134.208C193.381 134.376 193.201 134.58 192.841 134.82C192.505 135.036 192.097 135.144 191.617 135.144C190.729 135.144 190.177 134.676 189.961 133.74L189.925 133.128C189.925 132.912 189.949 132.66 189.997 132.372C190.285 130.692 190.429 129.228 190.429 127.98C190.429 127.428 190.417 126.996 190.393 126.684L190.357 124.992C190.357 124.416 190.213 123.864 189.925 123.336C189.637 122.784 189.301 122.508 188.917 122.508C188.797 122.508 188.629 122.556 188.413 122.652C188.197 122.724 188.017 122.76 187.873 122.76C187.633 122.76 187.369 122.64 187.081 122.4C186.817 122.16 186.685 121.908 186.685 121.644C186.685 121.14 186.853 120.732 187.189 120.42C187.549 120.132 187.897 119.904 188.233 119.736C188.593 119.568 189.001 119.484 189.457 119.484C189.841 119.484 190.153 119.52 190.393 119.592C190.633 119.664 190.957 119.82 191.365 120.06C191.605 120.18 191.881 120.516 192.193 121.068C192.505 121.62 192.745 122.4 192.913 123.408C193.393 122.52 194.197 121.584 195.325 120.6C196.165 119.832 197.377 119.448 198.961 119.448C200.401 119.448 201.541 119.976 202.381 121.032C203.221 122.064 203.641 123.492 203.641 125.316C203.641 125.676 203.617 126.264 203.569 127.08C203.497 127.728 203.461 128.412 203.461 129.132C203.461 130.812 203.785 131.844 204.433 132.228ZM222.807 112.464C222.807 112.704 222.747 113.364 222.627 114.444C222.363 117.084 222.231 119.76 222.231 122.472C222.231 124.848 222.267 126.66 222.339 127.908C222.411 129.156 222.591 130.116 222.879 130.788C223.167 131.436 223.611 131.76 224.211 131.76C225.363 131.76 225.939 132.144 225.939 132.912C225.939 133.416 225.687 133.848 225.183 134.208C224.679 134.544 224.127 134.712 223.527 134.712C222.807 134.712 222.135 134.544 221.511 134.208C220.887 133.872 220.395 133.356 220.035 132.66C219.531 133.404 218.799 134.004 217.839 134.46C216.903 134.892 215.991 135.108 215.103 135.108C213.735 135.108 212.523 134.82 211.467 134.244C210.411 133.668 209.595 132.888 209.019 131.904C208.443 130.896 208.155 129.792 208.155 128.592C208.155 127.44 208.287 126.336 208.551 125.28C208.839 124.2 209.223 123.312 209.703 122.616C210.351 121.704 211.215 120.984 212.295 120.456C213.399 119.904 214.479 119.628 215.535 119.628C216.183 119.628 216.795 119.76 217.371 120.024C217.947 120.264 218.451 120.564 218.883 120.924C218.883 119.316 218.871 118.308 218.847 117.9V117.144C218.847 114.912 218.991 113.28 219.279 112.248C219.543 111.24 220.179 110.736 221.187 110.736C221.739 110.736 222.147 110.856 222.411 111.096C222.675 111.336 222.807 111.792 222.807 112.464ZM211.719 128.52C211.719 129.624 212.031 130.512 212.655 131.184C213.303 131.856 214.071 132.192 214.959 132.192C216.231 132.192 217.167 131.796 217.767 131.004C218.391 130.212 218.703 129.192 218.703 127.944L218.667 124.38C217.731 123.348 216.759 122.832 215.751 122.832C215.055 122.832 214.395 123.012 213.771 123.372C213.171 123.708 212.691 124.224 212.331 124.92C211.923 125.712 211.719 126.912 211.719 128.52ZM242.994 135.108C241.194 135.108 239.982 134.412 239.358 133.02C239.046 132.324 238.842 131.424 238.746 130.32C238.65 129.192 238.602 127.872 238.602 126.36V125.244C238.602 123.516 238.026 122.652 236.874 122.652C236.202 122.652 235.53 123 234.858 123.696C234.186 124.368 233.622 125.268 233.166 126.396C232.734 127.5 232.518 128.652 232.518 129.852C232.518 130.644 232.554 131.364 232.626 132.012C232.674 132.828 232.698 133.452 232.698 133.884C232.698 134.7 232.134 135.108 231.006 135.108C230.454 135.108 229.962 134.988 229.53 134.748C229.122 134.508 228.918 134.196 228.918 133.812C229.014 132.588 229.062 131.076 229.062 129.276L229.026 124.524C229.026 123.756 228.966 120.912 228.846 115.992L228.738 112.68C228.738 112.152 228.978 111.696 229.458 111.312C229.938 110.904 230.478 110.7 231.078 110.7C231.606 110.7 231.99 110.82 232.23 111.06C232.47 111.3 232.59 111.672 232.59 112.176C232.59 112.8 232.578 113.532 232.554 114.372C232.53 115.188 232.506 115.812 232.482 116.244C232.41 117.468 232.374 118.692 232.374 119.916C232.374 121.116 232.35 122.064 232.302 122.76C233.022 121.704 233.838 120.924 234.75 120.42C235.686 119.892 236.778 119.628 238.026 119.628C238.938 119.628 239.778 120.036 240.546 120.852C241.338 121.644 241.818 122.556 241.986 123.588C242.034 124.116 242.058 124.896 242.058 125.928L242.022 128.556C242.022 128.964 242.046 129.6 242.094 130.464C242.118 130.872 242.25 131.304 242.49 131.76C242.754 132.216 243.054 132.552 243.39 132.768C243.702 132.96 243.906 133.152 244.002 133.344C244.098 133.536 244.146 133.752 244.146 133.992C244.146 134.232 244.038 134.484 243.822 134.748C243.606 134.988 243.33 135.108 242.994 135.108ZM260.877 123.444C261.069 123.78 261.225 124.272 261.345 124.92C261.465 125.544 261.525 126.108 261.525 126.612C261.525 127.284 261.417 128.124 261.201 129.132C260.985 130.116 260.805 130.776 260.661 131.112C259.365 133.8 256.869 135.144 253.173 135.144C251.997 135.144 250.845 134.76 249.717 133.992C248.589 133.2 247.785 132.276 247.305 131.22L247.053 130.5C247.029 130.404 246.897 130.044 246.657 129.42C246.441 128.772 246.333 128.28 246.333 127.944C246.333 126.96 246.573 125.82 247.053 124.524C247.533 123.228 248.085 122.196 248.709 121.428C249.117 120.876 249.897 120.408 251.049 120.024C252.201 119.616 253.221 119.412 254.109 119.412C255.765 119.412 257.097 119.724 258.105 120.348C259.137 120.972 260.061 122.004 260.877 123.444ZM257.565 129.24C257.661 129.072 257.745 128.772 257.817 128.34C257.889 127.908 257.925 127.404 257.925 126.828C257.925 126.132 257.793 125.448 257.529 124.776C257.289 124.104 256.929 123.528 256.449 123.048C256.425 123 256.341 122.928 256.197 122.832C256.053 122.712 255.825 122.604 255.513 122.508C255.201 122.388 254.805 122.328 254.325 122.328C253.389 122.328 252.597 122.604 251.949 123.156C251.301 123.708 250.809 124.392 250.473 125.208C250.161 126.024 250.005 126.828 250.005 127.62C250.005 127.836 250.077 128.28 250.221 128.952C250.365 129.624 250.473 130.056 250.545 130.248C250.737 130.584 251.109 130.98 251.661 131.436C252.213 131.868 252.837 132.084 253.533 132.084C254.613 132.084 255.453 131.832 256.053 131.328C256.677 130.824 257.181 130.128 257.565 129.24ZM269.006 129.42C269.006 130.332 269.138 131.04 269.402 131.544C269.69 132.024 270.05 132.264 270.482 132.264C270.722 132.264 270.95 132.252 271.166 132.228C271.382 132.18 271.598 132.156 271.814 132.156C272.054 132.156 272.258 132.276 272.426 132.516C272.618 132.756 272.714 133.02 272.714 133.308C272.714 133.884 272.438 134.34 271.886 134.676C271.358 134.988 270.638 135.144 269.726 135.144C269.078 135.144 268.418 134.952 267.746 134.568C267.098 134.16 266.558 133.536 266.126 132.696C265.694 131.832 265.478 130.764 265.478 129.492C265.478 126.756 265.526 124.44 265.622 122.544C265.742 120.288 265.802 117.444 265.802 114.012C265.802 112.932 265.862 112.176 265.982 111.744C266.126 111.408 266.354 111.156 266.666 110.988C267.002 110.796 267.35 110.7 267.71 110.7C268.07 110.7 268.382 110.76 268.646 110.88C268.934 111 269.126 111.192 269.222 111.456C269.318 111.744 269.378 112.032 269.402 112.32C269.45 112.584 269.474 112.968 269.474 113.472C269.474 114.456 269.438 115.404 269.366 116.316C269.318 117.42 269.294 118.224 269.294 118.728C269.102 122.952 269.006 126.516 269.006 129.42ZM297.886 133.74C297.526 133.068 297.298 132.324 297.202 131.508C297.106 130.668 297.058 129.516 297.058 128.052C297.058 126.66 296.866 125.448 296.482 124.416C296.098 123.384 295.306 122.868 294.106 122.868C293.65 122.868 293.194 123.012 292.738 123.3C292.306 123.564 291.982 123.9 291.766 124.308C291.43 124.956 291.202 125.664 291.082 126.432C290.962 127.176 290.902 128.04 290.902 129.024C290.902 129.648 290.938 130.284 291.01 130.932C291.01 131.124 291.022 131.436 291.046 131.868C291.094 132.276 291.118 132.648 291.118 132.984C291.118 134.424 290.614 135.144 289.606 135.144C288.286 135.144 287.59 134.448 287.518 133.056C287.518 132.072 287.53 131.544 287.554 131.472V129.924C287.554 129.06 287.518 128.22 287.446 127.404C287.374 126.588 287.29 125.976 287.194 125.568C286.978 124.776 286.69 124.164 286.33 123.732C285.994 123.3 285.454 123.084 284.71 123.084C283.654 123.084 282.802 123.54 282.154 124.452C281.698 125.172 281.398 126.048 281.254 127.08C281.11 128.4 281.002 129.444 280.93 130.212C280.882 130.956 280.858 131.82 280.858 132.804C280.858 133.5 280.738 134.064 280.498 134.496C280.282 134.928 279.862 135.144 279.238 135.144C278.782 135.144 278.302 135.024 277.798 134.784C277.318 134.52 277.078 134.172 277.078 133.74C277.078 133.284 277.126 132.828 277.222 132.372C277.438 131.004 277.546 128.556 277.546 125.028C277.546 124.452 277.402 123.9 277.114 123.372C276.85 122.82 276.526 122.544 276.142 122.544C276.046 122.544 275.866 122.592 275.602 122.688C275.362 122.784 275.182 122.832 275.062 122.832C274.75 122.832 274.462 122.688 274.198 122.4C273.958 122.112 273.838 121.872 273.838 121.68C273.838 121.08 274.126 120.576 274.702 120.168C275.302 119.736 275.926 119.52 276.574 119.52C277.462 119.52 278.218 119.796 278.842 120.348C279.466 120.9 279.946 121.668 280.282 122.652C280.834 121.692 281.578 120.924 282.514 120.348C283.45 119.748 284.494 119.448 285.646 119.448C286.366 119.448 286.942 119.544 287.374 119.736C287.83 119.904 288.202 120.156 288.49 120.492C288.778 120.804 289.15 121.284 289.606 121.932C290.206 121.164 290.974 120.564 291.91 120.132C292.87 119.7 293.854 119.484 294.862 119.484C296.062 119.484 297.142 119.976 298.102 120.96C299.062 121.92 299.71 123.036 300.046 124.308C300.214 124.956 300.298 126.204 300.298 128.052L300.442 130.14C300.562 131.388 300.97 132.144 301.666 132.408C302.482 132.648 302.89 132.9 302.89 133.164C302.89 133.74 302.746 134.16 302.458 134.424C302.242 134.568 301.942 134.724 301.558 134.892C301.174 135.06 300.874 135.144 300.658 135.144C299.362 135.144 298.438 134.676 297.886 133.74Z" fill="white"/>
</g>
<defs>
<filter id="filter0_d_358_2" x="-52.4849" y="-24.4614" width="193.589" height="118.5" filterUnits="userSpaceOnUse" color-interpolation-filters="sRGB">
<feFlood flood-opacity="0" result="BackgroundImageFix"/>
<feColorMatrix in="SourceAlpha" type="matrix" values="0 0 0 0 0 0 0 0 0 0 0 0 0 0 0 0 0 0 127 0" result="hardAlpha"/>
<feOffset dy="-4"/>
<feGaussianBlur stdDeviation="2"/>
<feComposite in2="hardAlpha" operator="out"/>
<feColorMatrix type="matrix" values="0 0 0 0 0 0 0 0 0 0 0 0 0 0 0 0 0 0 0.25 0"/>
<feBlend mode="normal" in2="BackgroundImageFix" result="effect1_dropShadow_358_2"/>
<feBlend mode="normal" in="SourceGraphic" in2="effect1_dropShadow_358_2" result="shape"/>
</filter>
<filter id="filter1_d_358_2" x="-50.2822" y="195.951" width="477.738" height="201.258" filterUnits="userSpaceOnUse" color-interpolation-filters="sRGB">
<feFlood flood-opacity="0" result="BackgroundImageFix"/>
<feColorMatrix in="SourceAlpha" type="matrix" values="0 0 0 0 0 0 0 0 0 0 0 0 0 0 0 0 0 0 127 0" result="hardAlpha"/>
<feOffset dy="4"/>
<feGaussianBlur stdDeviation="2"/>
<feComposite in2="hardAlpha" operator="out"/>
<feColorMatrix type="matrix" values="0 0 0 0 0 0 0 0 0 0 0 0 0 0 0 0 0 0 0.25 0"/>
<feBlend mode="normal" in2="BackgroundImageFix" result="effect1_dropShadow_358_2"/>
<feBlend mode="normal" in="SourceGraphic" in2="effect1_dropShadow_358_2" result="shape"/>
</filter>
<filter id="filter2_d_358_2" x="40.2798" y="148.4" width="213.186" height="42.7041" filterUnits="userSpaceOnUse" color-interpolation-filters="sRGB">
<feFlood flood-opacity="0" result="BackgroundImageFix"/>
<feColorMatrix in="SourceAlpha" type="matrix" values="0 0 0 0 0 0 0 0 0 0 0 0 0 0 0 0 0 0 127 0" result="hardAlpha"/>
<feOffset dx="10" dy="10"/>
<feGaussianBlur stdDeviation="2"/>
<feComposite in2="hardAlpha" operator="out"/>
<feColorMatrix type="matrix" values="0 0 0 0 0 0 0 0 0 0 0 0 0 0 0 0 0 0 0.75 0"/>
<feBlend mode="normal" in2="BackgroundImageFix" result="effect1_dropShadow_358_2"/>
<feBlend mode="normal" in="SourceGraphic" in2="effect1_dropShadow_358_2" result="shape"/>
</filter>
<filter id="filter3_d_358_2" x="42.5918" y="110.7" width="274.298" height="38.48" filterUnits="userSpaceOnUse" color-interpolation-filters="sRGB">
<feFlood flood-opacity="0" result="BackgroundImageFix"/>
<feColorMatrix in="SourceAlpha" type="matrix" values="0 0 0 0 0 0 0 0 0 0 0 0 0 0 0 0 0 0 127 0" result="hardAlpha"/>
<feOffset dx="10" dy="10"/>
<feGaussianBlur stdDeviation="2"/>
<feComposite in2="hardAlpha" operator="out"/>
<feColorMatrix type="matrix" values="0 0 0 0 0 0 0 0 0 0 0 0 0 0 0 0 0 0 0.75 0"/>
<feBlend mode="normal" in2="BackgroundImageFix" result="effect1_dropShadow_358_2"/>
<feBlend mode="normal" in="SourceGraphic" in2="effect1_dropShadow_358_2" result="shape"/>
</filter>
</defs>
</svg>
