<svg width="184" height="200" viewBox="0 0 184 200" fill="none" xmlns="http://www.w3.org/2000/svg">
<path d="M119.478 152.555C104.419 175.558 72.7159 181.704 48.5856 165.907C24.4553 150.111 17.4056 118.596 32.4646 95.5927C47.5235 72.5892 79.2266 66.4439 103.357 82.2404C127.487 98.037 134.537 129.551 119.478 152.555Z" fill="#97D4F1" stroke="black" stroke-width="7"/>
<path d="M36.1739 141.047C33.5216 145.099 27.7952 146.319 23.2962 143.374C18.7971 140.429 17.625 134.692 20.2772 130.641C22.9295 126.589 28.6559 125.369 33.155 128.314C37.654 131.259 38.8262 136.996 36.1739 141.047Z" fill="#4A9ACB" stroke="black" stroke-width="7"/>
<path d="M134.389 111.52C131.275 116.276 124.615 117.671 119.434 114.28C114.254 110.889 112.869 104.226 115.982 99.4702C119.095 94.7144 125.756 93.3186 130.936 96.71C136.117 100.101 137.502 106.764 134.389 111.52Z" fill="#4A9ACB" stroke="black" stroke-width="7"/>
<path d="M149.329 69.3531C142.623 79.5973 128.173 82.3956 116.926 75.033C105.679 67.6704 102.463 53.3071 109.169 43.0629C115.875 32.8187 130.326 30.0204 141.573 37.383C152.82 44.7456 156.035 59.1089 149.329 69.3531Z" fill="#4F7AB1" stroke="black" stroke-width="7"/>
<path d="M87.688 144.701C89.5569 144.207 90.6715 142.292 90.1777 140.423C89.6838 138.554 87.7685 137.44 85.8996 137.933L87.688 144.701ZM35.6595 158.45L87.688 144.701L85.8996 137.933L33.8711 151.682L35.6595 158.45Z" fill="black"/>
<path d="M71.6526 94.0362C69.7762 94.5005 68.6315 96.398 69.0958 98.2744C69.5601 100.151 71.4576 101.296 73.334 100.831L71.6526 94.0362ZM110.909 84.3226L71.6526 94.0362L73.334 100.831L112.59 91.1177L110.909 84.3226Z" fill="black"/>
<path d="M103.811 126.973C101.946 127.48 100.846 129.404 101.354 131.269C101.862 133.134 103.785 134.235 105.65 133.727L103.811 126.973ZM126.391 120.824L103.811 126.973L105.65 133.727L128.23 127.578L126.391 120.824Z" fill="black"/>
<path d="M80.6787 166.39C82.5445 165.884 83.6473 163.962 83.1419 162.096C82.6365 160.231 80.7143 159.128 78.8485 159.633L80.6787 166.39ZM57.4332 172.686L80.6787 166.39L78.8485 159.633L55.603 165.93L57.4332 172.686Z" fill="black"/>
<path d="M55.6652 113.105C57.5527 112.688 58.7445 110.82 58.3274 108.932C57.9102 107.045 56.0419 105.853 54.1545 106.27L55.6652 113.105ZM26.3194 119.591L55.6652 113.105L54.1545 106.27L24.8086 112.756L26.3194 119.591Z" fill="black"/>
</svg>
