<svg width="1936" height="1594" viewBox="0 0 1936 1594" fill="none" xmlns="http://www.w3.org/2000/svg">
<path d="M4.6654 510.133L-75.0947 589.728L4.66597 1044.84L81.1302 1002.8L270.536 880.708L340.397 869.761L451.703 944.556L626.624 1044.84L749.644 1030.51L953.031 978.069L1042.37 1012.34L1185 1125.95L1302.07 1164.43L1420.27 1147.13L1563.45 1057.61L1659.22 978.322L1728.44 949.54L1901.04 1009.77L2032.89 1090.99L1941.11 704.744L1858.08 679.761L1784.52 623.235L1712.48 551.446L1658.28 550.449L1504.76 600.802L1245.5 723.049L1082.3 771.592L964.072 739.041L907.447 624.016L811.51 572.807L721.434 570.056L589.604 601.381L448.128 659.152L356.592 656.747L269.003 534.69L222.67 452.165L160.727 418.575L105.271 431.752L4.6654 510.133Z" fill="#302F37"/>
<circle cx="60.6689" cy="667.963" r="5" transform="rotate(-13.3664 60.6689 667.963)" fill="white"/>
<circle cx="367.24" cy="772.933" r="5" transform="rotate(-13.3664 367.24 772.933)" fill="white"/>
<circle cx="1288.99" cy="888.769" r="5" transform="rotate(-13.3664 1288.99 888.769)" fill="white"/>
<circle cx="1620.63" cy="679.652" r="5" transform="rotate(-13.3664 1620.63 679.652)" fill="white"/>
<circle cx="1896.94" cy="903.849" r="5" transform="rotate(-13.3664 1896.94 903.849)" fill="white"/>
<circle cx="663.128" cy="941.086" r="5" transform="rotate(-13.3664 663.128 941.086)" fill="white"/>
<circle cx="808.285" cy="678.193" r="5" transform="rotate(-13.3664 808.285 678.193)" fill="white"/>
<circle cx="62.4101" cy="913.203" r="5" transform="rotate(-13.3664 62.4101 913.203)" fill="white"/>
<circle cx="131.702" cy="525.687" r="5" transform="rotate(-13.3664 131.702 525.687)" fill="white"/>
<circle cx="183.948" cy="745.564" r="5" transform="rotate(-13.3664 183.948 745.564)" fill="white"/>
<circle cx="555.032" cy="685.142" r="5" transform="rotate(-13.3664 555.032 685.142)" fill="white"/>
<circle cx="874.702" cy="914.453" r="5" transform="rotate(-13.3664 874.702 914.453)" fill="white"/>
<circle cx="1076.62" cy="842.836" r="5" transform="rotate(-13.3664 1076.62 842.836)" fill="white"/>
<circle cx="1208" cy="1015.13" r="5" transform="rotate(-13.3664 1208 1015.13)" fill="white"/>
<circle cx="1410.14" cy="1069.88" r="5" transform="rotate(-13.3664 1410.14 1069.88)" fill="white"/>
<circle cx="1419.69" cy="751.039" r="5" transform="rotate(-13.3664 1419.69 751.039)" fill="white"/>
<circle cx="1673.81" cy="881.836" r="5" transform="rotate(-13.3664 1673.81 881.836)" fill="white"/>
<circle cx="1797.46" cy="762.006" r="5" transform="rotate(-13.3664 1797.46 762.006)" fill="white"/>
<g filter="url(#filter0_d_188_413)">
<path d="M-88.7629 597.088C-88.7629 597.088 86.7766 389.718 180.715 420.507C274.346 451.194 290.083 733.709 471.55 647.419C653.979 560.673 898.745 507.365 945.443 703.896C975.034 828.429 1252.7 736.963 1412.05 647.501C1719.92 474.644 1734.47 568.318 1799.13 639.293C1863.79 710.268 2080.95 735.243 2080.95 735.243" stroke="white" stroke-width="25"/>
</g>
<g filter="url(#filter1_d_188_413)">
<path d="M-28.8846 1065C-28.8846 1065 222.574 905.96 294.741 874.434C366.907 842.907 455.029 960.716 589.338 1028.5C723.647 1096.29 912.156 926.445 1018.41 997.987C1124.66 1069.53 1204.8 1174.68 1335.88 1166.15C1466.96 1157.62 1596.43 1026.98 1683.89 963.2C1771.35 899.421 2083.83 1121.53 2083.83 1121.53" stroke="white" stroke-width="25"/>
</g>
<path d="M132.329 768.4C138.685 795.15 121.356 822.4 93.2964 829.067C65.2367 835.735 37.5022 819.192 31.1462 792.443C24.7902 765.693 42.119 738.443 70.1788 731.776C98.2385 725.109 125.973 741.651 132.329 768.4Z" fill="#97D4F1" stroke="black" stroke-width="7"/>
<path d="M66.7099 820.995C67.8294 825.706 64.7795 830.704 59.5478 831.947C54.3161 833.191 49.344 830.099 48.2246 825.387C47.1051 820.676 50.155 815.678 55.3867 814.435C60.6184 813.192 65.5905 816.284 66.7099 820.995Z" fill="#4A9ACB" stroke="black" stroke-width="7"/>
<path d="M112.775 729.364C114.089 734.895 110.525 740.692 104.501 742.123C98.4764 743.554 92.6852 739.981 91.3712 734.45C90.0571 728.92 93.6216 723.123 99.6458 721.692C105.67 720.26 111.461 723.834 112.775 729.364Z" fill="#4A9ACB" stroke="black" stroke-width="7"/>
<path d="M104.774 786.092C105.7 784.396 105.075 782.27 103.378 781.344C101.681 780.418 99.5552 781.043 98.6293 782.739L104.774 786.092ZM78.9962 833.331L104.774 786.092L98.6293 782.739L72.8515 829.978L78.9962 833.331Z" fill="black"/>
<path d="M56.954 762.912C56.0014 764.594 56.5927 766.729 58.2747 767.682C59.9566 768.635 62.0924 768.043 63.045 766.361L56.954 762.912ZM76.8833 727.723L56.954 762.912L63.045 766.361L82.9742 731.173L76.8833 727.723Z" fill="black"/>
<path d="M102.981 762.197C102.068 763.9 102.709 766.022 104.413 766.935C106.116 767.848 108.238 767.207 109.151 765.503L102.981 762.197ZM114.037 741.571L102.981 762.197L109.151 765.503L120.206 744.878L114.037 741.571Z" fill="black"/>
<path d="M115.708 806.09C116.623 804.387 115.985 802.265 114.283 801.349C112.58 800.434 110.458 801.072 109.543 802.774L115.708 806.09ZM104.302 827.301L115.708 806.09L109.543 802.774L98.1372 823.986L104.302 827.301Z" fill="black"/>
<path d="M59.8143 787.631C60.8087 785.974 60.2711 783.824 58.6135 782.829C56.9559 781.835 54.806 782.373 53.8116 784.03L59.8143 787.631ZM44.3535 813.404L59.8143 787.631L53.8116 784.03L38.3508 809.803L44.3535 813.404Z" fill="black"/>
<path d="M1403.64 834.088C1405.73 813.002 1422.49 828.438 1423.69 830.188C1424.89 831.938 1434.22 850.444 1444.61 862.665C1453.37 872.978 1470.29 885.937 1470.29 885.937L1470.8 902.309C1470.8 902.309 1401.55 855.173 1403.64 834.088Z" fill="white" stroke="black" stroke-width="7" stroke-linecap="round" stroke-linejoin="round"/>
<path d="M1559.15 875.712C1555.06 870.374 1548.02 864.488 1548.02 864.488L1544.68 893.365C1544.68 893.365 1563.24 881.051 1559.15 875.712Z" fill="white" stroke="black" stroke-width="7" stroke-linecap="round" stroke-linejoin="round"/>
<path d="M1540.68 909.405C1547.24 890.357 1547.85 859.881 1547.85 859.881C1547.85 859.881 1527.11 862.989 1514.13 860.732C1500.4 858.344 1481 847.453 1481 847.453C1481 847.453 1469.32 861.047 1467.7 864.305C1466.07 867.563 1481.2 876.478 1481.2 876.478L1470.61 884.173L1467.38 920.698L1488.46 927.668L1496.83 915.492L1505.19 917.046L1502.97 934.434L1526.08 938.729C1526.08 938.729 1536.52 921.501 1540.68 909.405Z" fill="white"/>
<path d="M1491.78 868.783L1481.2 876.478M1481.2 876.478L1470.61 884.173L1467.38 920.698L1488.46 927.668L1496.83 915.492L1505.19 917.046L1502.97 934.434L1526.08 938.729C1526.08 938.729 1536.52 921.501 1540.68 909.405C1547.24 890.357 1547.85 859.881 1547.85 859.881C1547.85 859.881 1527.11 862.989 1514.13 860.732C1500.4 858.344 1481 847.453 1481 847.453C1481 847.453 1469.32 861.047 1467.7 864.305C1466.07 867.563 1481.2 876.478 1481.2 876.478Z" stroke="black" stroke-width="7" stroke-linecap="round" stroke-linejoin="round"/>
<path d="M1530.41 882.574L1515.94 878.358L1499.72 875.342L1496.43 893.039L1510.94 899.805L1526.67 902.729L1530.41 882.574Z" fill="#4050FF"/>
<path d="M1517.68 869.018L1515.94 878.358M1515.94 878.358L1530.41 882.574L1526.67 902.729L1510.94 899.805M1515.94 878.358L1499.72 875.342L1496.43 893.039L1510.94 899.805M1510.94 899.805L1509.38 908.162" stroke="black" stroke-width="7" stroke-linecap="round" stroke-linejoin="round"/>
<path d="M1546.9 818.511L1546.75 843.913L1546.3 846.371C1546.3 846.371 1527.11 849.568 1515.03 847.678C1502.69 845.747 1485.07 836.514 1485.07 836.514L1493.35 811.1C1493.35 811.1 1498.01 786.029 1500.01 788.944L1509.62 802.935L1532.23 807.139C1532.23 807.139 1546.86 794.093 1548.65 795.442C1550.43 796.791 1546.9 818.511 1546.9 818.511Z" fill="white" stroke="black" stroke-width="7"/>
<path d="M1507.1 805.62C1506 811.537 1511.03 817.435 1518.33 818.792C1525.63 820.149 1532.44 816.453 1533.54 810.535C1534.47 810.709 1527.85 809.697 1520.55 808.339C1513.25 806.982 1506.76 805.231 1507.1 805.62Z" fill="#56554D"/>
<path d="M1500.89 937.099C1500.73 937.068 1500.6 937.043 1500.48 937.025C1499.74 942.452 1504.41 947.924 1511.38 949.218C1518.28 950.502 1524.56 947.14 1525.89 941.881C1525.86 941.877 1525.84 941.873 1525.81 941.868C1525.2 941.776 1524.23 941.623 1523 941.423C1520.55 941.021 1517.06 940.428 1513.41 939.749C1509.85 939.086 1506.48 938.331 1504.01 937.776L1503.8 937.731C1502.56 937.451 1501.56 937.228 1500.89 937.099Z" fill="#56554D" stroke="#1C1B19"/>
<path d="M1465.03 923.455C1464.88 923.399 1464.75 923.353 1464.64 923.318C1463.05 928.56 1466.8 934.701 1473.47 937.078C1480.09 939.436 1486.82 937.107 1488.96 932.124C1488.93 932.115 1488.91 932.107 1488.88 932.098C1488.3 931.911 1487.36 931.607 1486.18 931.215C1483.82 930.431 1480.47 929.296 1476.97 928.048C1473.56 926.832 1470.35 925.554 1468 924.616L1467.8 924.539C1466.62 924.065 1465.67 923.688 1465.03 923.455Z" fill="white" stroke="#DADADA"/>
<path d="M1469.49 880.675C1471.21 880.256 1472.99 879.207 1474.45 877.596C1474.2 877.414 1473.87 877.168 1473.49 876.871C1472.49 876.11 1471.09 875.014 1469.65 873.824C1468.24 872.661 1466.96 871.474 1466.03 870.606C1466.01 870.582 1465.98 870.558 1465.95 870.534C1465.5 870.114 1465.15 869.783 1464.9 869.569C1463.55 871.332 1462.83 873.312 1462.75 875.116C1462.66 877.031 1463.28 878.713 1464.57 879.775C1465.86 880.838 1467.63 881.127 1469.49 880.675ZM1464.63 869.358C1464.61 869.351 1464.62 869.353 1464.63 869.36C1464.63 869.359 1464.63 869.358 1464.63 869.358Z" fill="white" stroke="#DADADA"/>
<path d="M1561.87 893.984C1565.29 890.832 1565.55 885.463 1562.5 881.761C1562.2 882.064 1561.75 882.51 1561.19 883.059C1559.96 884.256 1558.2 885.942 1556.31 887.679C1554.47 889.375 1552.65 890.905 1551.31 892.026L1551.2 892.119C1550.52 892.687 1549.98 893.137 1549.64 893.446C1549.61 893.477 1549.58 893.505 1549.55 893.531C1552.98 896.955 1558.42 897.163 1561.87 893.984ZM1549.3 893.783C1549.3 893.782 1549.3 893.78 1549.31 893.774C1549.3 893.78 1549.3 893.783 1549.3 893.783Z" fill="white" stroke="#DADADA"/>
<path d="M1548.13 858.406L1550.23 847.1C1550.23 847.1 1545.42 847.668 1539.02 848.033C1535.52 848.232 1531.55 848.371 1527.63 848.322C1524.1 848.277 1520.63 848.081 1517.58 847.641C1516.94 847.548 1516.28 847.439 1515.61 847.316C1512.06 846.665 1508.22 845.621 1504.45 844.426C1500.38 843.135 1496.4 841.667 1493 840.33C1487.21 838.048 1483.1 836.146 1483.1 836.146L1482.07 847.143C1482.07 847.143 1485.33 848.927 1490.11 851.181C1493.45 852.752 1497.53 854.552 1501.78 856.134C1505.64 857.575 1509.64 858.835 1513.33 859.58C1514 859.714 1514.65 859.832 1515.3 859.931C1518.35 860.399 1521.83 860.553 1525.36 860.518C1529.3 860.479 1533.3 860.204 1536.82 859.864C1543.27 859.243 1548.13 858.406 1548.13 858.406Z" fill="#8F8585"/>
<path d="M1536.82 859.864C1543.27 859.243 1548.13 858.406 1548.13 858.406L1550.23 847.1C1550.23 847.1 1545.42 847.668 1539.02 848.033M1536.82 859.864L1539.02 848.033M1536.82 859.864C1533.3 860.204 1529.3 860.479 1525.36 860.518M1539.02 848.033C1535.52 848.232 1531.55 848.371 1527.63 848.322M1527.63 848.322C1524.1 848.277 1520.63 848.081 1517.58 847.641C1516.94 847.548 1516.28 847.439 1515.61 847.316M1527.63 848.322L1525.36 860.518M1525.36 860.518C1521.83 860.553 1518.35 860.399 1515.3 859.931C1514.65 859.832 1514 859.714 1513.33 859.58M1513.33 859.58L1515.61 847.316M1513.33 859.58C1509.64 858.835 1505.64 857.575 1501.78 856.134M1515.61 847.316C1512.06 846.665 1508.22 845.621 1504.45 844.426M1504.45 844.426L1501.78 856.134M1504.45 844.426C1500.38 843.135 1496.4 841.667 1493 840.33M1501.78 856.134C1497.53 854.552 1493.45 852.752 1490.11 851.181M1490.11 851.181C1485.33 848.927 1482.07 847.143 1482.07 847.143L1483.1 836.146C1483.1 836.146 1487.21 838.048 1493 840.33M1490.11 851.181L1493 840.33" stroke="black" stroke-width="7"/>
<circle cx="3.5" cy="3.5" r="3.5" transform="matrix(-0.983155 -0.182774 -0.182774 0.983155 1522.34 887.686)" fill="black"/>
<path d="M1524.37 827.542C1524.02 829.443 1525.91 827.829 1527.81 828.182C1529.71 828.535 1530.9 830.722 1531.25 828.822C1531.6 826.921 1530.35 825.094 1528.45 824.741C1526.55 824.388 1524.72 825.642 1524.37 827.542Z" fill="black"/>
<path d="M1505.69 824.07C1505.34 825.97 1507.23 824.356 1509.13 824.71C1511.03 825.063 1512.22 827.25 1512.57 825.349C1512.92 823.449 1511.67 821.622 1509.77 821.268C1507.87 820.915 1506.04 822.169 1505.69 824.07Z" fill="black"/>
<circle cx="3.5" cy="3.5" r="3.5" transform="matrix(-0.983155 -0.182774 -0.182774 0.983155 1511.71 884.691)" fill="black"/>
<path d="M1516.94 836.843C1515.81 836.632 1512.53 830.828 1513.88 830.559C1515.23 830.291 1520.27 831.228 1522.06 832.081C1523.86 832.934 1518.07 837.053 1516.94 836.843Z" fill="#FFB7FA"/>
<path d="M1482.7 835.564C1482.7 835.564 1474.85 814.895 1478.23 802.184C1481.26 790.783 1485.76 784.019 1495.54 777.432C1506.31 770.183 1515.46 768.857 1528.21 771.3C1540.79 773.708 1549.27 776.92 1556.77 787.288C1564.2 797.55 1567.03 805.978 1563.89 820.143C1560.75 834.307 1549.83 846.518 1549.83 846.518C1549.83 846.518 1528.87 848.884 1515.71 846.785C1502.26 844.641 1482.7 835.564 1482.7 835.564Z" fill="#97D7FF" fill-opacity="0.65" stroke="black" stroke-width="7"/>
<path d="M1406.9 835.713C1406.9 835.713 1409.25 846.322 1414.41 847.281C1419.57 848.24 1424.92 848.215 1424.63 841.552C1424.34 834.889 1418.46 828.202 1412.66 826.612C1406.85 825.022 1406.9 835.713 1406.9 835.713Z" fill="#56554D"/>
<path d="M573.993 850.244C575.109 856.002 583.918 866.864 583.918 866.864C583.918 866.864 599.302 877.047 603.471 877.797C607.641 878.547 619.822 882.584 633.3 879.451C646.778 876.319 659.137 867.419 666.36 863.157C673.583 858.895 701.682 834.29 699.92 832.119C698.159 829.948 673.937 833.002 673.937 833.002C673.937 833.002 706.85 805.559 709.905 800.543C712.959 795.527 714.574 786.552 713.458 780.79C712.343 775.028 633.714 805.374 633.714 805.374C633.714 805.374 636.946 787.422 634.86 787.042C632.773 786.663 584.947 813.289 578.838 823.309C572.73 833.329 572.877 844.486 573.993 850.244Z" fill="#F3CC2E" stroke="#E8992B" stroke-width="7"/>
<ellipse cx="613.775" cy="844.421" rx="25.4166" ry="21.894" transform="rotate(10.1983 613.775 844.421)" fill="#E8992B"/>
<path d="M1839.28 830.792C1840.46 835.753 1837.69 840.072 1833.91 840.969C1830.14 841.866 1825.72 839.254 1824.54 834.292C1823.36 829.33 1826.13 825.012 1829.91 824.115C1833.68 823.218 1838.1 825.83 1839.28 830.792Z" fill="white" stroke="white" stroke-width="7"/>
<ellipse cx="1785.83" cy="868.491" rx="11.0714" ry="12.1613" transform="rotate(-13.3664 1785.83 868.491)" fill="white"/>
<path d="M1866.81 774.251C1867.99 779.212 1865.22 783.531 1861.44 784.428C1857.67 785.324 1853.25 782.713 1852.07 777.751C1850.9 772.789 1853.66 768.471 1857.44 767.574C1861.21 766.677 1865.63 769.289 1866.81 774.251Z" fill="white" stroke="white" stroke-width="7"/>
<path d="M1912.33 793.432C1913.51 798.394 1910.74 802.712 1906.97 803.609C1903.19 804.506 1898.78 801.895 1897.6 796.933C1896.42 791.971 1899.19 787.653 1902.96 786.756C1906.74 785.859 1911.15 788.47 1912.33 793.432Z" fill="white" stroke="white" stroke-width="7"/>
<path d="M1785.83 868.492L1834.63 834.397L1860 778.368L1904.97 795.184" stroke="white" stroke-width="7"/>
<defs>
<filter id="filter0_d_188_413" x="-102.299" y="396.885" width="2188.68" height="380.236" filterUnits="userSpaceOnUse" color-interpolation-filters="sRGB">
<feFlood flood-opacity="0" result="BackgroundImageFix"/>
<feColorMatrix in="SourceAlpha" type="matrix" values="0 0 0 0 0 0 0 0 0 0 0 0 0 0 0 0 0 0 127 0" result="hardAlpha"/>
<feOffset dy="-4"/>
<feGaussianBlur stdDeviation="2"/>
<feComposite in2="hardAlpha" operator="out"/>
<feColorMatrix type="matrix" values="0 0 0 0 0 0 0 0 0 0 0 0 0 0 0 0 0 0 0.25 0"/>
<feBlend mode="normal" in2="BackgroundImageFix" result="effect1_dropShadow_188_413"/>
<feBlend mode="normal" in="SourceGraphic" in2="effect1_dropShadow_188_413" result="shape"/>
</filter>
<filter id="filter1_d_188_413" x="-39.5635" y="856.678" width="2134.63" height="330.459" filterUnits="userSpaceOnUse" color-interpolation-filters="sRGB">
<feFlood flood-opacity="0" result="BackgroundImageFix"/>
<feColorMatrix in="SourceAlpha" type="matrix" values="0 0 0 0 0 0 0 0 0 0 0 0 0 0 0 0 0 0 127 0" result="hardAlpha"/>
<feOffset dy="4"/>
<feGaussianBlur stdDeviation="2"/>
<feComposite in2="hardAlpha" operator="out"/>
<feColorMatrix type="matrix" values="0 0 0 0 0 0 0 0 0 0 0 0 0 0 0 0 0 0 0.25 0"/>
<feBlend mode="normal" in2="BackgroundImageFix" result="effect1_dropShadow_188_413"/>
<feBlend mode="normal" in="SourceGraphic" in2="effect1_dropShadow_188_413" result="shape"/>
</filter>
</defs>
</svg>
