<svg width="139" height="144" viewBox="0 0 139 144" fill="none" xmlns="http://www.w3.org/2000/svg">
<path d="M70.9367 35.2501C60.5591 47.252 36.9048 55.9355 36.9048 55.9355C36.9048 55.9355 60.4026 63.6204 70.7215 75.2041C79.2321 84.7581 85.8276 104.878 85.8276 104.878C85.8276 104.878 93.2742 84.9698 104.592 75.2041C115.145 66.0976 134.723 55.9358 134.723 55.9358C134.723 55.9358 115.806 49.2637 104.592 38.7153C93.3779 28.1669 86.3697 4.2534 86.3697 4.2534C86.3697 4.2534 79.6448 25.179 70.9367 35.2501Z" fill="#FFE9A0" stroke="black" stroke-width="7" stroke-linecap="round" stroke-linejoin="round"/>
<path d="M23.7647 117.46C31.432 124.313 37.0323 140 37.0323 140C37.0323 140 41.8429 124.358 49.1765 117.46C55.225 111.77 68 107.316 68 107.316C68 107.316 55.4246 100.565 49.1765 93.08C43.3501 86.0998 37.0323 71 37.0323 71C37.0323 71 30.4368 85.5907 23.7647 93.08C17.0926 100.569 4 107.316 4 107.316C4 107.316 17.3309 111.71 23.7647 117.46Z" fill="#FFE9A0" stroke="black" stroke-width="7" stroke-linecap="round" stroke-linejoin="round"/>
</svg>
