<svg width="263" height="209" viewBox="0 0 263 209" fill="none" xmlns="http://www.w3.org/2000/svg">
<path d="M135.281 122.567C135.281 122.567 174.127 86.5641 201.714 79.7189C229.3 72.8737 243.051 78.6007 243.051 78.6007" stroke="black" stroke-width="7"/>
<path d="M131.607 152.939C131.607 152.939 170.453 116.936 198.039 110.091C225.625 103.246 247.028 101.679 247.028 101.679" stroke="black" stroke-width="7"/>
<path d="M100.727 117.811C100.727 117.811 139.305 88.4402 167.16 74.963C195.015 61.4859 221.153 65.162 221.153 65.162" stroke="black" stroke-width="7"/>
<path d="M83.7381 138.453C83.7381 138.453 64.3515 112.213 61.0751 121.552C57.7986 130.891 56.0709 149.812 56.0709 149.812C56.0709 149.812 33.6474 162.878 31.047 168.341C28.4466 173.804 56.9865 175.903 56.9865 175.903C56.9865 175.903 55.8454 205.2 64.3798 201.78C72.9143 198.36 84.9827 180.26 84.9827 180.26C84.9827 180.26 114.374 189.501 115.873 184.342C117.371 179.184 102.964 157.887 102.964 157.887C102.964 157.887 115.848 136.401 114.585 129.901C113.323 123.401 83.7381 138.453 83.7381 138.453Z" fill="#FFE9A0" stroke="black" stroke-width="7"/>
<path d="M73.8196 64.4015C73.8196 64.4015 53.4169 56.3162 55.9168 62.0744C58.4166 67.8325 65.779 78.1087 65.779 78.1087C65.779 78.1087 60.9294 91.2149 62.0719 94.7769C63.2143 98.3389 77.4749 91.3458 77.4749 91.3458C77.4749 91.3458 89.5923 106.823 92.1088 102.638C94.6254 98.4532 92.4563 85.6749 92.4563 85.6749C92.4563 85.6749 110.199 82.1349 108.673 79.0423C107.146 75.9498 91.2082 69.0122 91.2082 69.0122C91.2082 69.0122 87.9579 54.2507 84.5602 51.246C81.1626 48.2413 73.8196 64.4015 73.8196 64.4015Z" fill="#FFE9A0" stroke="black" stroke-width="7"/>
</svg>
